<svg width="53" height="60" viewBox="0 0 53 60" fill="none" xmlns="http://www.w3.org/2000/svg">
<path d="M51.4151 27.8086C53.2616 28.8573 53.2616 31.4789 51.4151 32.5276L4.15475 59.367C2.3082 60.4157 -9.17602e-08 59.1048 0 57.0075L2.34849e-06 3.32869C2.44025e-06 1.23135 2.3082 -0.0794905 4.15476 0.96918L51.4151 27.8086Z" fill="#F2EDFF"/>
<path fill-rule="evenodd" clip-rule="evenodd" d="M3.01758 20C3.01758 18.8264 3.96897 17.875 5.14258 17.875H43.1426C44.3162 17.875 45.2676 18.8264 45.2676 20V40C45.2676 41.1736 44.3162 42.125 43.1426 42.125H5.14258C3.96897 42.125 3.01758 41.1736 3.01758 40V20ZM5.26758 20.125V39.875H43.0176V20.125H5.26758Z" fill="#001E27"/>
<path fill-rule="evenodd" clip-rule="evenodd" d="M25.1426 24.0967C25.8716 24.2437 26.5154 24.5574 27.0258 25.0309C27.7635 25.7153 28.1426 26.6612 28.1426 27.6853H26.1426C26.1426 27.1662 25.9591 26.7695 25.6656 26.4971C25.3676 26.2207 24.8764 26.0002 24.1426 26.0002H24.1343V26.0001C23.4061 25.9941 22.918 26.2133 22.6211 26.49C22.3269 26.764 22.1426 27.165 22.1426 27.6853C22.1426 28.0818 22.3154 28.3701 22.6457 28.5966C23.0059 28.8437 23.5462 29 24.1426 29C25.0462 29 26.0059 29.2295 26.7707 29.754C27.5654 30.2991 28.1426 31.1681 28.1426 32.3147C28.1426 33.3389 27.7635 34.2847 27.0258 34.9691C26.5154 35.4426 25.8716 35.7563 25.1426 35.9033V37H23.1426V35.9083C22.4122 35.7636 21.768 35.4487 21.2578 34.9735C20.5208 34.2869 20.1426 33.3377 20.1426 32.3147H22.1426C22.1426 32.835 22.3269 33.236 22.6211 33.51C22.918 33.7867 23.4061 34.0059 24.1343 33.9999L24.1426 33.9998V33.9998C24.8764 33.9998 25.3676 33.7793 25.6656 33.5029C25.9591 33.2305 26.1426 32.8338 26.1426 32.3147C26.1426 31.9182 25.9697 31.6299 25.6395 31.4034C25.2793 31.1563 24.7389 31 24.1426 31C23.2389 31 22.2793 30.7705 21.5145 30.246C20.7197 29.7009 20.1426 28.8319 20.1426 27.6853C20.1426 26.6623 20.5208 25.7131 21.2578 25.0265C21.768 24.5513 22.4122 24.2364 23.1426 24.0917V23H25.1426V24.0967ZM14.1426 30C14.1426 31.1046 13.2471 32 12.1426 32C11.038 32 10.1426 31.1046 10.1426 30C10.1426 28.8954 11.038 28 12.1426 28C13.2471 28 14.1426 28.8954 14.1426 30ZM37.1426 30C37.1426 31.1046 36.2471 32 35.1426 32C34.038 32 33.1426 31.1046 33.1426 30C33.1426 28.8954 34.038 28 35.1426 28C36.2471 28 37.1426 28.8954 37.1426 30Z" fill="#5E16FF"/>
</svg>
