<svg width="32" height="32" viewBox="0 0 32 32" fill="none" xmlns="http://www.w3.org/2000/svg">
<path fill-rule="evenodd" clip-rule="evenodd" d="M3.0354 5.0354C3.0354 3.93083 3.93083 3.0354 5.0354 3.0354H20.4867C20.7519 3.0354 21.0063 3.14076 21.1938 3.32829L28.6717 10.8062C28.8592 10.9937 28.9646 11.2481 28.9646 11.5133V26.9646C28.9646 28.0692 28.0692 28.9646 26.9646 28.9646H5.0354C3.93083 28.9646 3.0354 28.0692 3.0354 26.9646V5.0354ZM19.4867 5.0354H5.0354V26.9646H26.9646V12.5133H21.4867C20.3822 12.5133 19.4867 11.6178 19.4867 10.5133V5.0354ZM21.4867 6.44961L25.5504 10.5133H21.4867V6.44961ZM10.0222 17.4955L10.0222 24.9734H7.02217L7.02217 17.4955H10.0222ZM21.9868 24.9734V17.4955H18.9868V24.9734H21.9868ZM24.9757 17.4955V24.9734H23.4757V17.4955H24.9757ZM17.5044 24.9734V17.4955H11.5044V24.9734H17.5044Z" fill="#001E27"/>
</svg>
