<svg width="53" height="60" viewBox="0 0 53 60" fill="none" xmlns="http://www.w3.org/2000/svg">
<path d="M51.4151 27.8086C53.2616 28.8573 53.2616 31.4789 51.4151 32.5276L4.15475 59.367C2.3082 60.4157 -9.17602e-08 59.1048 0 57.0075L2.34849e-06 3.32869C2.44025e-06 1.23135 2.3082 -0.0794905 4.15476 0.96918L51.4151 27.8086Z" fill="#F2EDFF"/>
<path fill-rule="evenodd" clip-rule="evenodd" d="M23.6174 10.0051C23.946 9.83165 24.339 9.83164 24.6676 10.0051C27.5387 11.5204 30.9269 12.494 33.634 13.0887C34.9803 13.3845 36.1429 13.5833 36.967 13.708C37.3789 13.7702 37.7055 13.8139 37.9274 13.8418C38.0384 13.8557 38.1231 13.8657 38.1792 13.8722L38.2416 13.8792L38.2561 13.8807L38.2591 13.881L38.2591 13.8811L38.2594 13.8811C38.8324 13.9409 39.2676 14.4239 39.2676 15V36.3046C39.2676 36.406 39.2539 36.5069 39.2268 36.6047C39.1944 36.7218 39.1598 36.8584 39.1209 37.0122C38.9161 37.8204 38.5917 39.1012 37.839 40.4978C36.928 42.188 35.4063 44.0424 32.7445 45.7282C27.7192 48.9109 25.2292 49.8814 24.4236 50.0893C24.2392 50.1369 24.0457 50.1369 23.8613 50.0893C23.0688 49.8847 20.5858 49.0421 15.5325 45.7231C12.8757 44.0386 11.3562 42.1863 10.4462 40.4978C9.69345 39.1012 9.36904 37.8205 9.16431 37.0122C9.12536 36.8584 9.09075 36.7218 9.05833 36.6047C9.03129 36.5069 9.01758 36.406 9.01758 36.3046V36.2838V36.2628V36.2413V36.2196V36.1976V36.1752V36.1525V36.1295V36.1062V36.0825V36.0586V36.0343V36.0097V35.9849V35.9597V35.9342V35.9084V35.8823V35.8559V35.8292V35.8022V35.7749V35.7473V35.7194V35.6913V35.6628V35.634V35.605V35.5757V35.5461V35.5162V35.486V35.4555V35.4248V35.3938V35.3625V35.3309V35.2991V35.267V35.2346V35.2019V35.169V35.1358V35.1023V35.0686V35.0346V35.0004V34.9659V34.9311V34.8961V34.8609V34.8253V34.7896V34.7535V34.7173V34.6807V34.644V34.607V34.5697V34.5322V34.4945V34.4565V34.4183V34.3798V34.3411V34.3022V34.263V34.2236V34.184V34.1442V34.1041V34.0638V34.0233V33.9826V33.9416V33.9004V33.859V33.8174V33.7756V33.7335V33.6913V33.6488V33.6062V33.5633V33.5202V33.4769V33.4334V33.3897V33.3458V33.3017V33.2574V33.2129V33.1682V33.1234V33.0783V33.033V32.9876V32.9419V32.8961V32.8501V32.8039V32.7575V32.711V32.6642V32.6173V32.5702V32.523V32.4755V32.4279V32.3801V32.3322V32.2841V32.2358V32.1873V32.1387V32.09V32.041V31.9919V31.9427V31.8933V31.8437V31.794V31.7442V31.6941V31.644V31.5937V31.5432V31.4926V31.4419V31.391V31.3399V31.2888V31.2375V31.186V31.1345V31.0827V31.0309V30.9789V30.9268V30.8746V30.8223V30.7698V30.7172V30.6645V30.6116V30.5587V30.5056V30.4524V30.3991V30.3456V30.2921V30.2385V30.1847V30.1309V30.0769V30.0228V29.9686V29.9144V29.86V29.8055V29.7509V29.6963V29.6415V29.5867V29.5317V29.4767V29.4215V29.3663V29.311V29.2557V29.2002V29.1446V29.089V29.0333V28.9775V28.9217V28.8657V28.8097V28.7536V28.6975V28.6413V28.585V28.5286V28.4722V28.4157V28.3592V28.3026V28.2459V28.1892V28.1324V28.0756V28.0187V27.9618V27.9048V27.8478V27.7907V27.7336V27.6764V27.6192V27.562V27.5047V27.4473V27.39V27.3326V27.2751V27.2177V27.1602V27.1026V27.0451V26.9875V26.9299V26.8722V26.8146V26.7569V26.6992V26.6415V26.5837V26.526V26.4682V26.4104V26.3526V26.2948V26.237V26.1792V26.1214V26.0636V26.0057V25.9479V25.8901V25.8323V25.7744V25.7166V25.6588V25.601V25.5432V25.4854V25.4276V25.3698V25.3121V25.2544V25.1966V25.1389V25.0813V25.0236V24.966V24.9084V24.8508V24.7932V24.7357V24.6782V24.6207V24.5633V24.5059V24.4485V24.3912V24.3339V24.2767V24.2195V24.1623V24.1052V24.0481V23.9911V23.9341V23.8772V23.8203V23.7635V23.7068V23.6501V23.5934V23.5368V23.4803V23.4238V23.3674V23.3111V23.2548V23.1986V23.1424V23.0864V23.0304V22.9744V22.9186V22.8628V22.8071V22.7515V22.696V22.6405V22.5851V22.5299V22.4747V22.4195V22.3645V22.3096V22.2547V22.2V22.1453V22.0908V22.0363V21.982V21.9277V21.8735V21.8195V21.7655V21.7117V21.6579V21.6043V21.5508V21.4974V21.4441V21.3909V21.3379V21.2849V21.2321V21.1794V21.1268V21.0743V21.022V20.9698V20.9177V20.8658V20.8139V20.7622V20.7107V20.6593V20.608V20.5568V20.5058V20.455V20.4042V20.3537V20.3032V20.2529V20.2028V20.1528V20.1029V20.0533V20.0037V19.9543V19.9051V19.856V19.8071V19.7584V19.7098V19.6614V19.6131V19.565V19.5171V19.4693V19.4218V19.3743V19.3271V19.28V19.2331V19.1864V19.1399V19.0936V19.0474V19.0014V18.9556V18.91V18.8646V18.8193V18.7743V18.7294V18.6848V18.6403V18.596V18.552V18.5081V18.4644V18.421V18.3777V18.3346V18.2918V18.2491V18.2067V18.1645V18.1225V18.0807V18.0391V17.9977V17.9566V17.9157V17.8749V17.8345V17.7942V17.7542V17.7143V17.6748V17.6354V17.5963V17.5574V17.5187V17.4803V17.4421V17.4042V17.3665V17.329V17.2918V17.2548V17.2181V17.1816V17.1453V17.1094V17.0736V17.0381V17.0029V16.9679V16.9332V16.8987V16.8645V16.8306V16.7969V16.7635V16.7303V16.6974V16.6648V16.6325V16.6004V16.5686V16.5371V16.5058V16.4748V16.4441V16.4137V16.3836V16.3537V16.3242V16.2949V16.2659V16.2371V16.2087V16.1806V16.1528V16.1252V16.098V16.071V16.0444V16.018V15.9919V15.9662V15.9407V15.9156V15.8908V15.8662V15.842V15.8181V15.7945V15.7712V15.7483V15.7256V15.7033V15.6813V15.6596V15.6382V15.6172V15.5965V15.5761V15.556V15.5363V15.5169V15.4978V15.4791V15.4607V15.4426V15.4249V15.4075V15.3905V15.3738V15.3574V15.3414V15.3258V15.3104V15.2955V15.2809V15.2666V15.2527V15.2391V15.2259V15.2131V15.2006V15.1885V15.1768V15.1654V15.1544V15.1437V15.1334V15.1235V15.114V15.1048V15.096V15.0876V15.0795V15.0719V15.0646V15.0577V15.0511V15.045V15.0392V15.0339V15.0289V15.0243V15.0201V15.0163V15.0129V15.0099V15.0073V15.0051V15.0032V15.0018V15.0008V15.0002C9.01758 15.0001 9.01758 15 10.1426 15H9.01758C9.01758 14.4239 9.4528 13.9409 10.0258 13.8811L10.026 13.8811M10.026 13.8811L10.0261 13.881L10.0291 13.8807L10.0436 13.8792L10.1059 13.8722C10.162 13.8657 10.2468 13.8557 10.3577 13.8418C10.5797 13.8139 10.9063 13.7702 11.3181 13.708C12.1422 13.5833 13.3048 13.3845 14.6512 13.0887C17.3582 12.494 20.7463 11.5204 23.6174 10.0051M11.2676 15.9895V15.9919V16.018V16.0444V16.071V16.098V16.1252V16.1528V16.1806V16.2087V16.2371V16.2659V16.2949V16.3242V16.3537V16.3836V16.4137V16.4441V16.4748V16.5058V16.5371V16.5686V16.6004V16.6325V16.6648V16.6974V16.7303V16.7635V16.7969V16.8306V16.8645V16.8987V16.9332V16.9679V17.0029V17.0381V17.0736V17.1094V17.1453V17.1816V17.2181V17.2548V17.2918V17.329V17.3665V17.4042V17.4421V17.4803V17.5187V17.5574V17.5963V17.6354V17.6748V17.7143V17.7542V17.7942V17.8345V17.8749V17.9157V17.9566V17.9977V18.0391V18.0807V18.1225V18.1645V18.2067V18.2491V18.2918V18.3346V18.3777V18.421V18.4644V18.5081V18.552V18.596V18.6403V18.6848V18.7294V18.7743V18.8193V18.8646V18.91V18.9556V19.0014V19.0474V19.0936V19.1399V19.1864V19.2331V19.28V19.3271V19.3743V19.4218V19.4693V19.5171V19.565V19.6131V19.6614V19.7098V19.7584V19.8071V19.856V19.9051V19.9543V20.0037V20.0533V20.1029V20.1528V20.2028V20.2529V20.3032V20.3537V20.4042V20.455V20.5058V20.5568V20.608V20.6593V20.7107V20.7622V20.8139V20.8658V20.9177V20.9698V21.022V21.0743V21.1268V21.1794V21.2321V21.2849V21.3379V21.3909V21.4441V21.4974V21.5508V21.6043V21.6579V21.7117V21.7655V21.8195V21.8735V21.9277V21.982V22.0363V22.0908V22.1453V22.2V22.2547V22.3096V22.3645V22.4195V22.4747V22.5299V22.5851V22.6405V22.696V22.7515V22.8071V22.8628V22.9186V22.9744V23.0304V23.0864V23.1424V23.1986V23.2548V23.3111V23.3674V23.4238V23.4803V23.5368V23.5934V23.6501V23.7068V23.7635V23.8203V23.8772V23.9341V23.9911V24.0481V24.1052V24.1623V24.2195V24.2767V24.3339V24.3912V24.4485V24.5059V24.5633V24.6207V24.6782V24.7357V24.7932V24.8508V24.9084V24.966V25.0236V25.0813V25.1389V25.1966V25.2544V25.3121V25.3698V25.4276V25.4854V25.5432V25.601V25.6588V25.7166V25.7744V25.8323V25.8901V25.9479V26.0057V26.0636V26.1214V26.1792V26.237V26.2948V26.3526V26.4104V26.4682V26.526V26.5837V26.6415V26.6992V26.7569V26.8146V26.8722V26.9299V26.9875V27.0451V27.1026V27.1602V27.2177V27.2751V27.3326V27.39V27.4473V27.5047V27.562V27.6192V27.6764V27.7336V27.7907V27.8478V27.9048V27.9618V28.0187V28.0756V28.1324V28.1892V28.2459V28.3026V28.3592V28.4157V28.4722V28.5286V28.585V28.6413V28.6975V28.7536V28.8097V28.8657V28.9217V28.9775V29.0333V29.089V29.1446V29.2002V29.2557V29.311V29.3663V29.4215V29.4767V29.5317V29.5867V29.6415V29.6963V29.7509V29.8055V29.86V29.9144V29.9686V30.0228V30.0769V30.1309V30.1847V30.2385V30.2921V30.3456V30.3991V30.4524V30.5056V30.5587V30.6116V30.6645V30.7172V30.7698V30.8223V30.8746V30.9268V30.9789V31.0309V31.0827V31.1345V31.186V31.2375V31.2888V31.3399V31.391V31.4419V31.4926V31.5432V31.5937V31.644V31.6941V31.7442V31.794V31.8437V31.8933V31.9427V31.9919V32.041V32.09V32.1387V32.1873V32.2358V32.2841V32.3322V32.3801V32.4279V32.4755V32.523V32.5702V32.6173V32.6642V32.711V32.7575V32.8039V32.8501V32.8961V32.9419V32.9876V33.033V33.0783V33.1234V33.1682V33.2129V33.2574V33.3017V33.3458V33.3897V33.4334V33.4769V33.5202V33.5633V33.6062V33.6488V33.6913V33.7335V33.7756V33.8174V33.859V33.9004V33.9416V33.9826V34.0233V34.0638V34.1041V34.1442V34.184V34.2236V34.263V34.3022V34.3411V34.3798V34.4183V34.4565V34.4945V34.5322V34.5697V34.607V34.644V34.6807V34.7173V34.7535V34.7896V34.8253V34.8609V34.8961V34.9311V34.9659V35.0004V35.0346V35.0686V35.1023V35.1358V35.169V35.2019V35.2346V35.267V35.2991V35.3309V35.3625V35.3938V35.4248V35.4555V35.486V35.5162V35.5461V35.5757V35.605V35.634V35.6628V35.6913V35.7194V35.7473V35.7749V35.8022V35.8292V35.8559V35.8823V35.9084V35.9342V35.9597V35.9849V36.0097V36.0343V36.0586V36.0825V36.1062V36.1295V36.1525V36.155C11.298 36.2695 11.3283 36.3879 11.3596 36.5102C11.567 37.3203 11.8181 38.301 12.4268 39.4303C13.1533 40.7781 14.4064 42.3465 16.7445 43.8274L16.7603 43.8375C21.0352 46.646 23.2984 47.5531 24.1344 47.825C24.9522 47.5398 27.2168 46.5657 31.5406 43.8274C33.8787 42.3465 35.1319 40.7781 35.8583 39.4303C36.467 38.3009 36.7181 37.3202 36.9256 36.5101C36.9569 36.3878 36.9872 36.2695 37.0176 36.155V15.9895C36.8979 15.9725 36.7687 15.9535 36.6306 15.9327C35.7672 15.8021 34.5548 15.5947 33.1511 15.2863C30.5132 14.7067 27.1446 13.7589 24.1425 12.2641C21.1404 13.7589 17.7719 14.7067 15.134 15.2863C13.7303 15.5947 12.5179 15.8021 11.6546 15.9327C11.5165 15.9535 11.3873 15.9725 11.2676 15.9895Z" fill="#001E27"/>
<path fill-rule="evenodd" clip-rule="evenodd" d="M23.6046 15.012C23.9399 14.8294 24.3451 14.8293 24.6804 15.0119C26.6956 16.1091 29.0843 16.8312 31.0053 17.2794C31.9588 17.5019 32.782 17.6535 33.365 17.7492C33.6563 17.7971 33.8869 17.8308 34.0429 17.8524C34.1209 17.8632 34.1803 17.871 34.2192 17.8759L34.2621 17.8813L34.2716 17.8824L34.2729 17.8826L34.2732 17.8826C34.8401 17.9489 35.2676 18.4292 35.2676 19V34.6455C35.2676 34.7439 35.2547 34.8419 35.2292 34.937C35.2073 35.0185 35.1835 35.1154 35.1565 35.2257C35.0112 35.8189 34.7707 36.8001 34.2154 37.8629C33.5423 39.1513 32.4204 40.5578 30.4721 41.8307C26.8761 44.1801 25.0613 44.9196 24.432 45.0871C24.2423 45.1376 24.0427 45.1376 23.8531 45.0871C23.2369 44.9231 21.4292 44.2809 17.8049 41.8254C15.8616 40.5539 14.7419 39.1496 14.0697 37.8629C13.5144 36.8001 13.274 35.8189 13.1286 35.2257C13.1016 35.1154 13.0779 35.0185 13.056 34.937C13.0305 34.8419 13.0176 34.7439 13.0176 34.6455V34.6302V34.6147V34.5989V34.5829V34.5666V34.5502V34.5334V34.5165V34.4993V34.4819V34.4643V34.4464V34.4283V34.41V34.3915V34.3727V34.3537V34.3345V34.3151V34.2954V34.2756V34.2555V34.2352V34.2147V34.1939V34.173V34.1518V34.1305V34.1089V34.0871V34.0651V34.0429V34.0205V33.9979V33.9751V33.952V33.9288V33.9054V33.8818V33.858V33.8339V33.8097V33.7853V33.7607V33.7359V33.7109V33.6858V33.6604V33.6348V33.6091V33.5832V33.557V33.5307V33.5042V33.4776V33.4507V33.4237V33.3965V33.3691V33.3415V33.3138V33.2858V33.2578V33.2295V33.201V33.1724V33.1437V33.1147V33.0856V33.0563V33.0268V32.9972V32.9674V32.9375V32.9074V32.8771V32.8467V32.8161V32.7854V32.7545V32.7234V32.6922V32.6609V32.6294V32.5977V32.5659V32.5339V32.5018V32.4695V32.4371V32.4046V32.3719V32.3391V32.3061V32.273V32.2397V32.2063V32.1728V32.1391V32.1053V32.0714V32.0373V32.0031V31.9688V31.9343V31.8997V31.865V31.8301V31.7951V31.76V31.7248V31.6895V31.654V31.6184V31.5827V31.5469V31.5109V31.4748V31.4387V31.4024V31.366V31.3294V31.2928V31.2561V31.2192V31.1823V31.1452V31.108V31.0708V31.0334V30.9959V30.9583V30.9206V30.8828V30.845V30.807V30.7689V30.7307V30.6925V30.6541V30.6157V30.5771V30.5385V30.4997V30.4609V30.422V30.3831V30.344V30.3048V30.2656V30.2263V30.1869V30.1474V30.1078V30.0682V30.0285V29.9887V29.9488V29.9089V29.8689V29.8288V29.7887V29.7485V29.7082V29.6678V29.6274V29.5869V29.5464V29.5058V29.4651V29.4244V29.3836V29.3427V29.3018V29.2608V29.2198V29.1787V29.1376V29.0964V29.0552V29.0139V28.9726V28.9312V28.8898V28.8483V28.8068V28.7652V28.7236V28.682V28.6403V28.5985V28.5568V28.515V28.4731V28.4313V28.3893V28.3474V28.3054V28.2634V28.2214V28.1793V28.1372V28.0951V28.0529V28.0108V27.9686V27.9263V27.8841V27.8418V27.7996V27.7573V27.7149V27.6726V27.6302V27.5879V27.5455V27.5031V27.4607V27.4183V27.3759V27.3334V27.291V27.2485V27.2061V27.1636V27.1212V27.0787V27.0363V26.9938V26.9513V26.9089V26.8664V26.824V26.7816V26.7391V26.6967V26.6543V26.6119V26.5695V26.5271V26.4847V26.4423V26.4V26.3577V26.3153V26.273V26.2308V26.1885V26.1463V26.1041V26.0619V26.0197V25.9776V25.9355V25.8934V25.8513V25.8093V25.7673V25.7253V25.6834V25.6415V25.5996V25.5578V25.516V25.4743V25.4326V25.3909V25.3493V25.3077V25.2661V25.2246V25.1832V25.1418V25.1004V25.0591V25.0178V24.9766V24.9354V24.8943V24.8533V24.8123V24.7713V24.7304V24.6896V24.6489V24.6081V24.5675V24.5269V24.4864V24.4459V24.4055V24.3652V24.3249V24.2848V24.2446V24.2046V24.1646V24.1247V24.0849V24.0451V24.0054V23.9658V23.9263V23.8868V23.8475V23.8082V23.769V23.7299V23.6908V23.6519V23.613V23.5742V23.5356V23.497V23.4584V23.42V23.3817V23.3435V23.3053V23.2673V23.2294V23.1915V23.1538V23.1161V23.0786V23.0411V23.0038V22.9666V22.9294V22.8924V22.8555V22.8187V22.782V22.7454V22.7089V22.6726V22.6363V22.6002V22.5642V22.5283V22.4925V22.4568V22.4213V22.3859V22.3505V22.3154V22.2803V22.2454V22.2106V22.1759V22.1414V22.107V22.0727V22.0385V22.0045V21.9706V21.9369V21.9032V21.8698V21.8364V21.8032V21.7701V21.7372V21.7044V21.6718V21.6393V21.607V21.5748V21.5427V21.5108V21.4791V21.4475V21.416V21.3847V21.3536V21.3226V21.2917V21.261V21.2305V21.2002V21.17V21.1399V21.11V21.0803V21.0508V21.0214V20.9922V20.9631V20.9342V20.9055V20.877V20.8486V20.8204V20.7924V20.7645V20.7368V20.7093V20.682V20.6549V20.6279V20.6011V20.5745V20.5481V20.5219V20.4958V20.47V20.4443V20.4188V20.3935V20.3684V20.3435V20.3188V20.2943V20.2699V20.2458V20.2219V20.1981V20.1746V20.1512V20.1281V20.1052V20.0824V20.0599V20.0376V20.0154V19.9935V19.9718V19.9503V19.929V19.908V19.8871V19.8665V19.846V19.8258V19.8058V19.786V19.7665V19.7471V19.728V19.7091V19.6904V19.672V19.6537V19.6357V19.618V19.6004V19.5831V19.566V19.5492V19.5325V19.5162V19.5V19.4841V19.4684V19.453V19.4378V19.4228V19.4081V19.3936V19.3793V19.3654V19.3516V19.3381V19.3248V19.3118V19.2991V19.2866V19.2743V19.2623V19.2506V19.2391V19.2278V19.2168V19.2061V19.1957V19.1855V19.1755V19.1658V19.1564V19.1472V19.1384V19.1297V19.1214V19.1133V19.1055V19.0979V19.0906V19.0836V19.0769V19.0704V19.0643V19.0584V19.0527V19.0474V19.0423V19.0375V19.033V19.0288V19.0249V19.0212V19.0178V19.0148V19.012V19.0095V19.0073V19.0053V19.0037V19.0024V19.0013V19.0006V19.0001C13.0176 19 13.0176 19 14.1426 19H13.0176C13.0176 18.4292 13.445 17.949 14.0118 17.8826C14.012 17.8826 14.0121 17.8826 14.0122 17.8826M14.0122 17.8826L14.0136 17.8824L14.0231 17.8813L14.066 17.8759C14.1049 17.871 14.1642 17.8632 14.2422 17.8524C14.3983 17.8308 14.6289 17.7971 14.9201 17.7492C15.5031 17.6535 16.3264 17.5019 17.2798 17.2794C19.2008 16.8312 21.5895 16.1091 23.6046 15.012M15.2676 19.9723V19.9935V20.0154V20.0376V20.0599V20.0824V20.1052V20.1281V20.1512V20.1746V20.1981V20.2219V20.2458V20.2699V20.2943V20.3188V20.3435V20.3684V20.3935V20.4188V20.4443V20.47V20.4958V20.5219V20.5481V20.5745V20.6011V20.6279V20.6549V20.682V20.7093V20.7368V20.7645V20.7924V20.8204V20.8486V20.877V20.9055V20.9342V20.9631V20.9922V21.0214V21.0508V21.0803V21.11V21.1399V21.17V21.2002V21.2305V21.261V21.2917V21.3226V21.3536V21.3847V21.416V21.4475V21.4791V21.5108V21.5427V21.5748V21.607V21.6393V21.6718V21.7044V21.7372V21.7701V21.8032V21.8364V21.8698V21.9032V21.9369V21.9706V22.0045V22.0385V22.0727V22.107V22.1414V22.1759V22.2106V22.2454V22.2803V22.3154V22.3505V22.3859V22.4213V22.4568V22.4925V22.5283V22.5642V22.6002V22.6363V22.6726V22.7089V22.7454V22.782V22.8187V22.8555V22.8924V22.9294V22.9666V23.0038V23.0411V23.0786V23.1161V23.1538V23.1915V23.2294V23.2673V23.3053V23.3435V23.3817V23.42V23.4584V23.497V23.5356V23.5742V23.613V23.6519V23.6908V23.7299V23.769V23.8082V23.8475V23.8868V23.9263V23.9658V24.0054V24.0451V24.0849V24.1247V24.1646V24.2046V24.2446V24.2848V24.3249V24.3652V24.4055V24.4459V24.4864V24.5269V24.5675V24.6081V24.6489V24.6896V24.7304V24.7713V24.8123V24.8533V24.8943V24.9354V24.9766V25.0178V25.0591V25.1004V25.1418V25.1832V25.2246V25.2661V25.3077V25.3493V25.3909V25.4326V25.4743V25.516V25.5578V25.5996V25.6415V25.6834V25.7253V25.7673V25.8093V25.8513V25.8934V25.9355V25.9776V26.0197V26.0619V26.1041V26.1463V26.1885V26.2308V26.273V26.3153V26.3577V26.4V26.4423V26.4847V26.5271V26.5695V26.6119V26.6543V26.6967V26.7391V26.7816V26.824V26.8664V26.9089V26.9513V26.9938V27.0363V27.0787V27.1212V27.1636V27.2061V27.2485V27.291V27.3334V27.3759V27.4183V27.4607V27.5031V27.5455V27.5879V27.6302V27.6726V27.7149V27.7573V27.7996V27.8418V27.8841V27.9263V27.9686V28.0108V28.0529V28.0951V28.1372V28.1793V28.2214V28.2634V28.3054V28.3474V28.3893V28.4313V28.4731V28.515V28.5568V28.5985V28.6403V28.682V28.7236V28.7652V28.8068V28.8483V28.8898V28.9312V28.9726V29.0139V29.0552V29.0964V29.1376V29.1787V29.2198V29.2608V29.3018V29.3427V29.3836V29.4244V29.4651V29.5058V29.5464V29.5869V29.6274V29.6678V29.7082V29.7485V29.7887V29.8288V29.8689V29.9089V29.9488V29.9887V30.0285V30.0682V30.1078V30.1474V30.1869V30.2263V30.2656V30.3048V30.344V30.3831V30.422V30.4609V30.4997V30.5385V30.5771V30.6157V30.6541V30.6925V30.7307V30.7689V30.807V30.845V30.8828V30.9206V30.9583V30.9959V31.0334V31.0708V31.108V31.1452V31.1823V31.2192V31.2561V31.2928V31.3294V31.366V31.4024V31.4387V31.4748V31.5109V31.5469V31.5827V31.6184V31.654V31.6895V31.7248V31.76V31.7951V31.8301V31.865V31.8997V31.9343V31.9688V32.0031V32.0373V32.0714V32.1053V32.1391V32.1728V32.2063V32.2397V32.273V32.3061V32.3391V32.3719V32.4046V32.4371V32.4695V32.5018V32.5339V32.5659V32.5977V32.6294V32.6609V32.6922V32.7234V32.7545V32.7854V32.8161V32.8467V32.8771V32.9074V32.9375V32.9674V32.9972V33.0268V33.0563V33.0856V33.1147V33.1437V33.1724V33.201V33.2295V33.2578V33.2858V33.3138V33.3415V33.3691V33.3965V33.4237V33.4507V33.4776V33.5042V33.5307V33.557V33.5832V33.6091V33.6348V33.6604V33.6858V33.7109V33.7359V33.7607V33.7853V33.8097V33.8339V33.858V33.8818V33.9054V33.9288V33.952V33.9751V33.9979V34.0205V34.0429V34.0651V34.0871V34.1089V34.1305V34.1518V34.173V34.1939V34.2147V34.2352V34.2555V34.2756V34.2954V34.3151V34.3345V34.3537V34.3727V34.3915V34.41V34.4283V34.4464V34.4643V34.4819V34.4993V34.501C15.2875 34.5787 15.3072 34.6581 15.3274 34.7393C15.4754 35.3345 15.6461 36.0213 16.0639 36.821C16.5603 37.7711 17.4204 38.8866 19.0436 39.9471L19.0594 39.9576C21.9157 41.8934 23.4908 42.5849 24.1328 42.8165C24.7589 42.5744 26.3377 41.8442 29.2415 39.9471C30.8647 38.8866 31.7248 37.771 32.2212 36.821C32.639 36.0213 32.8098 35.3344 32.9578 34.7392C32.978 34.6581 32.9977 34.5787 33.0176 34.501V19.9723C33.0119 19.9714 33.0062 19.9704 33.0005 19.9695C32.3781 19.8673 31.5049 19.7064 30.4941 19.4706C28.6433 19.0387 26.2795 18.3439 24.1425 17.2695C22.0056 18.3439 19.6418 19.0387 17.7911 19.4706C16.7802 19.7064 15.907 19.8673 15.2847 19.9695C15.279 19.9704 15.2733 19.9714 15.2676 19.9723Z" fill="#5E16FF"/>
</svg>
