<svg width="54" height="60" viewBox="0 0 54 60" fill="none" xmlns="http://www.w3.org/2000/svg">
<path d="M51.9151 27.8086C53.7616 28.8573 53.7616 31.4789 51.9151 32.5276L4.65475 59.367C2.8082 60.4157 0.5 59.1048 0.5 57.0075L0.500002 3.32869C0.500002 1.23135 2.8082 -0.0794905 4.65476 0.96918L51.9151 27.8086Z" fill="#F2EDFF"/>
<path d="M38.6426 10L12.6426 10C8.2243 10 4.64258 13.5817 4.64258 18V49C4.64258 49.5523 5.09029 50 5.64258 50H31.1426C31.6949 50 32.1426 49.5523 32.1426 49V21.1098M38.6426 10C32.112 9.99875 32.1386 16.3959 32.1424 16.6572C32.1426 16.6655 32.1426 16.6696 32.1426 16.6779V21.1098M38.6426 10V10C41.9563 10 44.6426 12.6863 44.6426 16V16.6654V20.1098C44.6426 20.6621 44.1949 21.1098 43.6426 21.1098H32.1426" stroke="#001E27" stroke-width="2.25"/>
<path fill-rule="evenodd" clip-rule="evenodd" d="M19.8017 16.9285C20.4593 17.0686 21.0503 17.3387 21.5341 17.7426C22.296 18.3788 22.7108 19.2838 22.7108 20.2829H20.4608C20.4608 19.9352 20.3301 19.6685 20.092 19.4697C19.8387 19.2583 19.3866 19.0645 18.6767 19.0645H18.6683L18.6683 19.0645C17.9639 19.0593 17.515 19.252 17.2631 19.4632C17.0245 19.6633 16.8926 19.9337 16.8926 20.2829C16.8926 20.479 16.9725 20.6585 17.2676 20.8407C17.5925 21.0413 18.1012 21.178 18.6767 21.178C19.5557 21.178 20.5016 21.3779 21.2676 21.8508C22.0634 22.342 22.7108 23.1725 22.7108 24.3232C22.7108 25.3222 22.296 26.2272 21.5341 26.8634C21.0503 27.2674 20.4593 27.5374 19.8017 27.6776V28.6061H17.5517V27.6824C16.8928 27.5437 16.3013 27.2726 15.8175 26.8671C15.0561 26.2287 14.6426 25.3207 14.6426 24.3232H16.8926C16.8926 24.6724 17.0245 24.9428 17.2631 25.1428C17.515 25.3541 17.9639 25.5468 18.6683 25.5416L18.6767 25.5415V25.5415C19.3866 25.5415 19.8387 25.3478 20.092 25.1363C20.3301 24.9376 20.4608 24.6709 20.4608 24.3232C20.4608 24.1271 20.3808 23.9475 20.0858 23.7654C19.7608 23.5648 19.2522 23.428 18.6767 23.428C17.7976 23.428 16.8517 23.2281 16.0858 22.7553C15.2899 22.2641 14.6426 21.4335 14.6426 20.2829C14.6426 19.2853 15.0561 18.3774 15.8175 17.739C16.3013 17.3334 16.8928 17.0623 17.5517 16.9237V16H19.8017V16.9285ZM10.6426 31H25.6426V33H10.6426V31ZM25.6426 35H10.6426V37H25.6426V35ZM10.6426 39H25.6426V41H10.6426V39ZM10.6426 43H25.6426V45H10.6426V43Z" fill="#5E16FF"/>
</svg>
