<svg width="129" height="73" viewBox="0 0 129 73" fill="none" xmlns="http://www.w3.org/2000/svg">
<path fill-rule="evenodd" clip-rule="evenodd" d="M90.9344 1.07633H93.4674C94.3117 1.07633 94.5241 1.3487 94.5187 2.16579C94.5187 2.45387 94.5233 2.69807 94.5272 2.90701C94.5389 3.52414 94.5447 3.83364 94.4091 4.05741C94.2726 4.28252 93.993 4.42088 93.4322 4.69844L93.4318 4.69863C93.2578 4.78473 93.0568 4.88422 92.8246 5.00384C92.4292 5.20857 92.0365 5.41375 91.6441 5.61874L91.644 5.6188L91.6439 5.61886L91.6438 5.61892C90.6688 6.12835 89.696 6.63658 88.6901 7.13374C87.813 7.57497 87.2029 7.21 87.1921 6.24038V2.17669C87.1921 1.42496 87.5298 1.08723 88.2815 1.08723C88.9431 1.07089 89.6047 1.07293 90.2686 1.07497C90.4902 1.07565 90.7121 1.07633 90.9344 1.07633ZM117.337 27.6381H107.418C106.524 27.6381 106.508 27.6381 106.72 28.5424C107.052 30.1275 107.898 31.5589 109.126 32.6147C110.354 33.6704 111.896 34.2916 113.513 34.3819C114.778 34.5251 116.058 34.4008 117.272 34.017C118.485 33.6332 119.604 32.9984 120.557 32.1539C121.466 31.3586 121.608 31.3532 122.692 31.9306L126.233 33.8208C127.033 34.2457 127.121 34.8721 126.494 35.5367C125.072 37.0724 123.342 38.2908 121.417 39.1121C119.491 39.9334 117.414 40.3393 115.322 40.3031C112.096 40.4054 108.91 39.565 106.154 37.8845C104.296 36.7718 102.718 35.248 101.542 33.4301C100.365 31.6123 99.621 29.5488 99.3665 27.3984C98.9348 24.602 99.2602 21.7411 100.309 19.1131C100.998 17.3361 102.038 15.7159 103.365 14.3487C104.693 12.9815 106.283 11.8953 108.039 11.1545C111.67 9.47467 115.795 9.19532 119.62 10.3701C123.504 11.5576 126.031 14.2214 127.496 17.9419C128.519 20.728 128.959 23.6946 128.787 26.6576C128.805 26.8768 128.737 27.0942 128.598 27.2646C128.459 27.435 128.259 27.5454 128.041 27.5727C127.752 27.6299 127.458 27.6572 127.164 27.6544L117.337 27.6381ZM113.96 22.0873H120.802C120.823 22.0873 120.844 22.0875 120.865 22.0877C121.144 22.0902 121.447 22.093 121.412 21.6679C121.243 19.7613 120.638 18.0508 119.097 16.8089C117.647 15.698 115.849 15.1417 114.025 15.24C110.114 15.24 107.385 17.517 106.671 21.3628C106.541 22.0655 106.557 22.0873 107.298 22.0873H113.96ZM94.5227 38.2642V25.0436L94.539 11.7086C94.539 10.4938 93.9289 10.1125 92.8394 10.6572C92.1531 11.0109 91.4738 11.3714 90.7934 11.7326L90.7928 11.7329L90.7928 11.7329L90.7927 11.7329C89.8801 12.2173 88.9655 12.7028 88.0295 13.1739C87.7589 13.2892 87.5318 13.4874 87.381 13.7399C87.2303 13.9925 87.1636 14.2864 87.1906 14.5793V23.1915V38.3023C87.1906 39.2992 87.463 39.577 88.438 39.577H93.2262C94.332 39.577 94.5227 39.3537 94.5227 38.2642ZM36.151 25.0429V11.7079C36.151 10.4877 36.7666 10.0737 37.8451 10.6511C39.4176 11.4646 40.9846 12.2908 42.5462 13.1296C42.623 13.1879 42.7108 13.2302 42.8042 13.254C42.8976 13.2779 42.9949 13.2829 43.0903 13.2687C43.1856 13.2545 43.2772 13.2214 43.3596 13.1713C43.442 13.1212 43.5137 13.0552 43.5702 12.9771C45.662 10.7492 48.3366 9.86126 51.3054 9.70874C52.4259 9.64902 53.5496 9.7148 54.6555 9.90484C56.7507 10.2055 58.6573 11.2803 59.9993 12.9172C60.2662 13.2386 60.4351 13.3203 60.8 13.037C63.9389 10.6226 67.853 9.44066 71.8036 9.71419C73.9533 9.75285 76.0259 10.5212 77.6813 11.8931C79.1677 13.2204 80.2194 14.965 80.6991 16.8992C81.1142 18.3979 81.3195 19.947 81.3092 21.5022V38.3234C81.3092 39.4129 81.124 39.5709 80.0781 39.5763H75.2518C74.2658 39.5763 73.9934 39.304 73.988 38.3071V22.3138C73.9925 21.2287 73.7833 20.1533 73.3724 19.1489C72.5935 17.2587 71.0846 16.4253 69.1126 16.3218C65.4412 16.1584 63.0443 18.2991 62.5759 22.1395C62.4906 22.8024 62.4487 23.4702 62.4506 24.1387V38.2417C62.4506 39.3312 62.2218 39.5763 61.1487 39.5763H56.306C55.3909 39.5763 55.1185 39.2985 55.1185 38.367V22.1395C55.1175 21.332 55.0113 20.5282 54.8026 19.7481C54.2579 17.7381 53.0267 16.5778 50.9622 16.3599C48.7179 16.1202 46.6806 16.6214 45.1554 18.4299C44.0923 19.721 43.5261 21.3498 43.5593 23.022C43.5376 26.3523 43.5448 29.685 43.5521 33.017V33.0176C43.5557 34.683 43.5593 36.3483 43.5593 38.0129C43.5757 38.2487 43.5757 38.4853 43.5593 38.7211C43.5603 38.8452 43.534 38.968 43.4824 39.0809C43.4308 39.1938 43.355 39.294 43.2605 39.3745C43.166 39.455 43.0551 39.5138 42.9354 39.5468C42.8158 39.5798 42.6903 39.5861 42.5679 39.5654H37.0171C36.3634 39.5654 36.1456 39.2658 36.1456 38.476L36.151 25.0429ZM4.01198 35.3174C7.19321 38.6131 11.1807 40.0511 15.7074 40.0511C16.9655 40.0883 18.2232 39.9638 19.4497 39.6807C24.0472 38.6512 27.6206 36.2217 29.7995 31.9946C31.403 28.8447 31.8927 25.2446 31.1886 21.7809C30.219 16.3172 27.1794 12.4497 21.9827 10.4233C20.1899 9.76241 18.2182 9.77478 16.4339 10.4581C14.6495 11.1413 13.1739 12.4491 12.281 14.1383C11.7036 15.1842 11.8561 15.8106 12.7931 16.3989C15.5748 18.1239 18.3384 19.8562 21.0839 21.5957C21.4294 21.8118 21.7756 22.0277 22.1219 22.2437C23.2769 22.9638 24.4338 23.6853 25.5779 24.4228C26.2969 24.8859 26.2479 25.5177 25.5071 25.9317L25.1367 26.1169L12.439 32.3269C11.6981 32.7136 10.9573 33.0732 10.2056 33.4163C10.0939 33.4825 9.96722 33.5191 9.83748 33.5226C9.70773 33.5262 9.57926 33.4966 9.46417 33.4366C9.34908 33.3766 9.25119 33.2882 9.1798 33.1798C9.10841 33.0714 9.06586 32.9466 9.05619 32.8171C9.02345 32.5844 9.01251 32.3492 9.02351 32.1144V18.5997C9.02788 17.8122 9.08847 17.0248 9.14884 16.2401C9.16364 16.0478 9.17843 15.8556 9.19237 15.6636C9.29323 14.2088 9.58255 12.7732 10.0531 11.3929C10.1511 11.0987 10.2601 10.7555 9.92778 10.5268C9.62841 10.3206 9.38208 10.4505 9.13305 10.5819C9.10567 10.5963 9.07826 10.6108 9.05074 10.6248C8.93607 10.6841 8.82716 10.7549 8.71982 10.8247C8.67927 10.851 8.63896 10.8772 8.59863 10.9026C7.22434 11.7896 5.96229 12.8395 4.83998 14.0294C1.35915 17.6627 -0.536521 21.8735 0.133498 27.0212C0.478684 30.1379 1.84188 33.0539 4.01198 35.3174Z" fill="#00E2F4"/>
<path d="M4.32175 58.188C4.32175 56.8722 4.61845 55.6919 5.21185 54.647C5.80525 53.5892 6.6115 52.7636 7.6306 52.1702C8.6626 51.5768 9.80425 51.2801 11.0555 51.2801C12.5261 51.2801 13.8097 51.6348 14.9062 52.3443C16.0027 53.0538 16.8025 54.06 17.3056 55.3629H15.1964C14.8223 54.5502 14.2805 53.9246 13.571 53.486C12.8744 53.0474 12.0359 52.8281 11.0555 52.8281C10.1138 52.8281 9.2689 53.0474 8.5207 53.486C7.7725 53.9246 7.18555 54.5502 6.75985 55.3629C6.33415 56.1627 6.1213 57.1044 6.1213 58.188C6.1213 59.2587 6.33415 60.2004 6.75985 61.0131C7.18555 61.8129 7.7725 62.4321 8.5207 62.8707C9.2689 63.3093 10.1138 63.5286 11.0555 63.5286C12.0359 63.5286 12.8744 63.3158 13.571 62.8901C14.2805 62.4515 14.8223 61.8258 15.1964 61.0131H17.3056C16.8025 62.3031 16.0027 63.3029 14.9062 64.0124C13.8097 64.709 12.5261 65.0573 11.0555 65.0573C9.80425 65.0573 8.6626 64.767 7.6306 64.1865C6.6115 63.5931 5.80525 62.774 5.21185 61.7291C4.61845 60.6842 4.32175 59.5038 4.32175 58.188ZM19.2689 59.6006C19.2689 58.517 19.4882 57.5688 19.9268 56.7561C20.3654 55.9305 20.9652 55.292 21.7263 54.8405C22.5003 54.389 23.3582 54.1632 24.2999 54.1632C25.2287 54.1632 26.0349 54.3632 26.7186 54.7631C27.4023 55.163 27.9119 55.6661 28.2473 56.2724V54.3374H30.0275V64.9412H28.2473V62.9675C27.899 63.5867 27.3765 64.1027 26.6799 64.5155C25.9962 64.9154 25.1964 65.1153 24.2805 65.1153C23.3388 65.1153 22.4874 64.8831 21.7263 64.4187C20.9652 63.9543 20.3654 63.3029 19.9268 62.4644C19.4882 61.6259 19.2689 60.6713 19.2689 59.6006ZM28.2473 59.6199C28.2473 58.8201 28.086 58.1235 27.7635 57.5301C27.441 56.9367 27.0024 56.4852 26.4477 56.1756C25.9059 55.8531 25.3061 55.6919 24.6482 55.6919C23.9903 55.6919 23.3904 55.8467 22.8486 56.1563C22.3068 56.4659 21.8747 56.9174 21.5522 57.5108C21.2297 58.1042 21.0684 58.8008 21.0684 59.6006C21.0684 60.4133 21.2297 61.1228 21.5522 61.7291C21.8747 62.3225 22.3068 62.7804 22.8486 63.1029C23.3904 63.4125 23.9903 63.5673 24.6482 63.5673C25.3061 63.5673 25.9059 63.4125 26.4477 63.1029C27.0024 62.7804 27.441 62.3225 27.7635 61.7291C28.086 61.1228 28.2473 60.4197 28.2473 59.6199ZM36.757 65.1153C35.9443 65.1153 35.2155 64.9799 34.5705 64.709C33.9255 64.4252 33.4159 64.0382 33.0418 63.548C32.6677 63.0449 32.4613 62.4708 32.4226 61.8258H34.2415C34.2931 62.3547 34.5382 62.7869 34.9768 63.1223C35.4283 63.4577 36.0153 63.6254 36.7377 63.6254C37.4085 63.6254 37.9374 63.477 38.3244 63.1803C38.7114 62.8836 38.9049 62.5095 38.9049 62.058C38.9049 61.5936 38.6985 61.2518 38.2857 61.0325C37.8729 60.8003 37.2343 60.5745 36.37 60.3552C35.5831 60.1488 34.9381 59.9424 34.435 59.736C33.9448 59.5167 33.5191 59.2007 33.1579 58.7879C32.8096 58.3622 32.6355 57.8075 32.6355 57.1238C32.6355 56.582 32.7967 56.0853 33.1192 55.6338C33.4417 55.1823 33.8997 54.8276 34.4931 54.5696C35.0865 54.2987 35.7637 54.1632 36.5248 54.1632C37.6987 54.1632 38.6469 54.4599 39.3693 55.0533C40.0917 55.6467 40.4787 56.4594 40.5303 57.4914H38.7694C38.7307 56.9367 38.505 56.4917 38.0922 56.1563C37.6923 55.8209 37.1505 55.6532 36.4668 55.6532C35.8347 55.6532 35.3316 55.7886 34.9575 56.0595C34.5834 56.3304 34.3963 56.6852 34.3963 57.1238C34.3963 57.4721 34.506 57.7623 34.7253 57.9945C34.9575 58.2138 35.2413 58.3944 35.5767 58.5363C35.925 58.6653 36.4023 58.8137 37.0086 58.9814C37.7697 59.1878 38.3889 59.3942 38.8662 59.6006C39.3435 59.7941 39.7498 60.0908 40.0852 60.4907C40.4335 60.8906 40.6141 61.413 40.627 62.058C40.627 62.6385 40.4658 63.161 40.1433 63.6254C39.8208 64.0898 39.3628 64.4574 38.7694 64.7283C38.1889 64.9863 37.5181 65.1153 36.757 65.1153ZM48.376 54.1439C49.1758 54.1439 49.8982 54.318 50.5432 54.6663C51.1882 55.0017 51.6913 55.5113 52.0525 56.195C52.4266 56.8787 52.6136 57.7107 52.6136 58.6911V64.9412H50.8721V58.9427C50.8721 57.8849 50.6077 57.0786 50.0788 56.5239C49.5499 55.9563 48.8275 55.6725 47.9116 55.6725C46.9828 55.6725 46.241 55.9628 45.6863 56.5433C45.1445 57.1238 44.8736 57.9687 44.8736 59.0781V64.9412H43.1128V50.6222H44.8736V55.8467C45.2219 55.3049 45.6992 54.8856 46.3055 54.5889C46.9247 54.2922 47.6149 54.1439 48.376 54.1439Z" fill="white"/>
<path fill-rule="evenodd" clip-rule="evenodd" d="M66.5688 54.6463C66.5688 53.8052 67.2506 53.1234 68.0917 53.1234H77.2292C78.0703 53.1234 78.7521 53.8052 78.7521 54.6463V59.2151C78.7521 60.0562 78.0703 60.738 77.2292 60.738H68.0917C67.2506 60.738 66.5688 60.0562 66.5688 59.2151V54.6463ZM77.2292 54.6463L68.0917 54.6463V59.2151L77.2292 59.2151L77.2292 54.6463ZM65.0459 56.9307V62.2609L74.9448 62.2609V61.4995H76.4677V62.2609C76.4677 63.102 75.7859 63.7838 74.9448 63.7838H65.0459C64.2048 63.7838 63.5229 63.102 63.5229 62.2609V56.9307C63.5229 56.0896 64.2048 55.4078 65.0459 55.4078H65.8073V56.9307H65.0459ZM72.6604 58.4536C73.5015 58.4536 74.1834 57.7718 74.1834 56.9307C74.1834 56.0896 73.5015 55.4078 72.6604 55.4078C71.8194 55.4078 71.1375 56.0896 71.1375 56.9307C71.1375 57.7718 71.8194 58.4536 72.6604 58.4536Z" fill="white"/>
</svg>
