<svg width="24" height="24" viewBox="0 0 24 24" fill="none" xmlns="http://www.w3.org/2000/svg">
<path fill-rule="evenodd" clip-rule="evenodd" d="M12 1.99946C11.0878 0.785284 9.6356 -6.10352e-05 8 -6.10352e-05H2C0.89543 -6.10352e-05 0 0.89537 0 1.99994L0 21.9999C0 23.1045 0.895431 23.9999 2 23.9999H11C11.3643 23.9999 11.7058 23.9025 12 23.7324C12.2942 23.9025 12.6357 23.9999 13 23.9999H16.8889C17.1745 23.9999 17.4465 23.8778 17.6363 23.6643L23.7474 16.7893C23.9101 16.6063 24 16.3699 24 16.1249V1.99994C24 0.89537 23.1046 -6.10352e-05 22 -6.10352e-05H16C14.3644 -6.10352e-05 12.9122 0.785284 12 1.99946ZM11 4.99994V21.9999H2V1.99994H8C9.65685 1.99994 11 3.34308 11 4.99994ZM16 1.99994C14.3431 1.99994 13 3.34308 13 4.99994V21.9999H15.8889V17.1249C15.8889 16.0204 16.7843 15.1249 17.8889 15.1249H22V1.99994H16ZM20.7732 17.1249H17.8889V20.3697L20.7732 17.1249ZM3.50256 8.99994H9.63178V6.99994H3.50256V8.99994ZM20.6644 8.99994H14.5352V6.99994H20.6644V8.99994ZM3.50256 12.6774H9.63178V10.6774H3.50256V12.6774ZM20.6644 12.6774H14.5352V10.6774H20.6644V12.6774ZM3.50256 16.3549H9.63178V14.3549H3.50256V16.3549Z" fill="#001E27"/>
</svg>
