<svg width="28" height="22" viewBox="0 0 28 22" fill="none" xmlns="http://www.w3.org/2000/svg">
<path fill-rule="evenodd" clip-rule="evenodd" d="M13.3141 0.120413C13.7556 -0.0401377 14.2395 -0.0401377 14.6811 0.120413L26.6786 4.48317C28.434 5.12148 28.434 7.60403 26.6786 8.24234L22.2549 9.85097V14.7665C22.2549 15.2897 22.0468 15.8425 21.5818 16.2255C20.9843 16.7177 19.6619 17.6672 17.7109 18.2907V21.9645H15.7109V18.7543C15.1107 18.8431 14.4709 18.8941 13.793 18.8941C9.66153 18.8941 6.94134 16.9974 6.00432 16.2255C5.53932 15.8425 5.33116 15.2897 5.33116 14.7665V9.75388H5.47324L1.31651 8.24234C-0.438839 7.60403 -0.438837 5.12148 1.31651 4.48317L13.3141 0.120413ZM17.7109 16.1701C18.9609 15.6846 19.8256 15.0729 20.2549 14.7268V10.5782L17.7109 11.5033V16.1701ZM15.7109 12.2306V16.728C15.1202 16.8322 14.4801 16.8941 13.793 16.8941C10.3767 16.8941 8.11979 15.3625 7.33116 14.7268V10.4295L13.3141 12.6051C13.7556 12.7656 14.2395 12.7656 14.6811 12.6051L15.7109 12.2306ZM13.9976 2L2 6.36276L13.9976 10.7255L25.9952 6.36276L13.9976 2Z" fill="#001E27"/>
</svg>
