<svg width="120" height="40" viewBox="0 0 120 40" fill="none" xmlns="http://www.w3.org/2000/svg">
<path d="M39.3247 20.1684C39.3247 20.9334 39.1751 21.6041 38.8758 22.1806C38.5765 22.757 38.1473 23.2017 37.5881 23.5149C37.0328 23.828 36.3948 23.9845 35.6742 23.9845C34.9614 23.9845 34.3254 23.8298 33.7662 23.5202C33.207 23.2106 32.7738 22.7694 32.4667 22.1966C32.1595 21.6201 32.0039 20.9583 32 20.2111V19.8268C32 19.0618 32.1516 18.3893 32.4548 17.8093C32.762 17.2258 33.1932 16.7792 33.7485 16.4697C34.3077 16.1566 34.9456 16 35.6624 16C36.3791 16 37.0151 16.1566 37.5703 16.4697C38.1295 16.7792 38.5608 17.2258 38.864 17.8093C39.1712 18.3893 39.3247 19.06 39.3247 19.8215V20.1684ZM37.529 19.8161C37.529 19.0013 37.3675 18.3822 37.0446 17.9588C36.7217 17.5354 36.261 17.3236 35.6624 17.3236C35.0677 17.3236 34.6089 17.5336 34.286 17.9534C33.9631 18.3697 33.7997 18.9818 33.7957 19.7895V20.1684C33.7957 20.9619 33.9572 21.5774 34.2801 22.0151C34.603 22.4528 35.0677 22.6716 35.6742 22.6716C36.2688 22.6716 36.7256 22.4616 37.0446 22.0418C37.3636 21.6184 37.5251 21.0028 37.529 20.1951V19.8161Z" fill="#001E27"/>
<path d="M42.9589 16.1067L45.1681 21.7429L47.3656 16.1067H49.6929V23.8778H47.9149V21.7536L48.0921 18.0869L45.7706 23.8778H44.5538L42.2382 18.0922L42.4154 21.7536V23.8778H40.6433V16.1067H42.9589Z" fill="#001E27"/>
<path d="M53.1558 23.8778H51.3837V16.1067H53.1558V23.8778Z" fill="#001E27"/>
<path d="M60.0093 20.51H56.6068V22.5915H60.6V23.8778H54.8347V16.1067H60.5882V17.4037H56.6068V19.2557H60.0093V20.51Z" fill="#001E27"/>
<path d="M61.6468 23.1199C61.6468 22.8744 61.7374 22.6751 61.9186 22.5221C62.1037 22.3691 62.334 22.2926 62.6097 22.2926C62.8893 22.2926 63.1197 22.3691 63.3008 22.5221C63.4859 22.6751 63.5784 22.8744 63.5784 23.1199C63.5784 23.3619 63.4879 23.5593 63.3067 23.7123C63.1256 23.8618 62.8932 23.9365 62.6097 23.9365C62.3301 23.9365 62.0997 23.8618 61.9186 23.7123C61.7374 23.5593 61.6468 23.3619 61.6468 23.1199Z" fill="#001E27"/>
<path d="M69.6817 21.839C69.6817 21.5365 69.5636 21.3052 69.3273 21.1451C69.091 20.9814 68.6657 20.8107 68.0514 20.6327C67.4371 20.4513 66.9507 20.2734 66.5924 20.099C65.6157 19.6222 65.1274 18.98 65.1274 18.1723C65.1274 17.7524 65.2574 17.3788 65.5173 17.0514C65.7811 16.7205 66.1572 16.4626 66.6455 16.2775C67.1378 16.0925 67.6891 16 68.2995 16C68.9138 16 69.4612 16.1014 69.9417 16.3042C70.4221 16.5035 70.7942 16.7864 71.0581 17.1528C71.3259 17.5193 71.4598 17.9356 71.4598 18.4018H69.6877C69.6877 18.046 69.5636 17.7702 69.3155 17.5745C69.0674 17.3752 68.7189 17.2756 68.27 17.2756C67.8368 17.2756 67.5001 17.3592 67.2599 17.5265C67.0196 17.6901 66.8995 17.9072 66.8995 18.1776C66.8995 18.4302 67.0393 18.6419 67.3189 18.8127C67.6025 18.9835 68.0179 19.1436 68.5653 19.2931C69.5735 19.5671 70.3079 19.9069 70.7686 20.3125C71.2294 20.7181 71.4598 21.2234 71.4598 21.8283C71.4598 22.5008 71.1782 23.0292 70.6151 23.4135C70.0519 23.7942 69.2939 23.9845 68.3408 23.9845C67.6793 23.9845 67.0767 23.876 66.5333 23.659C65.9898 23.4384 65.5744 23.1377 65.2869 22.757C65.0034 22.3763 64.8616 21.935 64.8616 21.4333H66.6396C66.6396 22.2909 67.2067 22.7196 68.3408 22.7196C68.7622 22.7196 69.091 22.6431 69.3273 22.4901C69.5636 22.3336 69.6817 22.1165 69.6817 21.839Z" fill="#001E27"/>
<path d="M74.58 23.8778H72.8079V16.1067H74.58V23.8778Z" fill="#001E27"/>
<path d="M78.5745 16.1067L80.7837 21.7429L82.9812 16.1067H85.3085V23.8778H83.5305V21.7536L83.7077 18.0869L81.3862 23.8778H80.1694L77.8538 18.0922L78.031 21.7536V23.8778H76.2589V16.1067H78.5745Z" fill="#001E27"/>
<path d="M86.887 23.8778V16.1067H89.8996C90.9432 16.1067 91.7347 16.2882 92.2743 16.6511C92.8138 17.0105 93.0835 17.5389 93.0835 18.2363C93.0835 18.617 92.9752 18.9533 92.7586 19.2451C92.542 19.5333 92.2408 19.745 91.8549 19.8802C92.2959 19.9798 92.6425 20.1809 92.8945 20.4833C93.1505 20.7857 93.2785 21.1558 93.2785 21.5935C93.2785 22.3407 93.0146 22.9064 92.4869 23.2907C91.9592 23.675 91.2071 23.8707 90.2304 23.8778H86.887ZM88.6591 20.494V22.5915H90.1773C90.5947 22.5915 90.9196 22.5026 91.1519 22.3247C91.3882 22.1432 91.5063 21.8941 91.5063 21.5774C91.5063 20.8658 91.0988 20.5047 90.2836 20.494H88.6591ZM88.6591 19.3625H89.9705C90.8644 19.3482 91.3114 19.0262 91.3114 18.3964C91.3114 18.0442 91.1972 17.7915 90.9688 17.6385C90.7443 17.482 90.3879 17.4037 89.8996 17.4037H88.6591V19.3625Z" fill="#001E27"/>
<path d="M96.5286 23.8778H94.7565V16.1067H96.5286V23.8778Z" fill="#001E27"/>
<path d="M105.272 20.1684C105.272 20.9334 105.123 21.6041 104.823 22.1806C104.524 22.757 104.095 23.2017 103.536 23.5149C102.98 23.828 102.343 23.9845 101.622 23.9845C100.909 23.9845 100.273 23.8298 99.7139 23.5202C99.1547 23.2106 98.7215 22.7694 98.4143 22.1966C98.1072 21.6201 97.9516 20.9583 97.9477 20.2111V19.8268C97.9477 19.0618 98.0993 18.3893 98.4025 17.8093C98.7097 17.2258 99.1409 16.7792 99.6961 16.4697C100.255 16.1566 100.893 16 101.61 16C102.327 16 102.963 16.1566 103.518 16.4697C104.077 16.7792 104.508 17.2258 104.812 17.8093C105.119 18.3893 105.272 19.06 105.272 19.8215V20.1684ZM103.477 19.8161C103.477 19.0013 103.315 18.3822 102.992 17.9588C102.669 17.5354 102.209 17.3236 101.61 17.3236C101.015 17.3236 100.557 17.5336 100.234 17.9534C99.9108 18.3697 99.7473 18.9818 99.7434 19.7895V20.1684C99.7434 20.9619 99.9049 21.5774 100.228 22.0151C100.551 22.4528 101.015 22.6716 101.622 22.6716C102.216 22.6716 102.673 22.4616 102.992 22.0418C103.311 21.6184 103.473 21.0028 103.477 20.1951V19.8161Z" fill="#001E27"/>
<path d="M111.051 21.839C111.051 21.5365 110.933 21.3052 110.696 21.1451C110.46 20.9814 110.035 20.8107 109.42 20.6327C108.806 20.4513 108.32 20.2734 107.961 20.099C106.985 19.6222 106.496 18.98 106.496 18.1723C106.496 17.7524 106.626 17.3788 106.886 17.0514C107.15 16.7205 107.526 16.4626 108.015 16.2775C108.507 16.0925 109.058 16 109.669 16C110.283 16 110.83 16.1014 111.311 16.3042C111.791 16.5035 112.163 16.7864 112.427 17.1528C112.695 17.5193 112.829 17.9356 112.829 18.4018H111.057C111.057 18.046 110.933 17.7702 110.685 17.5745C110.436 17.3752 110.088 17.2756 109.639 17.2756C109.206 17.2756 108.869 17.3592 108.629 17.5265C108.389 17.6901 108.269 17.9072 108.269 18.1776C108.269 18.4302 108.408 18.6419 108.688 18.8127C108.972 18.9835 109.387 19.1436 109.934 19.2931C110.943 19.5671 111.677 19.9069 112.138 20.3125C112.598 20.7181 112.829 21.2234 112.829 21.8283C112.829 22.5008 112.547 23.0292 111.984 23.4135C111.421 23.7942 110.663 23.9845 109.71 23.9845C109.048 23.9845 108.446 23.876 107.902 23.659C107.359 23.4384 106.943 23.1377 106.656 22.757C106.372 22.3763 106.231 21.935 106.231 21.4333H108.009C108.009 22.2909 108.576 22.7196 109.71 22.7196C110.131 22.7196 110.46 22.6431 110.696 22.4901C110.933 22.3336 111.051 22.1165 111.051 21.839Z" fill="#001E27"/>
<path d="M119.239 20.51H115.837V22.5915H119.83V23.8778H114.065V16.1067H119.818V17.4037H115.837V19.2557H119.239V20.51Z" fill="#001E27"/>
<path d="M11.9667 31.693C8.51802 31.693 5.48017 30.5974 3.05654 28.0866C1.40324 26.3621 0.364687 24.1406 0.101706 21.7661C-0.40875 17.8443 1.03547 14.6363 3.68735 11.8682C4.54239 10.9617 5.50389 10.1618 6.5509 9.48608C6.66295 9.41553 6.77498 9.33667 6.89533 9.27442C7.10699 9.16652 7.31036 9.02542 7.56351 9.19972C7.81666 9.37402 7.73365 9.63548 7.65895 9.85958C7.3005 10.9112 7.08008 12.0049 7.00324 13.1132C6.94929 13.8561 6.87874 14.6031 6.87459 15.3501C6.87459 18.7822 6.87459 22.2143 6.87459 25.6464C6.86621 25.8252 6.87454 26.0044 6.89949 26.1817C6.90686 26.2803 6.93928 26.3754 6.99366 26.458C7.04805 26.5406 7.12263 26.6079 7.21031 26.6536C7.29799 26.6993 7.39587 26.7219 7.49471 26.7192C7.59356 26.7165 7.69011 26.6886 7.77517 26.6382C8.34787 26.3768 8.91227 26.1029 9.47668 25.8082L19.1504 21.0772L19.4326 20.9361C19.997 20.6207 20.0344 20.1392 19.4866 19.7865C18.3536 19.0561 17.2041 18.3464 16.0628 17.6326C13.9712 16.3074 11.8657 14.9877 9.74644 13.6735C9.03263 13.2253 8.91643 12.748 9.35633 11.9512C10.0366 10.6642 11.1608 9.66794 12.5202 9.14738C13.8796 8.62683 15.3817 8.6174 16.7476 9.12087C20.7067 10.6647 23.0224 13.6112 23.7611 17.7737C24.2975 20.4126 23.9245 23.1553 22.7029 25.5551C21.0429 28.7755 18.3204 30.6264 14.8178 31.4108C13.8834 31.6265 12.9252 31.7213 11.9667 31.693Z" fill="#00E2F4"/>
</svg>
