<svg id="Layer_1" data-name="Layer 1" xmlns="http://www.w3.org/2000/svg" viewBox="0 0 546.59 313.46"><defs><style>.cls-1{fill:#00e2f4;}.cls-2{fill:#001e27;}</style></defs><path class="cls-1" d="M354.8,93.67h.51a2.44,2.44,0,0,1,2.44,2.44v77.7a2.44,2.44,0,0,1-2.44,2.44H339.55a2.44,2.44,0,0,1-2.44-2.44V104.22a2.46,2.46,0,0,1,1.29-2.16L353.66,94A2.41,2.41,0,0,1,354.8,93.67Z"/><path class="cls-1" d="M337.11,69.62v12.7a2.43,2.43,0,0,0,3.56,2.16l15.77-8.18a2.42,2.42,0,0,0,1.31-2.16V69.62a2.44,2.44,0,0,0-2.44-2.44H339.55A2.44,2.44,0,0,0,337.11,69.62Z"/><path class="cls-1" d="M435.72,153.76a2.43,2.43,0,0,0-2.84.41,26.1,26.1,0,0,1-19,7.63c-11.52,0-20.81-7.4-22.19-19.61h60.53a2.44,2.44,0,0,0,2.44-2.44v-3.24c0-28.73-15.66-44.9-38.71-44.9-24.95,0-44.9,17.37-44.9,43.35s20,43.36,44.9,43.36c12.15,0,23.56-4,32.84-14.11a2.45,2.45,0,0,0-.64-3.83Zm-22.66-46.67c12.91,0,20.82,7.57,21,19.62H391.73C393.28,114.83,400.85,107.09,413.06,107.09Z"/><path class="cls-1" d="M90,134.63c0,25.74,19.77,43,44.49,43s44.48-17.21,44.48-43c0-12.45-4.47-23.64-11.29-30.57-20.82-21.16-38.94-9.23-43.41,1.34-.87,2.08-.39,3.91,2.32,5.31l36.2,22.66a2.29,2.29,0,0,1,0,4L118.8,159a2.29,2.29,0,0,1-3.37-2V119.29c0-14.14,1.62-19.32,2.82-22.72.91-2.57-.42-3.44-2.27-2.51C112.83,95.64,90,110.64,90,134.63Z"/><path class="cls-1" d="M290.55,91.61a46.39,46.39,0,0,0-29.72,10.56c-4.82-7.11-12.67-10.56-23.27-10.56-9.45,0-18.72,2.79-25.29,10.56h-.34L196.46,94a3.52,3.52,0,0,0-1.7-.29,2.44,2.44,0,0,0-2.44,2.44v77.7a2.44,2.44,0,0,0,2.44,2.44h15.76a2.44,2.44,0,0,0,2.44-2.44V131.18c0-11,5.33-21,18.93-21,10,0,14.1,6.71,14.1,16.86v46.76a2.44,2.44,0,0,0,2.44,2.44H264.2a2.44,2.44,0,0,0,2.44-2.44V131.52c0-10.66,4.82-21.33,17.72-21.33,12.21,0,15.31,9,15.31,19.27v44.35a2.44,2.44,0,0,0,2.44,2.44h15.76a2.44,2.44,0,0,0,2.44-2.44V127.05C320.31,107.26,312.57,91.61,290.55,91.61Z"/><path class="cls-2" d="M150.05,242.47H133.28l-3.19,8.82h-5.31l14.13-37.44h5.57l14.07,37.44h-5.3Zm-1.4-3.84-7-19.26-7,19.26Z"/><path class="cls-2" d="M186.09,224.24a12.83,12.83,0,0,1,4.6,8.11H185.5a7.66,7.66,0,0,0-2.95-5,9.66,9.66,0,0,0-6-1.81,9.53,9.53,0,0,0-4.74,1.19,8.62,8.62,0,0,0-3.43,3.65,14.89,14.89,0,0,0,0,12.17,8.65,8.65,0,0,0,3.43,3.66,10.37,10.37,0,0,0,10.72-.65,7.78,7.78,0,0,0,2.95-5h5.19a12.78,12.78,0,0,1-4.6,8.14,14.55,14.55,0,0,1-9.41,3,15.28,15.28,0,0,1-7.58-1.84,13,13,0,0,1-5.17-5.27,18.59,18.59,0,0,1,0-16.21,13,13,0,0,1,5.17-5.3,15.28,15.28,0,0,1,7.58-1.84A14.46,14.46,0,0,1,186.09,224.24Z"/><path class="cls-2" d="M216.64,223.37a11.32,11.32,0,0,1,4.19,5.79v-7.57h4.92v29.7h-4.92v-7.57a11.32,11.32,0,0,1-4.19,5.79,12.26,12.26,0,0,1-7.34,2.16,13.43,13.43,0,0,1-7-1.84,12.63,12.63,0,0,1-4.84-5.27,19.54,19.54,0,0,1,0-16.21,12.59,12.59,0,0,1,4.84-5.3,13.43,13.43,0,0,1,7-1.84A12.26,12.26,0,0,1,216.64,223.37Zm-13.21,5.12c-1.82,1.92-2.73,4.59-2.73,8s.91,6.05,2.73,8a9.54,9.54,0,0,0,7.28,2.89,10.1,10.1,0,0,0,5.22-1.35,9.32,9.32,0,0,0,3.6-3.81,12.05,12.05,0,0,0,1.3-5.71,12.17,12.17,0,0,0-1.3-5.74,9.08,9.08,0,0,0-3.6-3.81,10.19,10.19,0,0,0-5.22-1.33A9.54,9.54,0,0,0,203.43,228.49Z"/><path class="cls-2" d="M253.11,223.37a11.32,11.32,0,0,1,4.19,5.79V211.25h4.92v40H257.3v-7.57a11.32,11.32,0,0,1-4.19,5.79,12.26,12.26,0,0,1-7.34,2.16,13.43,13.43,0,0,1-7-1.84,12.63,12.63,0,0,1-4.84-5.27,19.54,19.54,0,0,1,0-16.21,12.59,12.59,0,0,1,4.84-5.3,13.43,13.43,0,0,1,7-1.84A12.26,12.26,0,0,1,253.11,223.37Zm-13.21,5.12c-1.82,1.92-2.73,4.59-2.73,8s.91,6.05,2.73,8a9.55,9.55,0,0,0,7.28,2.89A10.1,10.1,0,0,0,252.4,246a9.32,9.32,0,0,0,3.6-3.81,12.05,12.05,0,0,0,1.3-5.71,12.17,12.17,0,0,0-1.3-5.74,9.08,9.08,0,0,0-3.6-3.81,10.19,10.19,0,0,0-5.22-1.33A9.56,9.56,0,0,0,239.9,228.49Z"/><path class="cls-2" d="M297.18,237.5H273.42q.16,5.08,2.9,7.62a9.43,9.43,0,0,0,6.68,2.55,9.65,9.65,0,0,0,6-1.82,7.45,7.45,0,0,0,2.95-4.84h5.25a12.42,12.42,0,0,1-7.25,9.31,16.08,16.08,0,0,1-6.71,1.35,15.28,15.28,0,0,1-7.58-1.84,12.91,12.91,0,0,1-5.16-5.27,18.5,18.5,0,0,1,0-16.21,12.86,12.86,0,0,1,5.16-5.3,15.28,15.28,0,0,1,7.58-1.84,15,15,0,0,1,7.55,1.84,12.58,12.58,0,0,1,4.92,4.92,13.84,13.84,0,0,1,1.71,6.82A15.06,15.06,0,0,1,297.18,237.5Zm-5.84-7.91a8,8,0,0,0-3.41-3.3,10.44,10.44,0,0,0-4.71-1.08,9.73,9.73,0,0,0-6.82,2.52q-2.76,2.52-3,7.38h19A10.18,10.18,0,0,0,291.34,229.59Z"/><path class="cls-2" d="M348.72,224.43q3.16,3.33,3.17,9.6v17.26H347V234.46c0-2.92-.71-5.15-2.14-6.71a7.56,7.56,0,0,0-5.87-2.32A8.09,8.09,0,0,0,332.7,228q-2.35,2.56-2.35,7.55v15.74h-4.92V234.46c0-2.92-.73-5.15-2.17-6.71a7.59,7.59,0,0,0-5.84-2.32,8.15,8.15,0,0,0-6.31,2.57q-2.36,2.56-2.35,7.55v15.74h-4.92v-29.7h4.92v6.76a9.63,9.63,0,0,1,3.87-5.38,12.06,12.06,0,0,1,13,.05,10.45,10.45,0,0,1,4,5.65,10.77,10.77,0,0,1,4.17-5.6,11.57,11.57,0,0,1,6.6-2A11,11,0,0,1,348.72,224.43Z"/><path class="cls-2" d="M361.57,221.59,371.2,245l8.93-23.37h5.47L368,265.36h-5.58l6.17-14.55-12.5-29.22Z"/><rect class="cls-2" x="417.36" y="224.16" width="9.35" height="3.18"/><rect class="cls-2" x="417.36" y="231.17" width="9.35" height="3.18"/><rect class="cls-2" x="439.81" y="224.16" width="9.35" height="3.18"/><rect class="cls-2" x="439.81" y="231.17" width="9.35" height="3.18"/><rect class="cls-2" x="417.36" y="238.16" width="9.35" height="3.18"/><path class="cls-2" d="M452.6,213H440a8.69,8.69,0,0,0-6.82,3.31,8.71,8.71,0,0,0-6.82-3.31H413.72a4,4,0,0,0-4,4V248.5a4,4,0,0,0,4,4h17.34a3.87,3.87,0,0,1,4.2,0h9.48A1.89,1.89,0,0,0,446,252l10-8.61a1.87,1.87,0,0,0,.65-1.42V217A4,4,0,0,0,452.6,213Zm-21.54,35.68H413.72a.22.22,0,0,1-.22-.22V217a.22.22,0,0,1,.22-.22h12.62a5,5,0,0,1,4.94,4.94V248.5A.22.22,0,0,1,431.06,248.72Zm4-.22V221.74h0A4.94,4.94,0,0,1,440,216.8H452.6a.22.22,0,0,1,.22.22v20.14h-6.55a5.28,5.28,0,0,0-5.54,5v6.59h-5.47A.22.22,0,0,1,435,248.5Zm9.44-.16v-6.21c0-.57.74-1.21,1.79-1.21h6.55v.21Z"/></svg>