<svg id="Layer_1" data-name="Layer 1" xmlns="http://www.w3.org/2000/svg" viewBox="0 0 546.59 313.46"><defs><style>.cls-1{fill:#001e27;}.cls-2{fill:#00e2f4;}</style></defs><path class="cls-1" d="M439.82,252.28h-29a4.15,4.15,0,0,1-4.15-4.16V231.25a4.16,4.16,0,0,1,4.15-4.16H413v3.76h-2.16a.39.39,0,0,0-.39.4v16.87a.39.39,0,0,0,.39.4h29a.4.4,0,0,0,.4-.4V246H444v2.15A4.16,4.16,0,0,1,439.82,252.28Z"/><path class="cls-1" d="M449.51,242.59H420.56a4.16,4.16,0,0,1-4.16-4.16V221.56a4.16,4.16,0,0,1,4.16-4.16h28.95a4.16,4.16,0,0,1,4.16,4.16v16.87A4.16,4.16,0,0,1,449.51,242.59Zm-28.95-21.43a.4.4,0,0,0-.4.4v16.87a.4.4,0,0,0,.4.4h28.95a.4.4,0,0,0,.4-.4V221.56a.4.4,0,0,0-.4-.4Z"/><path class="cls-2" d="M355.87,93.67h.51a2.44,2.44,0,0,1,2.44,2.44v77.7a2.44,2.44,0,0,1-2.44,2.44H340.62a2.44,2.44,0,0,1-2.44-2.44V104.22a2.46,2.46,0,0,1,1.29-2.16L354.73,94A2.38,2.38,0,0,1,355.87,93.67Z"/><path class="cls-2" d="M338.18,69.62v12.7a2.43,2.43,0,0,0,3.56,2.16l15.77-8.18a2.44,2.44,0,0,0,1.31-2.16V69.62a2.44,2.44,0,0,0-2.44-2.44H340.62A2.44,2.44,0,0,0,338.18,69.62Z"/><path class="cls-2" d="M436.79,153.76a2.43,2.43,0,0,0-2.84.41,26.1,26.1,0,0,1-19,7.63c-11.52,0-20.81-7.4-22.19-19.61h60.53a2.44,2.44,0,0,0,2.44-2.44v-3.24c0-28.73-15.66-44.9-38.71-44.9-24.95,0-44.9,17.37-44.9,43.35s19.95,43.36,44.9,43.36c12.15,0,23.56-4,32.84-14.11a2.45,2.45,0,0,0-.64-3.83Zm-22.66-46.67c12.91,0,20.82,7.57,21,19.62H392.8C394.35,114.83,401.92,107.09,414.13,107.09Z"/><path class="cls-2" d="M91.08,134.63c0,25.74,19.77,43,44.49,43s44.48-17.21,44.48-43c0-12.45-4.47-23.64-11.29-30.57-20.82-21.16-38.94-9.23-43.41,1.34-.87,2.08-.39,3.91,2.32,5.31l36.2,22.66a2.29,2.29,0,0,1,0,4l-44,21.58a2.29,2.29,0,0,1-3.37-2V119.29c0-14.14,1.62-19.32,2.82-22.72.91-2.57-.42-3.44-2.27-2.51C113.9,95.64,91.08,110.64,91.08,134.63Z"/><path class="cls-2" d="M291.62,91.61a46.39,46.39,0,0,0-29.72,10.56c-4.82-7.11-12.67-10.56-23.27-10.56-9.45,0-18.73,2.79-25.29,10.56H213L197.53,94a3.52,3.52,0,0,0-1.7-.29,2.44,2.44,0,0,0-2.44,2.44v77.7a2.44,2.44,0,0,0,2.44,2.44h15.76a2.44,2.44,0,0,0,2.44-2.44V131.18c0-11,5.33-21,18.92-21,10,0,14.11,6.71,14.11,16.86v46.76a2.44,2.44,0,0,0,2.44,2.44h15.77a2.44,2.44,0,0,0,2.44-2.44V131.52c0-10.66,4.81-21.33,17.72-21.33,12.21,0,15.31,9,15.31,19.27v44.35a2.44,2.44,0,0,0,2.44,2.44h15.76a2.44,2.44,0,0,0,2.44-2.44V127.05C321.38,107.26,313.64,91.61,291.62,91.61Z"/><path class="cls-1" d="M279,216.2a17.55,17.55,0,0,1,6.28,9.39h-5.2a12.65,12.65,0,0,0-4.71-6,13.6,13.6,0,0,0-8-2.25,12.25,12.25,0,0,0-11.34,7,17.48,17.48,0,0,0-1.7,7.93,17.15,17.15,0,0,0,1.7,7.84,12.6,12.6,0,0,0,4.66,5.17,12.46,12.46,0,0,0,6.68,1.81,13.67,13.67,0,0,0,8-2.24,12.67,12.67,0,0,0,4.71-6h5.2a17.55,17.55,0,0,1-6.28,9.39,18.58,18.58,0,0,1-11.53,3.44,18.11,18.11,0,0,1-9.47-2.46,17.1,17.1,0,0,1-6.41-6.88,21.4,21.4,0,0,1-2.3-10,21.71,21.71,0,0,1,2.3-10.12,17,17,0,0,1,6.41-6.9,18.11,18.11,0,0,1,9.47-2.46A18.58,18.58,0,0,1,279,216.2Z"/><path class="cls-1" d="M311.42,223.37a11.34,11.34,0,0,1,4.2,5.79v-7.57h4.92v29.7h-4.92v-7.57a11.34,11.34,0,0,1-4.2,5.79,12.21,12.21,0,0,1-7.33,2.16,13.41,13.41,0,0,1-7-1.84,12.71,12.71,0,0,1-4.85-5.27,19.64,19.64,0,0,1,0-16.21,12.68,12.68,0,0,1,4.85-5.3,13.41,13.41,0,0,1,7-1.84A12.21,12.21,0,0,1,311.42,223.37Zm-13.2,5.12c-1.82,1.92-2.73,4.59-2.73,8s.91,6.05,2.73,8a9.54,9.54,0,0,0,7.28,2.89,10.1,10.1,0,0,0,5.22-1.35,9.45,9.45,0,0,0,3.6-3.81,12.17,12.17,0,0,0,1.3-5.71,12.3,12.3,0,0,0-1.3-5.74,9.21,9.21,0,0,0-3.6-3.81,10.19,10.19,0,0,0-5.22-1.33A9.54,9.54,0,0,0,298.22,228.49Z"/><path class="cls-1" d="M345.78,223.83a11.05,11.05,0,0,1,3.71,7.06h-4.71a6.75,6.75,0,0,0-2.19-4.35,7.11,7.11,0,0,0-5-1.71,6.21,6.21,0,0,0-4.14,1.27,4.28,4.28,0,0,0-1.49,3.44,3.52,3.52,0,0,0,1,2.62,6.41,6.41,0,0,0,2.49,1.52q1.49.51,4.08,1.11a39.78,39.78,0,0,1,5.33,1.54,8.28,8.28,0,0,1,3.47,2.52,7.08,7.08,0,0,1,1.43,4.65,7.32,7.32,0,0,1-2.73,5.9,11,11,0,0,1-7.28,2.27,14,14,0,0,1-8.66-2.54,10.19,10.19,0,0,1-3.95-7.09h4.76a6.22,6.22,0,0,0,2.36,4.38,8.48,8.48,0,0,0,5.49,1.68,5.7,5.7,0,0,0,4-1.3,4.39,4.39,0,0,0,1.43-3.41,3.73,3.73,0,0,0-1-2.76,6.75,6.75,0,0,0-2.54-1.57,38.23,38.23,0,0,0-4.17-1.13,40.15,40.15,0,0,1-5.27-1.52,8,8,0,0,1-3.36-2.41,6.72,6.72,0,0,1-1.38-4.46,7.46,7.46,0,0,1,2.76-6,11.36,11.36,0,0,1,7.52-2.3A12,12,0,0,1,345.78,223.83Z"/><path class="cls-1" d="M380.39,224.43q3.19,3.33,3.19,9.6v17.26h-4.92V234.46c0-3-.76-5.23-2.28-6.81a8.11,8.11,0,0,0-6.17-2.38,8.44,8.44,0,0,0-6.49,2.62q-2.43,2.63-2.43,7.66v15.74h-4.93v-40h4.93v17.37a10.07,10.07,0,0,1,4-5.57,11.68,11.68,0,0,1,6.68-2A11.1,11.1,0,0,1,380.39,224.43Z"/><path class="cls-1" d="M435,236.86A6.87,6.87,0,1,1,441.9,230,6.87,6.87,0,0,1,435,236.86Zm0-10a3.14,3.14,0,1,0,3.14,3.13A3.13,3.13,0,0,0,435,226.86Z"/></svg>