<svg id="Layer_1" data-name="Layer 1" xmlns="http://www.w3.org/2000/svg" viewBox="0 0 546.59 313.46"><defs><style>.cls-1{fill:#00e2f4;}.cls-2{fill:#001e27;}</style></defs><path class="cls-1" d="M355.74,93.67h.51a2.44,2.44,0,0,1,2.44,2.44v77.7a2.44,2.44,0,0,1-2.44,2.44H340.49a2.44,2.44,0,0,1-2.44-2.44V104.22a2.46,2.46,0,0,1,1.29-2.16L354.6,94A2.41,2.41,0,0,1,355.74,93.67Z"/><path class="cls-1" d="M338.05,69.62v12.7a2.43,2.43,0,0,0,3.56,2.16l15.77-8.18a2.42,2.42,0,0,0,1.31-2.16V69.62a2.44,2.44,0,0,0-2.44-2.44H340.49A2.44,2.44,0,0,0,338.05,69.62Z"/><path class="cls-1" d="M436.66,153.76a2.43,2.43,0,0,0-2.84.41,26.1,26.1,0,0,1-19,7.63c-11.52,0-20.81-7.4-22.19-19.61H453.2a2.44,2.44,0,0,0,2.44-2.44v-3.24c0-28.73-15.66-44.9-38.71-44.9C392,91.61,372,109,372,135s20,43.36,44.9,43.36c12.15,0,23.56-4,32.84-14.11a2.45,2.45,0,0,0-.64-3.83ZM414,107.09c12.91,0,20.82,7.57,21,19.62H392.67C394.22,114.83,401.79,107.09,414,107.09Z"/><path class="cls-1" d="M91,134.63c0,25.74,19.77,43,44.49,43s44.48-17.21,44.48-43c0-12.45-4.47-23.64-11.29-30.57-20.82-21.16-38.94-9.23-43.41,1.34-.87,2.08-.39,3.91,2.32,5.31l36.2,22.66a2.3,2.3,0,0,1,0,4l-44,21.58a2.29,2.29,0,0,1-3.37-2V119.29c0-14.14,1.62-19.32,2.82-22.72.91-2.57-.42-3.44-2.27-2.51C113.77,95.64,91,110.64,91,134.63Z"/><path class="cls-1" d="M291.49,91.61a46.39,46.39,0,0,0-29.72,10.56C257,95.06,249.1,91.61,238.5,91.61c-9.45,0-18.72,2.79-25.29,10.56h-.34L197.4,94a3.52,3.52,0,0,0-1.7-.29,2.44,2.44,0,0,0-2.44,2.44v77.7a2.44,2.44,0,0,0,2.44,2.44h15.76a2.44,2.44,0,0,0,2.44-2.44V131.18c0-11,5.33-21,18.93-21,10,0,14.1,6.71,14.1,16.86v46.76a2.44,2.44,0,0,0,2.44,2.44h15.77a2.44,2.44,0,0,0,2.44-2.44V131.52c0-10.66,4.82-21.33,17.72-21.33,12.21,0,15.31,9,15.31,19.27v44.35a2.44,2.44,0,0,0,2.44,2.44h15.76a2.44,2.44,0,0,0,2.44-2.44V127.05C321.25,107.26,313.51,91.61,291.49,91.61Z"/><path class="cls-2" d="M352.18,213.14v4H335.51v13.2h14.12v3.84H335.51v17.1h-4.92V213.14Z"/><path class="cls-2" d="M358.07,210.68a3.5,3.5,0,0,1,2.44-.84,3.45,3.45,0,0,1,2.43.84,3.08,3.08,0,0,1,0,4.39,3.45,3.45,0,0,1-2.43.83,3.49,3.49,0,0,1-2.44-.83,3.08,3.08,0,0,1,0-4.39Zm4.87,10.91v29.7H358v-29.7Z"/><path class="cls-2" d="M385,247v4.33h-3.68q-4.54,0-6.79-2.16t-2.25-7.25v-16h-4.43v-4.27h4.43v-7.42h5v7.42H385v4.27h-7.69V242c0,1.91.35,3.21,1.06,3.92A5.09,5.09,0,0,0,382,247Z"/><path class="cls-2" d="M415.41,228.83h-15v-4.18h12.88V211.84h4.18v14.9A2.08,2.08,0,0,1,415.41,228.83Z"/><rect class="cls-2" x="405.87" y="208.75" width="4.18" height="21.08" transform="translate(-35.57 352.7) rotate(-45)"/><path class="cls-2" d="M442.22,228.83h-15a2.1,2.1,0,0,1-2.09-2.09v-14.9h4.18v12.81h12.88Z"/><rect class="cls-2" x="424.16" y="217.2" width="21.08" height="4.18" transform="translate(-27.76 371.53) rotate(-44.99)"/><path class="cls-2" d="M417.5,253.56h-4.18V240.74H400.44v-4.17h15a2.08,2.08,0,0,1,2.09,2.09Z"/><rect class="cls-2" x="397.42" y="244.02" width="21.08" height="4.18" transform="translate(-54.56 360.48) rotate(-44.99)"/><path class="cls-2" d="M429.34,253.56h-4.18v-14.9a2.09,2.09,0,0,1,2.09-2.09h15v4.18H429.34Z"/><rect class="cls-2" x="432.61" y="235.57" width="4.18" height="21.08" transform="translate(-46.71 379.46) rotate(-45)"/></svg>