<svg id="Layer_1" data-name="Layer 1" xmlns="http://www.w3.org/2000/svg" viewBox="0 0 546.59 313.46"><defs><style>.cls-1{fill:#001e27;}.cls-2{fill:#00e2f4;}</style></defs><path class="cls-1" d="M427.56,231.79h-8.93a4.17,4.17,0,0,1-4.17-4.17V218.7a4.17,4.17,0,0,1,4.17-4.17h8.93a4.17,4.17,0,0,1,4.17,4.17v8.92A4.17,4.17,0,0,1,427.56,231.79Zm-8.93-13.5a.41.41,0,0,0-.41.41v8.92a.41.41,0,0,0,.41.41h8.93a.41.41,0,0,0,.41-.41V218.7a.41.41,0,0,0-.41-.41Z"/><path class="cls-1" d="M448.17,231.79h-8.93a4.17,4.17,0,0,1-4.17-4.17V218.7a4.17,4.17,0,0,1,4.17-4.17h8.93a4.17,4.17,0,0,1,4.16,4.17v8.92A4.17,4.17,0,0,1,448.17,231.79Zm-8.93-13.5a.41.41,0,0,0-.41.41v8.92a.41.41,0,0,0,.41.41h8.93a.4.4,0,0,0,.4-.41V218.7a.4.4,0,0,0-.4-.41Z"/><path class="cls-1" d="M427.56,252.48h-8.93a4.17,4.17,0,0,1-4.17-4.17v-8.93a4.17,4.17,0,0,1,4.17-4.17h8.93a4.17,4.17,0,0,1,4.17,4.17v8.93A4.17,4.17,0,0,1,427.56,252.48ZM418.63,239a.42.42,0,0,0-.41.41v8.93a.42.42,0,0,0,.41.41h8.93a.42.42,0,0,0,.41-.41v-8.93a.42.42,0,0,0-.41-.41Z"/><path class="cls-1" d="M448.17,252.48h-8.93a4.17,4.17,0,0,1-4.17-4.17v-8.93a4.17,4.17,0,0,1,4.17-4.17h8.93a4.17,4.17,0,0,1,4.16,4.17v8.93A4.17,4.17,0,0,1,448.17,252.48ZM439.24,239a.41.41,0,0,0-.41.41v8.93a.41.41,0,0,0,.41.41h8.93a.41.41,0,0,0,.4-.41v-8.93a.41.41,0,0,0-.4-.41Z"/><path class="cls-2" d="M355.87,93.09h.51a2.44,2.44,0,0,1,2.44,2.44v77.7a2.44,2.44,0,0,1-2.44,2.44H340.62a2.44,2.44,0,0,1-2.44-2.44v-69.6a2.44,2.44,0,0,1,1.29-2.15l15.26-8.11A2.49,2.49,0,0,1,355.87,93.09Z"/><path class="cls-2" d="M338.18,69v12.7a2.44,2.44,0,0,0,3.56,2.17l15.77-8.18a2.46,2.46,0,0,0,1.31-2.17V69a2.44,2.44,0,0,0-2.44-2.44H340.62A2.44,2.44,0,0,0,338.18,69Z"/><path class="cls-2" d="M436.79,153.17a2.46,2.46,0,0,0-2.84.41,26.06,26.06,0,0,1-19,7.64c-11.52,0-20.81-7.4-22.19-19.62h60.53a2.44,2.44,0,0,0,2.44-2.44v-3.23c0-28.73-15.66-44.91-38.71-44.91-24.95,0-44.9,17.38-44.9,43.36s19.95,43.35,44.9,43.35c12.15,0,23.56-4,32.84-14.11a2.44,2.44,0,0,0-.64-3.82Zm-22.66-46.66c12.91,0,20.82,7.57,21,19.61H392.8C394.35,114.25,401.92,106.51,414.13,106.51Z"/><path class="cls-2" d="M91.08,134.05c0,25.73,19.77,42.95,44.49,42.95s44.48-17.22,44.48-42.95c0-12.46-4.47-23.64-11.29-30.58-20.82-21.15-38.94-9.23-43.41,1.35-.87,2.08-.39,3.91,2.32,5.3l36.2,22.67a2.29,2.29,0,0,1,0,4l-44,21.59a2.29,2.29,0,0,1-3.37-2V118.71c0-14.14,1.62-19.32,2.82-22.73.91-2.57-.42-3.43-2.27-2.5C113.9,95.06,91.08,110.06,91.08,134.05Z"/><path class="cls-2" d="M291.62,91a46.39,46.39,0,0,0-29.72,10.57C257.08,94.48,249.23,91,238.63,91c-9.45,0-18.73,2.8-25.29,10.57H213l-15.47-8.22a3.45,3.45,0,0,0-1.7-.28,2.44,2.44,0,0,0-2.44,2.44v77.7a2.44,2.44,0,0,0,2.44,2.44h15.76a2.44,2.44,0,0,0,2.44-2.44V130.59c0-11,5.33-21,18.92-21,10,0,14.11,6.71,14.11,16.86v46.77a2.45,2.45,0,0,0,2.44,2.44h15.77a2.45,2.45,0,0,0,2.44-2.44V130.94c0-10.67,4.81-21.34,17.72-21.34,12.21,0,15.31,9,15.31,19.27v44.36a2.44,2.44,0,0,0,2.44,2.44h15.76a2.44,2.44,0,0,0,2.44-2.44V126.46C321.38,106.68,313.64,91,291.62,91Z"/><path class="cls-1" d="M273.74,245.84a9.9,9.9,0,0,1-3.95,3.79,13.47,13.47,0,0,1-6.55,1.46,15.73,15.73,0,0,1-6.74-1.38,12.14,12.14,0,0,1-4.71-3.79,10.66,10.66,0,0,1-2-5.49H255a7.47,7.47,0,0,0,3.82,5.71,8.54,8.54,0,0,0,4.25,1,6.74,6.74,0,0,0,5-1.73,6,6,0,0,0,1.74-4.44,5.73,5.73,0,0,0-1.22-3.79,8.66,8.66,0,0,0-3-2.3,41.23,41.23,0,0,0-4.87-1.81,48.93,48.93,0,0,1-5.82-2.25,10,10,0,0,1-3.74-3.16,9.31,9.31,0,0,1-1.54-5.58,9.62,9.62,0,0,1,1.44-5.25,9.36,9.36,0,0,1,4.11-3.51,14.81,14.81,0,0,1,6.3-1.25q5.63,0,8.93,2.74a10.45,10.45,0,0,1,3.84,6.95h-5.3a7.16,7.16,0,0,0-2.33-4,7.33,7.33,0,0,0-5.14-1.73,7,7,0,0,0-4.76,1.55,5.43,5.43,0,0,0-1.78,4.35,5.37,5.37,0,0,0,1.16,3.6,8,8,0,0,0,2.89,2.16,45,45,0,0,0,4.77,1.76,49.94,49.94,0,0,1,5.92,2.27,10.13,10.13,0,0,1,3.82,3.28,9.83,9.83,0,0,1,1.56,5.82A10.21,10.21,0,0,1,273.74,245.84Z"/><path class="cls-1" d="M295.81,246.38v4.33h-3.68q-4.54,0-6.79-2.17c-1.5-1.44-2.24-3.86-2.24-7.25v-16h-4.44V221h4.44v-7.41h5V221h7.69v4.28h-7.69V241.4c0,1.91.36,3.22,1.06,3.92a5,5,0,0,0,3.65,1.06Z"/><path class="cls-1" d="M323,222.46a13.25,13.25,0,0,1,5.3,5.3,16.5,16.5,0,0,1,1.92,8.12,16.33,16.33,0,0,1-1.92,8.09,13.26,13.26,0,0,1-5.3,5.28,16.84,16.84,0,0,1-15.31,0,13.34,13.34,0,0,1-5.33-5.28,16.12,16.12,0,0,1-1.95-8.09,16.29,16.29,0,0,1,1.95-8.12,13.32,13.32,0,0,1,5.33-5.3,16.84,16.84,0,0,1,15.31,0Zm-12.55,3.68a9,9,0,0,0-3.63,3.65,12.33,12.33,0,0,0-1.38,6.09,12.17,12.17,0,0,0,1.38,6,9,9,0,0,0,3.63,3.66,10.66,10.66,0,0,0,9.79,0,8.93,8.93,0,0,0,3.62-3.66,12.17,12.17,0,0,0,1.38-6,12.33,12.33,0,0,0-1.38-6.09,9,9,0,0,0-3.62-3.65,10.66,10.66,0,0,0-9.79,0Z"/><path class="cls-1" d="M345.81,222.22a12.68,12.68,0,0,1,6.71-1.71v5.36H351a10.47,10.47,0,0,0-6.81,2.14c-1.77,1.42-2.65,3.78-2.65,7.06v15.64h-4.93V221h4.93v6A10.87,10.87,0,0,1,345.81,222.22Z"/><path class="cls-1" d="M384.5,236.91H360.74q.17,5.09,2.9,7.63a9.42,9.42,0,0,0,6.68,2.54,9.64,9.64,0,0,0,6-1.81,7.47,7.47,0,0,0,2.95-4.84h5.25a12.39,12.39,0,0,1-7.25,9.3,15.93,15.93,0,0,1-6.71,1.36,15.38,15.38,0,0,1-7.58-1.84A13,13,0,0,1,357.8,244a16.64,16.64,0,0,1-1.87-8.09,16.82,16.82,0,0,1,1.87-8.12,13,13,0,0,1,5.16-5.3,15.38,15.38,0,0,1,7.58-1.84,15.05,15.05,0,0,1,7.55,1.84,12.74,12.74,0,0,1,4.92,4.93,13.77,13.77,0,0,1,1.7,6.81A15.14,15.14,0,0,1,384.5,236.91Zm-5.85-7.9a7.89,7.89,0,0,0-3.4-3.3,10.44,10.44,0,0,0-4.71-1.08,9.73,9.73,0,0,0-6.82,2.51q-2.76,2.52-3,7.39h19A10.09,10.09,0,0,0,378.65,229Z"/></svg>