<svg width="26" height="26" viewBox="0 0 26 26" fill="none" xmlns="http://www.w3.org/2000/svg">
<path fill-rule="evenodd" clip-rule="evenodd" d="M0 4.77768H4.77782L4.77778 1.71663e-05L6.77778 0L6.77782 4.77768H11.5556V6.77768H6.77783V11.5556H4.77783V6.77768H0L0 4.77768ZM2.15155 15.1818L5.7777 18.808L9.40402 15.1818L10.8182 16.596L7.19192 20.2222L10.8182 23.8484L9.40401 25.2627L5.7777 21.6364L2.15156 25.2627L0.737326 23.8485L4.36349 20.2222L0.737335 16.596L2.15155 15.1818ZM26 6.77778H14.4444V4.77778H26V6.77778ZM14.4444 21.2222H26V19.2222H14.4444V21.2222ZM21.6667 15.8889C21.6667 16.6866 21.02 17.3333 20.2222 17.3333C19.4245 17.3333 18.7778 16.6866 18.7778 15.8889C18.7778 15.0911 19.4245 14.4444 20.2222 14.4444C21.02 14.4444 21.6667 15.0911 21.6667 15.8889ZM20.2222 26C21.02 26 21.6667 25.3533 21.6667 24.5556C21.6667 23.7578 21.02 23.1111 20.2222 23.1111C19.4245 23.1111 18.7778 23.7578 18.7778 24.5556C18.7778 25.3533 19.4245 26 20.2222 26Z" fill="#001E27"/>
</svg>
