<svg width="24" height="24" viewBox="0 0 24 24" fill="none" xmlns="http://www.w3.org/2000/svg">
<path fill-rule="evenodd" clip-rule="evenodd" d="M15.6072 5.76735C14.9173 5.14517 14.025 4.74724 13 4.59282V3H11V4.58726C9.97365 4.73759 9.08097 5.13673 8.3913 5.76119C7.47895 6.58729 7 7.73913 7 8.99997C7 10.3879 7.71482 11.4284 8.6953 12.082C9.64614 12.7159 10.8517 13 12 13C12.8517 13 13.6461 13.2159 14.1953 13.582C14.7148 13.9284 15 14.3879 15 15C15 15.7379 14.7299 16.3307 14.2678 16.7473C13.7988 17.1703 13.0538 17.48 12 17.48V17.4799L11.992 17.48C10.9435 17.4884 10.2017 17.1799 9.7337 16.7562C9.27105 16.3373 9 15.7391 9 15H7C7 16.2608 7.47895 17.4127 8.3913 18.2388C9.08097 18.8632 9.97365 19.2624 11 19.4127V21H13V19.4071C14.025 19.2527 14.9173 18.8548 15.6072 18.2326C16.5201 17.4093 17 16.262 17 15C17 13.6121 16.2852 12.5716 15.3047 11.9179C14.3539 11.284 13.1483 11 12 11C11.1483 11 10.3539 10.784 9.8047 10.4179C9.28518 10.0716 9 9.61207 9 8.99997C9 8.26082 9.27105 7.66266 9.7337 7.24375C10.2017 6.82001 10.9435 6.51155 11.992 6.51994L11.992 6.51997H12C13.0538 6.51997 13.7988 6.82965 14.2678 7.2526C14.7299 7.6693 15 8.26202 15 8.99997H17C17 7.73793 16.5201 6.59065 15.6072 5.76735Z" fill="#001E27"/>
</svg>
