<svg width="24" height="24" viewBox="0 0 24 24" fill="none" xmlns="http://www.w3.org/2000/svg">
<path fill-rule="evenodd" clip-rule="evenodd" d="M6.29289 3.29289C6.48043 3.10536 6.73478 3 7 3H17C17.5523 3 18 3.44772 18 4V10C18 10.2652 17.8946 10.5196 17.7071 10.7071C17.5196 10.8946 17.2652 11 17 11V12H18C19.1046 12 20 12.8954 20 14V15.1707C21.1652 15.5825 22 16.6938 22 18C22 19.6569 20.6569 21 19 21C17.3431 21 16 19.6569 16 18C16 16.6938 16.8348 15.5825 18 15.1707V14H17C15.8954 14 15 13.1046 15 12V11H13V15.1707C14.1652 15.5825 15 16.6938 15 18C15 19.6569 13.6569 21 12 21C10.3431 21 9 19.6569 9 18C9 16.6938 9.83481 15.5825 11 15.1707V11H8.99995V12C8.99995 13.1046 8.10452 14 6.99995 14H6V15.1707C7.16519 15.5825 8 16.6938 8 18C8 19.6569 6.65685 21 5 21C3.34315 21 2 19.6569 2 18C2 16.6938 2.83481 15.5825 4 15.1707V14C4 12.8954 4.89543 12 6 12H6.99995V11C6.44769 11 6 10.5523 6 10V4C6 3.73478 6.10536 3.48043 6.29289 3.29289ZM5 17C4.44772 17 4 17.4477 4 18C4 18.5523 4.44772 19 5 19C5.55228 19 6 18.5523 6 18C6 17.4477 5.55228 17 5 17ZM18 18C18 17.4477 18.4477 17 19 17C19.5523 17 20 17.4477 20 18C20 18.5523 19.5523 19 19 19C18.4477 19 18 18.5523 18 18ZM12 17C11.4477 17 11 17.4477 11 18C11 18.5523 11.4477 19 12 19C12.5523 19 13 18.5523 13 18C13 17.4477 12.5523 17 12 17ZM15 9H13H11H8.99995L8 9V5L16 5V9H15Z" fill="#001E27"/>
</svg>
