<svg width="32" height="32" viewBox="0 0 32 32" fill="none" xmlns="http://www.w3.org/2000/svg">
<path fill-rule="evenodd" clip-rule="evenodd" d="M8 13.9747C8 9.5704 11.5704 6 15.9747 6C20.379 6 23.9494 9.5704 23.9494 13.9747C23.9494 15.2439 23.4658 16.7627 22.6527 18.3888C21.8477 19.9987 20.7636 21.6286 19.6621 23.0973C18.563 24.5628 17.4615 25.8481 16.6337 26.7678C16.3868 27.0422 16.1646 27.2836 15.9747 27.4869C15.7848 27.2836 15.5627 27.0422 15.3157 26.7678C14.4879 25.8481 13.3865 24.5628 12.2874 23.0973C11.1858 21.6286 10.1017 19.9987 9.29673 18.3888C8.48365 16.7627 8 15.2439 8 13.9747ZM15.2673 29.6394C15.2675 29.6395 15.2676 29.6397 15.9747 28.9326L15.2676 29.6397C15.4551 29.8272 15.7095 29.9326 15.9747 29.9326C16.2399 29.9326 16.4943 29.8272 16.6818 29.6397L15.9747 28.9326C16.6818 29.6397 16.682 29.6395 16.6822 29.6394L16.6827 29.6388L16.6844 29.6371L16.6902 29.6313L16.7113 29.61C16.7296 29.5915 16.7561 29.5646 16.7903 29.5296C16.8588 29.4597 16.958 29.3574 17.0837 29.2257C17.335 28.9625 17.6923 28.5813 18.1203 28.1058C18.9753 27.1558 20.1175 25.8234 21.2621 24.2973C22.4042 22.7744 23.5638 21.0388 24.4416 19.2832C25.3112 17.5439 25.9494 15.6971 25.9494 13.9747C25.9494 8.46583 21.4836 4 15.9747 4C10.4658 4 6 8.46583 6 13.9747C6 15.6971 6.63819 17.5439 7.50787 19.2832C8.38567 21.0388 9.5452 22.7744 10.6874 24.2973C11.8319 25.8234 12.9741 27.1558 13.8291 28.1058C14.2571 28.5813 14.6144 28.9625 14.8657 29.2257C14.9914 29.3574 15.0907 29.4597 15.1591 29.5296C15.1933 29.5646 15.2198 29.5915 15.2381 29.61L15.2592 29.6313L15.265 29.6371L15.2667 29.6388L15.2673 29.6394ZM13.983 13.9747C13.983 12.8748 14.8747 11.9832 15.9746 11.9832C17.0745 11.9832 17.9662 12.8748 17.9662 13.9747C17.9662 15.0746 17.0745 15.9663 15.9746 15.9663C14.8747 15.9663 13.983 15.0746 13.983 13.9747ZM15.9746 9.98315C13.7701 9.98315 11.983 11.7702 11.983 13.9747C11.983 16.1792 13.7701 17.9663 15.9746 17.9663C18.1791 17.9663 19.9662 16.1792 19.9662 13.9747C19.9662 11.7702 18.1791 9.98315 15.9746 9.98315Z" fill="#001E27"/>
</svg>
