<svg width="32" height="32" viewBox="0 0 32 32" fill="none" xmlns="http://www.w3.org/2000/svg">
<path fill-rule="evenodd" clip-rule="evenodd" d="M15.9999 4C11.5837 4 8.57964 6.77502 7.48259 10.8338C8.88665 11.408 9.87588 12.7877 9.87588 14.3984V17.248C9.87588 19.374 8.15237 21.0975 6.02632 21.0975C3.90026 21.0975 2.17676 19.374 2.17676 17.248V14.3984C2.17676 12.4575 3.61312 10.8521 5.48085 10.5872C6.7079 5.68099 10.4046 2 15.9999 2C21.5952 2 25.2919 5.681 26.519 10.5872C28.3866 10.8523 29.8228 12.4576 29.8228 14.3984V17.248C29.8228 19.374 28.0993 21.0975 25.9732 21.0975C25.7971 21.0975 25.6237 21.0857 25.4539 21.0628C24.1074 23.6708 21.8937 25.6272 18.9712 26.4154C18.7689 27.8757 17.5157 29 15.9998 29C14.3429 29 12.9998 27.6569 12.9998 26C12.9998 24.3431 14.3429 23 15.9998 23C17.0897 23 18.0439 23.5812 18.5692 24.4507C20.8158 23.8088 22.5183 22.3115 23.6046 20.2828C22.7032 19.5782 22.1237 18.4808 22.1237 17.248V14.3984C22.1237 12.7876 23.113 11.4079 24.5172 10.8337C23.4201 6.77498 20.4161 4 15.9999 4ZM24.1237 14.3984C24.1237 13.3769 24.9517 12.5488 25.9732 12.5488C26.9947 12.5488 27.8228 13.3769 27.8228 14.3984V17.248C27.8228 18.2694 26.9947 19.0975 25.9732 19.0975C24.9517 19.0975 24.1237 18.2694 24.1237 17.248V14.3984ZM6.02632 12.5488C5.00483 12.5488 4.17676 13.3769 4.17676 14.3984V17.248C4.17676 18.2694 5.00484 19.0975 6.02632 19.0975C7.04781 19.0975 7.87588 18.2694 7.87588 17.248V14.3984C7.87588 13.3769 7.0478 12.5488 6.02632 12.5488Z" fill="#001E27"/>
</svg>
