<svg width="32" height="32" viewBox="0 0 32 32" fill="none" xmlns="http://www.w3.org/2000/svg">
<path fill-rule="evenodd" clip-rule="evenodd" d="M16.7163 2.30226C16.5281 2.109 16.2698 2 16 2C15.7302 2 15.4719 2.109 15.2837 2.30226L10.2837 7.43559L11.7163 8.83108L15 5.45986V14H17V5.45986L20.2837 8.83108L21.7163 7.43559L16.7163 2.30226ZM6 9C4.89543 9 4 9.89543 4 11V26C4 27.1046 4.89543 28 6 28H26C27.1046 28 28 27.1046 28 26V23H29C29.5523 23 30 22.5523 30 22V15C30 14.4477 29.5523 14 29 14H28V11C28 9.89543 27.1046 9 26 9H23V11H26V14H25.5C23.0147 14 21 16.0147 21 18.5C21 20.9853 23.0147 23 25.5 23H26V26H6V11H9V9H6ZM26 16H28V21H26H25.5C24.1193 21 23 19.8807 23 18.5C23 17.1193 24.1193 16 25.5 16H26ZM25.5 20C26.3284 20 27 19.3284 27 18.5C27 17.6716 26.3284 17 25.5 17C24.6716 17 24 17.6716 24 18.5C24 19.3284 24.6716 20 25.5 20Z" fill="#001E27"/>
</svg>
