<svg width="32" height="32" viewBox="0 0 32 32" fill="none" xmlns="http://www.w3.org/2000/svg">
<path fill-rule="evenodd" clip-rule="evenodd" d="M22.2621 6.18412C23.0919 5.35436 24.0549 4.87397 24.9054 4.73221C25.7583 4.59006 26.4103 4.7925 26.8085 5.19069C27.2067 5.58888 27.4091 6.24083 27.267 7.09373C27.1252 7.94431 26.6448 8.90731 25.815 9.73707C25.8022 9.74995 25.7892 9.76275 25.7763 9.77547L25.7763 8.22313C25.7763 7.11857 24.8808 6.22315 23.7763 6.22315H22.2234C22.2362 6.21011 22.2491 6.1971 22.2621 6.18412ZM18.8904 8.22315C18.8704 8.31505 18.8527 8.40691 18.8374 8.49866C18.62 9.80307 18.881 11.1713 19.8544 12.1447C20.245 12.5352 20.8781 12.5352 21.2687 12.1447C21.6592 11.7542 21.6592 11.121 21.2687 10.7305C20.8705 10.3323 20.668 9.68036 20.8102 8.82746C20.8429 8.63101 20.8937 8.42856 20.9627 8.22315H23.7763L23.7764 16.6435L12.8345 27.5858L4.41406 19.1651L15.356 8.22315H18.8904ZM19.7037 6.22315C20.0146 5.71019 20.3982 5.21957 20.8479 4.76991C21.9384 3.67937 23.2699 2.97721 24.5766 2.75942C25.881 2.54202 27.2492 2.80302 28.2227 3.77647C29.1961 4.74993 29.4571 6.11812 29.2397 7.42253C29.0219 8.72927 28.3198 10.0607 27.2293 11.1513C26.7779 11.6026 26.2874 11.9856 25.7763 12.2953L25.7764 16.6435C25.7764 17.1739 25.5657 17.6826 25.1906 18.0577L14.2488 29C13.4677 29.7811 12.2013 29.7811 11.4203 29L2.99982 20.5793C2.2188 19.7982 2.21881 18.5319 2.99985 17.7509L13.9418 6.80893C14.3169 6.43386 14.8256 6.22315 15.356 6.22315H19.7037ZM16.692 15.4254C16.2156 14.9411 15.5663 14.9966 15.1317 15.4312C14.9755 15.5875 14.8561 15.8687 14.8578 16.2175C14.8594 16.568 14.9829 16.8485 15.1317 16.9973C15.7279 17.5935 15.9878 18.42 15.9915 19.1816C15.9952 19.9452 15.742 20.7815 15.1318 21.3917C14.2123 22.3112 12.7294 22.6509 11.4666 21.9472L10.7068 22.7071L9.29255 21.2929L10.0903 20.4951C9.50218 19.2694 9.86417 17.8703 10.7373 16.9972L12.1515 18.4114C11.7169 18.846 11.6614 19.4954 12.1456 19.9717L12.1515 19.9775L12.1515 19.9775C12.6418 20.4678 13.2891 20.406 13.7176 19.9775C13.8738 19.8213 13.9932 19.54 13.9915 19.1913C13.9898 18.8408 13.8664 18.5603 13.7175 18.4115C13.1213 17.8153 12.8614 16.9888 12.8578 16.2271C12.8541 15.4636 13.1073 14.6272 13.7175 14.017C14.5906 13.1439 15.9896 12.7819 17.2154 13.37L18.2925 12.2929L19.7068 13.7071L18.6675 14.7464C19.3711 16.0092 19.0313 17.4922 18.1119 18.4116L16.6977 16.9974C17.1262 16.5688 17.188 15.9214 16.6978 15.4312L16.692 15.4254L16.692 15.4254Z" fill="#001E27"/>
</svg>
