<svg width="32" height="32" viewBox="0 0 32 32" fill="none" xmlns="http://www.w3.org/2000/svg">
<path fill-rule="evenodd" clip-rule="evenodd" d="M15 12.7028L21 9.63463L21 21.3656L15 18.2973V12.7028ZM14.8771 10.5193L21.5447 7.10978C21.8547 6.95125 22.2249 6.96539 22.5219 7.1471C22.8189 7.32882 23 7.65194 23 8.00012L23 23.0001C23 23.3483 22.8189 23.6714 22.5219 23.8531C22.2249 24.0349 21.8547 24.049 21.5447 23.8905L14.8771 20.4808C14.7071 20.7902 14.378 21 14 21L9 21V24C9 25.1046 8.10457 26 7 26H6C4.89543 26 4 25.1046 4 24V20C4 19.9193 4.00958 19.8407 4.02765 19.7655C2.79026 18.757 2 17.2208 2 15.5C2 12.4624 4.46243 10 7.5 10L14 10C14.378 10 14.7071 10.2098 14.8771 10.5193ZM7.5 19H8H13V18.9091L13 12.091L13 12L7.5 12C5.567 12 4 13.567 4 15.5C4 17.433 5.567 19 7.5 19ZM30 17H25V15H30V17ZM23.6286 22.9285L28.6286 24.9285L29.3714 23.0715L24.3714 21.0715L23.6286 22.9285ZM29.3714 8.92849L24.3714 10.9285L23.6286 9.07154L28.6286 7.07154L29.3714 8.92849ZM6 24V21H7V24H6Z" fill="#001E27"/>
</svg>
