<svg width="24" height="24" viewBox="0 0 24 24" fill="none" xmlns="http://www.w3.org/2000/svg">
<path fill-rule="evenodd" clip-rule="evenodd" d="M7 10C7 7.23858 9.23858 5 12 5C14.7614 5 17 7.23858 17 10C17 10.7734 16.7023 11.7344 16.1681 12.8028C15.642 13.855 14.9297 14.9271 14.2 15.9C13.4727 16.8697 12.7431 17.7212 12.1942 18.331C12.1265 18.4062 12.0617 18.4777 12 18.5451C11.9383 18.4777 11.8735 18.4062 11.8058 18.331C11.2569 17.7212 10.5273 16.8697 9.8 15.9C9.07032 14.9271 8.35801 13.855 7.83193 12.8028C7.29773 11.7344 7 10.7734 7 10ZM11.2926 20.7068C11.2928 20.707 11.2929 20.7071 12 20L11.2929 20.7071C11.6834 21.0976 12.3166 21.0976 12.7071 20.7071L12 20C12.7071 20.7071 12.7072 20.707 12.7074 20.7068L12.7078 20.7064L12.7091 20.7051L12.7133 20.7009L12.7281 20.686L12.7822 20.6309C12.8289 20.5833 12.8962 20.5139 12.9812 20.4249C13.1511 20.2468 13.3922 19.9896 13.6808 19.669C14.2569 19.0288 15.0273 18.1303 15.8 17.1C16.5703 16.0729 17.358 14.895 17.9569 13.6972C18.5477 12.5156 19 11.2266 19 10C19 6.13401 15.866 3 12 3C8.13401 3 5 6.13401 5 10C5 11.2266 5.45227 12.5156 6.04307 13.6972C6.64199 14.895 7.42968 16.0729 8.2 17.1C8.97275 18.1303 9.74309 19.0288 10.3192 19.669C10.6078 19.9896 10.8489 20.2468 11.0188 20.4249C11.1038 20.5139 11.1711 20.5833 11.2178 20.6309L11.2719 20.686L11.2867 20.7009L11.2909 20.7051L11.2922 20.7064L11.2926 20.7068ZM11 10C11 9.44772 11.4477 9 12 9C12.5523 9 13 9.44772 13 10C13 10.5523 12.5523 11 12 11C11.4477 11 11 10.5523 11 10ZM12 7C10.3431 7 9 8.34315 9 10C9 11.6569 10.3431 13 12 13C13.6569 13 15 11.6569 15 10C15 8.34315 13.6569 7 12 7Z" fill="#001E27"/>
</svg>
