<svg width="24" height="24" viewBox="0 0 24 24" fill="none" xmlns="http://www.w3.org/2000/svg">
<path fill-rule="evenodd" clip-rule="evenodd" d="M10.6732 2.83468C10.6736 2.83483 10.6739 2.83498 10.2811 3.7546L10.6739 2.83498C10.9509 2.95327 11.1597 3.19005 11.2426 3.47957L12.3765 7.44367C12.4828 7.81521 12.3655 8.21473 12.0752 8.46983L10.776 9.61172L12.9562 13.3879L14.5947 12.8337C14.9607 12.7098 15.3654 12.808 15.634 13.0858L18.5001 16.0499C18.7094 16.2664 18.81 16.5657 18.774 16.8647L17.7812 16.745C18.774 16.8647 18.7739 16.865 18.7739 16.8654L18.7738 16.8663L18.7736 16.8681L18.773 16.8724L18.7715 16.8839L18.7668 16.9175C18.7629 16.9445 18.7572 16.9807 18.7495 17.0249C18.7341 17.113 18.7103 17.2342 18.6749 17.379C18.6047 17.6663 18.486 18.0597 18.2901 18.4797C17.9049 19.3054 17.1566 20.3603 15.7751 20.7555C14.3312 21.1686 12.7637 20.5606 11.3523 19.4627C9.91015 18.3409 8.44512 16.5745 7.10295 14.2498C5.76077 11.9251 4.96362 9.77324 4.7132 7.96344C4.46811 6.19215 4.72533 4.53068 5.80492 3.48674C6.83788 2.48788 8.12558 2.36721 9.03336 2.44649C9.49503 2.48682 9.89506 2.58073 10.179 2.6636C10.3221 2.70539 10.4389 2.74531 10.523 2.77606C10.5651 2.79146 10.5992 2.80466 10.6246 2.81475L10.6561 2.82749L10.6667 2.83193L10.6708 2.83364L10.6725 2.83436L10.6732 2.83468ZM16.6916 17.0568L14.6361 14.931L12.8205 15.5452C12.369 15.6979 11.8724 15.5107 11.634 15.0979L8.63403 9.90176C8.3957 9.48895 8.48187 8.9653 8.83991 8.65063L10.2796 7.38532L9.46632 4.54225C9.29434 4.49918 9.08576 4.45868 8.85933 4.43891C8.24708 4.38543 7.64425 4.49026 7.1952 4.92449C6.79277 5.31362 6.48446 6.1726 6.69432 7.68932C6.89886 9.16753 7.57717 11.0712 8.835 13.2498C10.0928 15.4285 11.4023 16.9678 12.5802 17.884C13.7889 18.8242 14.6869 18.9866 15.225 18.8326C15.8256 18.6608 16.2178 18.1911 16.4776 17.6342C16.5737 17.4282 16.6429 17.2273 16.6916 17.0568ZM9.8929 4.67616C9.89306 4.67622 9.89304 4.67622 9.89284 4.67614L9.8929 4.67616Z" fill="#001E27"/>
</svg>
