<svg width="24" height="24" viewBox="0 0 24 24" fill="none" xmlns="http://www.w3.org/2000/svg">
<path fill-rule="evenodd" clip-rule="evenodd" d="M17 6C16.4477 6 16 6.44772 16 7C16 7.55228 16.4477 8 17 8C17.5523 8 18 7.55228 18 7C18 6.44772 17.5523 6 17 6ZM14 7C14 5.34315 15.3431 4 17 4C18.6569 4 20 5.34315 20 7C20 8.65685 18.6569 10 17 10C16.3634 10 15.7731 9.80172 15.2875 9.46354L9.98249 11.674C9.99406 11.7811 10 11.8898 10 12C10 12.1255 9.99229 12.2492 9.97733 12.3706L14.9174 14.8407C15.457 14.3202 16.1911 14 17 14C18.6569 14 20 15.3431 20 17C20 18.6569 18.6569 20 17 20C15.3431 20 14 18.6569 14 17C14 16.8745 14.0077 16.7508 14.0227 16.6294L9.08261 14.1593C8.54305 14.6798 7.80891 15 7 15C5.34315 15 4 13.6569 4 12C4 10.3431 5.34315 9 7 9C7.82391 9 8.57025 9.33214 9.11243 9.86982L14.105 7.78959C14.0365 7.53801 14 7.27327 14 7ZM7 11C6.44772 11 6 11.4477 6 12C6 12.5523 6.44772 13 7 13C7.55228 13 8 12.5523 8 12C8 11.4477 7.55228 11 7 11ZM16 17C16 16.4477 16.4477 16 17 16C17.5523 16 18 16.4477 18 17C18 17.5523 17.5523 18 17 18C16.4477 18 16 17.5523 16 17Z" fill="#001E27"/>
</svg>
