<svg width="32" height="32" viewBox="0 0 32 32" fill="none" xmlns="http://www.w3.org/2000/svg">
<path fill-rule="evenodd" clip-rule="evenodd" d="M27.7568 7.65365C28.0834 7.27555 28.0808 6.71443 27.7507 6.33936L23.9729 2.04639L22.4715 3.36764L24.7879 5.99998H7C5.89543 5.99998 5 6.89541 5 7.99998L5 16L7 16L7 7.99998H24.8149L22.4654 10.72L23.979 12.0273L27.7568 7.65365ZM4.22276 24.3708C3.90762 24.7601 3.92908 25.3225 4.27299 25.6866L8.05077 29.6866L9.5048 28.3134L7.31994 26H25C26.1046 26 27 25.1046 27 24V16H25V24H7.09612L9.55503 20.9625L8.00054 19.7041L4.22276 24.3708Z" fill="#001E27"/>
</svg>
