<svg width="32" height="32" viewBox="0 0 32 32" fill="none" xmlns="http://www.w3.org/2000/svg">
<path fill-rule="evenodd" clip-rule="evenodd" d="M8.1405 9.5078C8.1405 7.03979 10.1412 5.03906 12.6092 5.03906C14.5831 5.03906 16.258 6.31876 16.8496 8.09375C17.2238 8.03192 17.6079 7.99976 17.9995 7.99976C18.3099 7.99976 18.6155 8.01995 18.9151 8.0591C18.2573 5.184 15.6838 3.03906 12.6092 3.03906C9.03666 3.03906 6.1405 5.93522 6.1405 9.5078C6.1405 11.0895 6.70818 12.5386 7.65092 13.6625C4.05014 16.1403 2.03906 20.2228 2.03906 23.1797C2.03906 23.732 2.48678 24.1797 3.03906 24.1797H8.71217C7.92233 25.7308 7.50769 27.3055 7.50769 28.6482C7.50769 29.2005 7.95541 29.6482 8.50769 29.6482H27.6483C28.2006 29.6482 28.6483 29.2005 28.6483 28.6482C28.6483 25.6063 26.5199 21.3731 22.7219 18.9213L22.6049 18.8458C23.4755 17.8044 23.9995 16.4633 23.9995 14.9998C23.9995 11.686 21.3132 8.99976 17.9995 8.99976C14.6858 8.99976 11.9995 11.686 11.9995 14.9998C11.9995 16.4941 12.5458 17.8609 13.4496 18.9113L13.4341 18.9213C12.0455 19.8178 10.88 20.9523 9.96022 22.1797H9.87499H4.13382C4.53514 19.9308 6.20609 16.9691 9.05017 15.1331L9.22383 15.021C9.78011 15.3633 10.3921 15.6238 11.0431 15.7857C11.0143 15.5277 10.9995 15.2654 10.9995 14.9998C10.9995 14.563 11.0395 14.1356 11.116 13.721C9.38229 13.1065 8.1405 11.4522 8.1405 9.5078ZM17.9995 10.9998C15.7904 10.9998 13.9995 12.7906 13.9995 14.9998C13.9995 17.2089 15.7904 18.9998 17.9995 18.9998C20.2087 18.9998 21.9995 17.2089 21.9995 14.9998C21.9995 12.7906 20.2087 10.9998 17.9995 10.9998ZM17.9995 20.9998C19.0948 20.9998 20.1215 20.7063 21.0053 20.1937L21.6372 20.6016C24.4813 22.4376 26.1522 25.3993 26.5535 27.6482H9.60245C10.0038 25.3993 11.6747 22.4376 14.5188 20.6016L15.0771 20.2412C15.9419 20.7244 16.9385 20.9998 17.9995 20.9998Z" fill="#001E27"/>
</svg>
