<svg width="24" height="24" viewBox="0 0 24 24" fill="none" xmlns="http://www.w3.org/2000/svg">
<path fill-rule="evenodd" clip-rule="evenodd" d="M9.00004 10C9.00004 7.23858 11.2386 5 14 5C16.7615 5 19 7.23858 19 10C19 12.7614 16.7615 15 14 15C11.2386 15 9.00004 12.7614 9.00004 10ZM14 3C10.1341 3 7.00004 6.13401 7.00004 10C7.00004 11.7002 7.60622 13.2589 8.61425 14.4717L3.29297 19.7929L4.70718 21.2071L10.1003 15.814C11.2148 16.563 12.5564 17 14 17C17.866 17 21 13.866 21 10C21 6.13401 17.866 3 14 3Z" fill="#001E27"/>
</svg>
