<svg width="28" height="27" viewBox="0 0 28 27" fill="none" xmlns="http://www.w3.org/2000/svg">
<path fill-rule="evenodd" clip-rule="evenodd" d="M14.0009 2C9.58463 2 6.58062 4.77502 5.48357 8.83381C6.88763 9.40802 7.87686 10.7877 7.87686 12.3984V15.248C7.87686 17.374 6.15335 19.0975 4.0273 19.0975C1.90124 19.0975 0.177734 17.374 0.177734 15.248V12.3984C0.177734 10.4575 1.6141 8.8521 3.48182 8.58718C4.70887 3.68099 8.40562 0 14.0009 0C19.5961 0 23.2929 3.681 24.5199 8.58722C26.3875 8.85225 27.8238 10.4576 27.8238 12.3984V15.248C27.8238 17.374 26.1003 19.0975 23.9742 19.0975C23.7981 19.0975 23.6247 19.0857 23.4549 19.0628C22.1084 21.6708 19.8947 23.6272 16.9722 24.4154C16.7699 25.8757 15.5166 27 14.0007 27C12.3439 27 11.0007 25.6569 11.0007 24C11.0007 22.3431 12.3439 21 14.0007 21C15.0907 21 16.0448 21.5812 16.5702 22.4507C18.8168 21.8088 20.5192 20.3115 21.6056 18.2828C20.7041 17.5782 20.1246 16.4808 20.1246 15.248V12.3984C20.1246 10.7876 21.114 9.40788 22.5182 8.83372C21.4211 4.77498 18.4171 2 14.0009 2ZM22.1246 12.3984C22.1246 11.3769 22.9527 10.5488 23.9742 10.5488C24.9957 10.5488 25.8238 11.3769 25.8238 12.3984V15.248C25.8238 16.2694 24.9957 17.0975 23.9742 17.0975C22.9527 17.0975 22.1246 16.2694 22.1246 15.248V12.3984ZM4.0273 10.5488C3.00581 10.5488 2.17773 11.3769 2.17773 12.3984V15.248C2.17773 16.2694 3.00581 17.0975 4.0273 17.0975C5.04878 17.0975 5.87686 16.2694 5.87686 15.248V12.3984C5.87686 11.3769 5.04878 10.5488 4.0273 10.5488Z" fill="#001E27"/>
</svg>
