<svg width="32" height="32" viewBox="0 0 32 32" fill="none" xmlns="http://www.w3.org/2000/svg">
<path fill-rule="evenodd" clip-rule="evenodd" d="M16 2C16.3877 2 16.7405 2.2241 16.9052 2.57507L20.6958 10.6499L29.1519 11.9496C29.5223 12.0065 29.8298 12.2657 29.9485 12.6211C30.0672 12.9765 29.9773 13.3685 29.7155 13.6366L23.5683 19.9325L25.021 28.839C25.0826 29.217 24.923 29.597 24.6099 29.8175C24.2968 30.0381 23.8852 30.0604 23.5501 29.8751L16 25.7L8.44995 29.8751C8.1148 30.0604 7.70325 30.0381 7.39015 29.8175C7.07705 29.597 6.91742 29.217 6.97907 28.839L8.43179 19.9325L2.28452 13.6366C2.02274 13.3685 1.93282 12.9765 2.05155 12.6211C2.17029 12.2657 2.47775 12.0065 2.84811 11.9496L11.3043 10.6499L15.0948 2.57507C15.2596 2.2241 15.6123 2 16 2ZM16 5.35331L12.8882 11.9822C12.7467 12.2838 12.4642 12.4951 12.1349 12.5457L5.07422 13.6309L10.2155 18.8966C10.4373 19.1237 10.5381 19.4428 10.487 19.7561L9.28455 27.1282L15.5161 23.6822C15.8172 23.5157 16.1828 23.5157 16.4839 23.6822L22.7155 27.1282L21.5131 19.7561C21.462 19.4428 21.5627 19.1237 21.7845 18.8966L26.9258 13.6309L19.8651 12.5457C19.5358 12.4951 19.2534 12.2838 19.1118 11.9822L16 5.35331Z" fill="#001E27"/>
</svg>
