<svg width="32" height="32" viewBox="0 0 32 32" fill="none" xmlns="http://www.w3.org/2000/svg">
<path fill-rule="evenodd" clip-rule="evenodd" d="M15.2627 3V3.00834V3.01669V3.02507V3.03346V3.04187V3.0503V3.05874V3.06721V3.07568V3.08418V3.09269V3.10122V3.10977V3.11833V3.12691V3.13551V3.14412V3.15275V3.16139V3.17005V3.17873V3.18742V3.19612V3.20484V3.21358V3.22233V3.23109V3.23987V3.24867V3.25748V3.2663V3.27514V3.28399V3.29285V3.30173V3.31062V3.31953V3.32845V3.33738V3.34632V3.35528V3.36425V3.37323V3.38223V3.39123V3.40025V3.40929V3.41833V3.42738V3.43645V3.44553V3.45462V3.46372V3.47283V3.48196V3.49109V3.50023V3.50939V3.51855V3.52773V3.53692V3.54611V3.55532V3.56453V3.57376V3.58299V3.59224V3.60149V3.61075V3.62003V3.62931V3.6386V3.64789V3.6572V3.66651V3.67583V3.68516V3.6945V3.70385V3.7132V3.72256V3.73193V3.74131V3.75069V3.76008V3.76947V3.77888V3.78829V3.7977V3.80712V3.81655V3.82599V3.83542V3.84487V3.85432V3.86378V3.87324V3.88271V3.89218V3.90166V3.91114V3.92062V3.93011V3.93961V3.94911V3.95861V3.96812V3.97763V3.98715V3.99666V4.00619V4.01571V4.02524V4.03477V4.0443V4.05384V4.06338V4.07292V4.08247V4.09201V4.10156V4.11111V4.12067V4.13022V4.13977V4.14933V4.15889V4.16845V4.17801V4.18757V4.19713V4.20669V4.21626V4.22582V4.23538V4.24495V4.25451V4.26407V4.27364V4.2832V4.29276V4.30232V4.31188V4.32144V4.331V4.34055V4.35011V4.35966V4.36921V4.37876V4.38831V4.39786V4.4074V4.41694V4.42648V4.43602V4.44555V4.45508V4.46461V4.47413V4.48365V4.49317V4.50268V4.51219V4.5217V4.5312V4.5407V4.55019V4.55968V4.56916V4.57864V4.58812V4.59759V4.60706V4.61652V4.62597V4.63542V4.64486V4.6543V4.66373V4.67316V4.68258V4.69199V4.7014V4.7108V4.72019V4.72958V4.73896V4.74833V4.7577V4.76705V4.7764V4.78575V4.79508V4.80441V4.81373V4.82304V4.83234V4.84164V4.85092V4.8602V4.86947V4.87873V4.88798V4.89722V4.90645V4.91567V4.92488V4.93409V4.94328V4.95246V4.96163V4.9708V4.97995V4.98909V4.99822V5.00734V5.01645V5.02554V5.03463V5.0437V5.05277V5.06182V5.07086V5.07988V5.0889V5.0979V5.10689V5.11587V5.12484V5.13379V5.14273V5.15166V5.16057V5.16947V5.17836V5.18723V5.19609V5.20494V5.21377V5.22258V5.23139V5.24018V5.24895V5.25771V5.26646V5.27519V5.2839V5.2926V5.30129V5.30996V5.31861V5.32725V5.33587V5.34448V5.35307V5.36164V5.3702V5.37874V5.38726V5.39577V5.40426V5.41273V5.42119V5.42963V5.43805V5.44645V5.45484V5.4632V5.47155V5.47989V5.4882V5.49649V5.50477V5.51303V5.52127V5.52949V5.53769V5.54587V5.55403V5.56218V5.5703V5.5784V5.58649V5.59455V5.60259V5.61061V5.61862V5.6266V5.63456V5.6425V5.65042V5.65832V5.66619V5.67405V5.68188V5.68554C13.6922 5.84392 12.3524 6.40887 11.3485 7.31789C10.1305 8.42065 9.48493 9.96138 9.48493 11.6667C9.48493 13.499 10.422 14.8728 11.7358 15.7487C11.9638 15.9007 12.2033 16.0382 12.452 16.1615L13.9786 14.6349C13.5609 14.4909 13.1777 14.3063 12.8452 14.0846C11.9923 13.516 11.4849 12.7232 11.4849 11.6667C11.4849 10.4831 11.9226 9.49602 12.6908 8.80045C13.4644 8.10003 14.6507 7.62714 16.2547 7.63997V7.64H16.2627C17.8593 7.64 19.0426 8.10662 19.8175 8.79601L21.2333 7.38023C21.2142 7.3625 21.1949 7.34489 21.1755 7.32738C20.1712 6.42171 18.8317 5.8581 17.2627 5.69175V5.6897V5.68188V5.67405V5.66619V5.65832V5.65042V5.6425V5.63456V5.6266V5.61862V5.61061V5.60259V5.59455V5.58649V5.5784V5.5703V5.56218V5.55403V5.54587V5.53769V5.52949V5.52127V5.51303V5.50477V5.49649V5.4882V5.47989V5.47155V5.4632V5.45484V5.44645V5.43805V5.42963V5.42119V5.41273V5.40426V5.39577V5.38726V5.37874V5.3702V5.36164V5.35307V5.34448V5.33587V5.32725V5.31861V5.30996V5.30129V5.2926V5.2839V5.27519V5.26646V5.25771V5.24895V5.24018V5.23139V5.22258V5.21377V5.20494V5.19609V5.18723V5.17836V5.16947V5.16057V5.15166V5.14273V5.13379V5.12484V5.11587V5.10689V5.0979V5.0889V5.07988V5.07086V5.06182V5.05277V5.0437V5.03463V5.02554V5.01645V5.00734V4.99822V4.98909V4.97995V4.9708V4.96163V4.95246V4.94328V4.93409V4.92488V4.91567V4.90645V4.89722V4.88798V4.87873V4.86947V4.8602V4.85092V4.84164V4.83234V4.82304V4.81373V4.80441V4.79508V4.78575V4.7764V4.76705V4.7577V4.74833V4.73896V4.72958V4.72019V4.7108V4.7014V4.69199V4.68258V4.67316V4.66373V4.6543V4.64486V4.63542V4.62597V4.61652V4.60706V4.59759V4.58812V4.57864V4.56916V4.55968V4.55019V4.5407V4.5312V4.5217V4.51219V4.50268V4.49317V4.48365V4.47413V4.46461V4.45508V4.44555V4.43602V4.42648V4.41694V4.4074V4.39786V4.38831V4.37876V4.36921V4.35966V4.35011V4.34055V4.331V4.32144V4.31188V4.30232V4.29276V4.2832V4.27364V4.26407V4.25451V4.24495V4.23538V4.22582V4.21626V4.20669V4.19713V4.18757V4.17801V4.16845V4.15889V4.14933V4.13977V4.13022V4.12067V4.11111V4.10156V4.09201V4.08247V4.07292V4.06338V4.05384V4.0443V4.03477V4.02524V4.01571V4.00619V3.99666V3.98715V3.97763V3.96812V3.95861V3.94911V3.93961V3.93011V3.92062V3.91114V3.90166V3.89218V3.88271V3.87324V3.86378V3.85432V3.84487V3.83542V3.82599V3.81655V3.80712V3.7977V3.78829V3.77888V3.76947V3.76008V3.75069V3.74131V3.73193V3.72256V3.7132V3.70385V3.6945V3.68516V3.67583V3.66651V3.6572V3.64789V3.6386V3.62931V3.62003V3.61075V3.60149V3.59224V3.58299V3.57376V3.56453V3.55532V3.54611V3.53692V3.52773V3.51855V3.50939V3.50023V3.49109V3.48196V3.47283V3.46372V3.45462V3.44553V3.43645V3.42738V3.41833V3.40929V3.40025V3.39123V3.38223V3.37323V3.36425V3.35528V3.34632V3.33738V3.32845V3.31953V3.31062V3.30173V3.29285V3.28399V3.27514V3.2663V3.25748V3.24867V3.23987V3.23109V3.22233V3.21358V3.20484V3.19612V3.18742V3.17873V3.17005V3.16139V3.15275V3.14412V3.13551V3.12691V3.11833V3.10977V3.10122V3.09269V3.08418V3.07568V3.06721V3.05874V3.0503V3.04187V3.03346V3.02507V3.01669V3.00834V3H15.2627ZM12.6908 23.1996C12.6707 23.1813 12.6507 23.1628 12.631 23.1442L11.2165 24.5587C11.2597 24.6004 11.3037 24.6416 11.3485 24.6821C12.3524 25.5911 13.6922 26.1561 15.2627 26.3145V29H17.2627V26.3082C18.8317 26.1419 20.1712 25.5783 21.1755 24.6726C22.394 23.5738 23.0405 22.0398 23.0405 20.3333C23.0405 18.501 22.1034 17.1272 20.7896 16.2513C20.5336 16.0806 20.2631 15.9283 19.9814 15.7937L18.4443 17.3308C18.902 17.4794 19.3207 17.6757 19.6802 17.9154C20.5331 18.484 21.0405 19.2768 21.0405 20.3333C21.0405 21.5157 20.6037 22.4951 19.836 23.1874C19.0615 23.8859 17.8721 24.36 16.2627 24.36V24.36L16.2547 24.36C14.6507 24.3729 13.4644 23.9 12.6908 23.1996ZM16.2627 26.36H16.2669L16.2707 26.36L16.2627 25.36V26.36ZM27.1111 3.73734L4 26.8484L5.41421 28.2627L28.5253 5.15155L27.1111 3.73734Z" fill="#001E27"/>
</svg>
