<svg width="32" height="32" viewBox="0 0 32 32" fill="none" xmlns="http://www.w3.org/2000/svg">
<path fill-rule="evenodd" clip-rule="evenodd" d="M16.0097 5.0011C9.92991 5.0011 5.00122 9.92978 5.00122 16.0096C5.00122 22.0895 9.92991 27.0182 16.0097 27.0182C22.0896 27.0182 27.0183 22.0895 27.0183 16.0096C27.0183 9.92978 22.0896 5.0011 16.0097 5.0011ZM3.00122 16.0096C3.00122 8.82521 8.82534 3.0011 16.0097 3.0011C23.1942 3.0011 29.0183 8.82521 29.0183 16.0096C29.0183 23.194 23.1942 29.0182 16.0097 29.0182C8.82534 29.0182 3.00122 23.194 3.00122 16.0096ZM15.0097 22.0139V13.0075H17.0097V22.0139H15.0097ZM15.9501 11.9999C16.6404 11.9999 17.2001 11.4402 17.2001 10.7499C17.2001 10.0595 16.6404 9.49988 15.9501 9.49988C15.2597 9.49988 14.7001 10.0595 14.7001 10.7499C14.7001 11.4402 15.2597 11.9999 15.9501 11.9999Z" fill="#001E27"/>
</svg>
