<svg width="33" height="32" viewBox="0 0 33 32" fill="none" xmlns="http://www.w3.org/2000/svg">
<path fill-rule="evenodd" clip-rule="evenodd" d="M16.4999 4C12.0837 4 9.07964 6.77502 7.98259 10.8338C9.38665 11.408 10.3759 12.7877 10.3759 14.3984V17.248C10.3759 19.374 8.65237 21.0975 6.52632 21.0975C4.40026 21.0975 2.67676 19.374 2.67676 17.248V14.3984C2.67676 12.4575 4.11312 10.8521 5.98085 10.5872C7.2079 5.68099 10.9046 2 16.4999 2C22.0952 2 25.7919 5.681 27.019 10.5872C28.8866 10.8523 30.3228 12.4576 30.3228 14.3984V17.248C30.3228 19.374 28.5993 21.0975 26.4732 21.0975C26.2971 21.0975 26.1237 21.0857 25.9539 21.0628C24.6074 23.6708 22.3937 25.6272 19.4712 26.4154C19.2689 27.8757 18.0157 29 16.4998 29C14.8429 29 13.4998 27.6569 13.4998 26C13.4998 24.3431 14.8429 23 16.4998 23C17.5897 23 18.5439 23.5812 19.0692 24.4507C21.3158 23.8088 23.0183 22.3115 24.1046 20.2828C23.2032 19.5782 22.6237 18.4808 22.6237 17.248V14.3984C22.6237 12.7876 23.613 11.4079 25.0172 10.8337C23.9201 6.77498 20.9161 4 16.4999 4ZM24.6237 14.3984C24.6237 13.3769 25.4517 12.5488 26.4732 12.5488C27.4947 12.5488 28.3228 13.3769 28.3228 14.3984V17.248C28.3228 18.2694 27.4947 19.0975 26.4732 19.0975C25.4517 19.0975 24.6237 18.2694 24.6237 17.248V14.3984ZM6.52632 12.5488C5.50483 12.5488 4.67676 13.3769 4.67676 14.3984V17.248C4.67676 18.2694 5.50484 19.0975 6.52632 19.0975C7.54781 19.0975 8.37588 18.2694 8.37588 17.248V14.3984C8.37588 13.3769 7.5478 12.5488 6.52632 12.5488Z" fill="#001E27"/>
</svg>
