<svg width="54" height="60" viewBox="0 0 54 60" fill="none" xmlns="http://www.w3.org/2000/svg">
<path d="M51.7491 27.8086C53.5956 28.8573 53.5956 31.4789 51.7491 32.5276L4.48874 59.367C2.64218 60.4157 0.333984 59.1048 0.333984 57.0075L0.333987 3.32869C0.333987 1.23135 2.64218 -0.0794905 4.48874 0.96918L51.7491 27.8086Z" fill="#F2EDFF"/>
<path fill-rule="evenodd" clip-rule="evenodd" d="M37.4766 16.875C36.303 16.875 35.3516 17.8264 35.3516 19V22.875H29.4766C28.303 22.875 27.3516 23.8264 27.3516 25V28.875H21.4766C20.303 28.875 19.3516 29.8264 19.3516 31V34.875H13.4766C12.303 34.875 11.3516 35.8264 11.3516 37V40.875H5.47656C4.30296 40.875 3.35156 41.8264 3.35156 43V49C3.35156 50.1736 4.30296 51.125 5.47656 51.125H11.4766C11.8381 51.125 12.1785 51.0347 12.4766 50.8755C12.7746 51.0347 13.115 51.125 13.4766 51.125H19.4766C19.8381 51.125 20.1785 51.0347 20.4766 50.8755C20.7746 51.0347 21.115 51.125 21.4766 51.125H27.4766C27.8381 51.125 28.1785 51.0347 28.4766 50.8755C28.7746 51.0347 29.115 51.125 29.4766 51.125H35.4766C35.8381 51.125 36.1785 51.0347 36.4766 50.8755C36.7746 51.0347 37.115 51.125 37.4766 51.125H43.4766C44.6502 51.125 45.6016 50.1736 45.6016 49V19C45.6016 17.8264 44.6502 16.875 43.4766 16.875H37.4766ZM35.3516 48.875V25.125H29.6016V31V48.875H35.3516ZM37.6016 48.875H43.3516V19.125H37.6016V25V48.875ZM27.3516 31.125V48.875H21.6016V37V31.125H27.3516ZM19.3516 37.125H13.6016V43V48.875H19.3516V37.125ZM11.3516 43.125H5.60156V48.875H11.3516V43.125Z" fill="#5E16FF"/>
<path fill-rule="evenodd" clip-rule="evenodd" d="M35.4764 8.875H30.4766V11.125H32.6055L22.0227 20.9239L19.7878 18.5959C19.3645 18.155 18.6666 18.1327 18.216 18.5457L7.71636 28.1707L9.23677 29.8293L18.926 20.9472L21.1648 23.2791C21.5896 23.7216 22.2906 23.7422 22.7407 23.3255L34.3514 12.5749V15H36.6014V10C36.6014 9.37868 36.0977 8.875 35.4764 8.875ZM3.35156 9V49C3.35156 50.1736 4.30296 51.125 5.47656 51.125H45.6008V48.875H5.60156V9H3.35156Z" fill="#001E27"/>
</svg>
