<svg width="54" height="60" viewBox="0 0 54 60" fill="none" xmlns="http://www.w3.org/2000/svg">
<path d="M52.0811 27.8086C53.9277 28.8573 53.9277 31.4789 52.0811 32.5276L4.82077 59.367C2.97421 60.4157 0.666016 59.1048 0.666016 57.0075L0.666018 3.32869C0.666018 1.23135 2.97422 -0.0794905 4.82077 0.96918L52.0811 27.8086Z" fill="#F2EDFF"/>
<path fill-rule="evenodd" clip-rule="evenodd" d="M11.0562 11.7864C12.5047 11.1847 14.0576 10.875 15.6261 10.875C17.1945 10.875 18.7475 11.1847 20.196 11.7864C21.6445 12.388 22.96 13.2698 24.067 14.3811C24.089 14.4031 24.11 14.4261 24.1301 14.4499L24.8088 15.2548L25.4875 14.4499C25.5076 14.4261 25.5286 14.4031 25.5506 14.3811C26.6577 13.2698 27.9732 12.388 29.4217 11.7864C30.8701 11.1847 32.4231 10.875 33.9916 10.875C35.56 10.875 37.113 11.1847 38.5615 11.7864C40.0094 12.3878 41.3244 13.2691 42.4312 14.3797C47.1464 19.0965 47.324 26.9613 41.5992 32.7953L41.5919 32.8027L41.5918 32.8027L25.6045 48.7954C25.3935 49.0064 25.1073 49.125 24.8088 49.125C24.5104 49.125 24.2242 49.0064 24.0132 48.7954L8.02582 32.8027L8.01845 32.7953L8.01848 32.7953C2.29397 26.9616 2.47118 19.0974 7.18572 14.3805C8.29266 13.2695 9.60793 12.3879 11.0562 11.7864ZM15.6261 13.125C14.3539 13.125 13.0942 13.3762 11.9192 13.8643C10.7443 14.3523 9.67719 15.0676 8.77912 15.969L8.77774 15.9704C5.02064 19.7288 4.67783 26.1752 9.62077 31.2157C9.62199 31.2169 9.6232 31.2181 9.62442 31.2194L24.8088 46.4087L39.9932 31.2194C39.9944 31.2181 39.9957 31.2169 39.9969 31.2156C44.9398 26.1751 44.597 19.7288 40.8399 15.9704L40.8385 15.969C39.9405 15.0676 38.8733 14.3523 37.6984 13.8643C36.5234 13.3762 35.2638 13.125 33.9916 13.125C32.7194 13.125 31.4597 13.3762 30.2847 13.8643C29.1238 14.3465 28.0681 15.0506 27.1767 15.9369L25.6689 17.7252C25.4551 17.9787 25.1404 18.125 24.8088 18.125C24.4772 18.125 24.1625 17.9787 23.9488 17.7252L22.4409 15.9369C21.5496 15.0506 20.4939 14.3465 19.3329 13.8643C18.158 13.3762 16.8983 13.125 15.6261 13.125Z" fill="#001E27"/>
<path fill-rule="evenodd" clip-rule="evenodd" d="M18.214 14.4039C18.9989 14.6441 19.7235 15.0344 20.4801 15.5974L19.1368 17.4024C18.5391 16.9576 18.0428 16.7045 17.5557 16.5555C17.0647 16.4053 16.5255 16.343 15.8149 16.3471C14.4059 16.3552 13.1984 16.5919 11.9326 17.4359C10.6793 18.2716 9.66051 19.8361 9.41573 21.1989L7.20117 20.8011C7.55745 18.8175 8.93761 16.7286 10.6843 15.5639C12.4185 14.4075 14.095 14.107 15.802 14.0972C16.6494 14.0923 17.4331 14.165 18.214 14.4039Z" fill="#5E16FF"/>
</svg>
