<svg width="54" height="60" viewBox="0 0 54 60" fill="none" xmlns="http://www.w3.org/2000/svg">
<path d="M52.0811 27.8086C53.9277 28.8573 53.9277 31.4789 52.0811 32.5276L4.82077 59.367C2.97421 60.4157 0.666016 59.1048 0.666016 57.0075L0.666018 3.32869C0.666018 1.23135 2.97422 -0.0794905 4.82077 0.96918L52.0811 27.8086Z" fill="#F2EDFF"/>
<path fill-rule="evenodd" clip-rule="evenodd" d="M10.7461 18.6304L6.74609 30.1304L8.87121 30.8695L12.8712 19.3695L10.7461 18.6304ZM36.727 19.809L40.727 33.809L42.8904 33.1909L38.8904 19.1909L36.727 19.809Z" fill="#5E16FF"/>
<path fill-rule="evenodd" clip-rule="evenodd" d="M7.29089 17.4444C7.70259 16.2284 9.09038 15.6523 10.2423 16.2194L13.8934 18.0169C14.5348 18.3326 15.2708 18.3981 15.9578 18.2005L20.1143 17.0053C21.1757 16.7001 22.3073 16.7459 23.3405 17.1359L24.8541 17.7073L27.7655 16.4358C29.1458 15.833 30.7215 15.8679 32.0738 16.5313L34.9074 17.9213C35.6331 18.2773 36.4751 18.3114 37.2272 18.0152L39.5959 17.0823C40.7744 16.6182 42.0946 17.2815 42.4257 18.504L45.9263 31.4293C46.2218 32.5202 45.6117 33.6514 44.5379 34.0038L39.9261 35.5175C39.6649 35.6032 39.4174 35.7259 39.1911 35.8819L31.5845 41.1246L30.167 42.1016C29.6563 42.4536 29.0859 42.71 28.4836 42.8582L26.9763 43.2292C25.497 43.5934 23.9324 43.2805 22.7069 42.3755L20.5701 40.7976C17.822 41.2222 15.2864 39.3739 14.7657 36.7345C12.4252 36.5649 10.4769 34.8145 10.0845 32.4684L10.0532 32.2809L9.1843 31.6431L5.15537 30.0563C4.10086 29.641 3.55787 28.4712 3.92129 27.3977L7.29089 17.4444ZM12.3164 32.1678C12.5764 33.5171 13.7585 34.498 15.1393 34.498H15.475L23.2852 29.6917L24.4644 31.608L16.9604 36.2258C17.2282 37.7814 18.738 38.8697 20.3489 38.5525L20.4276 38.537L28.3361 33.6703L29.5153 35.5865L22.853 39.6864L24.0435 40.5655C24.731 41.0732 25.6087 41.2487 26.4385 41.0444L27.9458 40.6734C28.2837 40.5903 28.6036 40.4464 28.8901 40.249L30.3076 39.272L37.9142 34.0293C38.3177 33.7512 38.7589 33.5325 39.2245 33.3797L43.7236 31.903L40.2905 19.227L38.0517 20.1087C36.7111 20.6367 35.2101 20.576 33.9165 19.9414L31.0828 18.5513C30.3242 18.1791 29.4403 18.1596 28.666 18.4977L27.6397 18.946L30.0973 20.0719C31.2999 20.6228 32.071 21.8242 32.071 23.147C32.071 23.6793 31.9454 24.204 31.7044 24.6786L31.5786 24.9264C30.3908 27.2654 27.4748 28.1154 25.2162 26.7811L24.7011 26.4768C24.0581 26.0969 23.2918 25.9841 22.5665 26.1627L20.8045 26.5964C20.4711 26.6785 20.155 26.8196 19.8714 27.0132L12.3164 32.1678ZM24.4515 19.9603L22.5459 19.241C21.9663 19.0222 21.3315 18.9965 20.7361 19.1677L16.5796 20.3629C15.3549 20.7151 14.0429 20.5983 12.8996 20.0355L9.37636 18.301L6.09065 28.0065L10.0239 29.5556C10.1942 29.6226 10.3551 29.7114 10.5026 29.8197L11.1111 30.2664L18.6032 25.1546C19.1089 24.8095 19.6723 24.5579 20.2667 24.4116L22.0287 23.9779C23.3255 23.6587 24.6957 23.8603 25.8456 24.5396L26.3606 24.8439C27.5008 25.5175 28.9729 25.0884 29.5724 23.9076L29.6983 23.6598C29.779 23.5009 29.821 23.3252 29.821 23.147C29.821 22.7042 29.5629 22.3019 29.1602 22.1174L24.4515 19.9603Z" fill="#001E27"/>
</svg>
