<svg width="53" height="60" viewBox="0 0 53 60" fill="none" xmlns="http://www.w3.org/2000/svg">
<path d="M51.4151 27.8086C53.2616 28.8573 53.2616 31.4789 51.4151 32.5276L4.15475 59.367C2.3082 60.4157 -9.17602e-08 59.1048 0 57.0075L2.34849e-06 3.32869C2.44025e-06 1.23135 2.3082 -0.0794905 4.15476 0.96918L51.4151 27.8086Z" fill="#F2EDFF"/>
<g clip-path="url(#clip0_1902_40901)">
<path d="M14.9771 10.39L15.3712 11.4437L14.9771 10.39ZM16.1511 10.7596L15.2244 11.3975L15.2244 11.3975L16.1511 10.7596ZM12.1509 11.447L11.7568 10.3933L12.1509 11.447ZM11.5076 12.4963L12.6254 12.3695L12.6254 12.3695L11.5076 12.4963ZM11.8256 15.3004L12.4949 16.2046C12.8177 15.9656 12.9886 15.5727 12.9434 15.1737L11.8256 15.3004ZM9.94147 17.0587L9.73727 18.165C10.1323 18.2379 10.5363 18.0946 10.7971 17.7891L9.94147 17.0587ZM7.16542 16.5463L7.36962 15.44L7.16542 16.5463ZM6.0739 17.1151L5.05015 16.6486L5.05015 16.6486L6.0739 17.1151ZM4.8229 19.8609L3.79915 19.3945L3.79915 19.3945L4.8229 19.8609ZM5.10998 21.0578L5.81077 20.1777L5.81077 20.1777L5.10998 21.0578ZM7.31807 22.8161L8.43069 22.9825C8.49014 22.5852 8.33316 22.1863 8.01886 21.936L7.31807 22.8161ZM7.2275 25.3919L7.86539 26.3186C8.19619 26.0908 8.38052 25.7041 8.34904 25.3037L7.2275 25.3919ZM4.90295 26.992L4.26506 26.0654L4.26506 26.0654L4.90295 26.992ZM6.63965 31.6356L6.51289 30.5177L6.51289 30.5177L6.63965 31.6356ZM9.44358 31.3176L10.3478 30.6482C10.1088 30.3254 9.71588 30.1545 9.31682 30.1998L9.44358 31.3176ZM11.2018 33.2016L12.3081 33.4058C12.3811 33.0108 12.2378 32.6068 11.9322 32.346L11.2018 33.2016ZM10.6894 35.9778L11.7957 36.182L11.7957 36.182L10.6894 35.9778ZM11.2582 37.0693L11.7246 36.0455L11.7246 36.0455L11.2582 37.0693ZM14.004 38.3203L13.5376 39.3441L13.5376 39.3441L14.004 38.3203ZM15.2009 38.0332L16.081 38.734L16.081 38.734L15.2009 38.0332ZM16.9594 35.825L17.1258 34.7124C16.7284 34.6529 16.3296 34.8099 16.0793 35.1242L16.9594 35.825ZM19.535 35.9155L20.4616 35.2776C20.2339 34.9468 19.8471 34.7625 19.4468 34.794L19.535 35.9155ZM21.1351 38.24L20.2084 38.8779L20.2084 38.8779L21.1351 38.24ZM22.3091 38.6096L22.7032 39.6634L22.3091 38.6096ZM25.1353 37.5526L24.7412 36.4989L25.1353 37.5526ZM25.7786 36.5033L24.6608 36.6301L25.7786 36.5033ZM25.4606 33.6994L24.7913 32.7953C24.4685 33.0342 24.2976 33.4271 24.3428 33.8262L25.4606 33.6994ZM27.3451 31.9407L27.5493 30.8344C27.1542 30.7615 26.7502 30.9048 26.4894 31.2104L27.3451 31.9407ZM30.1212 32.4532L29.917 33.5595L29.917 33.5595L30.1212 32.4532ZM31.2127 31.8844L30.189 31.4179L31.2127 31.8844ZM32.4637 29.1385L31.44 28.6721L31.44 28.6721L32.4637 29.1385ZM32.1767 27.9416L32.8774 27.0616L32.8774 27.0616L32.1767 27.9416ZM29.9681 26.183L28.8555 26.0166C28.7961 26.414 28.9531 26.8128 29.2673 27.0631L29.9681 26.183ZM30.0585 23.6078L29.4207 22.6811C29.0899 22.9088 28.9055 23.2956 28.937 23.696L30.0585 23.6078ZM32.3832 22.0076L31.7453 21.0809L31.7453 21.0809L32.3832 22.0076ZM32.7528 20.8336L33.8066 20.4395L32.7528 20.8336ZM31.6958 18.0074L30.6421 18.4015L31.6958 18.0074ZM30.6465 17.364L30.5197 16.2462L30.6465 17.364ZM27.8423 17.682L26.9381 18.3515C27.1771 18.6742 27.57 18.8451 27.969 18.7999L27.8423 17.682ZM26.0843 15.7984L24.978 15.5942C24.9051 15.9892 25.0483 16.3932 25.3539 16.654L26.0843 15.7984ZM26.5968 13.0218L27.7031 13.226L27.7031 13.226L26.5968 13.0218ZM26.028 11.9303L25.5616 12.9541L26.028 11.9303ZM23.2821 10.6793L23.7485 9.65554L23.7485 9.65554L23.2821 10.6793ZM22.0853 10.9664L21.2052 10.2656L21.2052 10.2656L22.0853 10.9664ZM20.3266 13.175L20.1601 14.2876C20.5575 14.347 20.9564 14.19 21.2066 13.8757L20.3266 13.175ZM17.7514 13.0844L16.8248 13.7223C17.0525 14.0531 17.4392 14.2374 17.8396 14.206L17.7514 13.0844ZM15.3712 11.4437C15.3175 11.4638 15.257 11.4447 15.2244 11.3975L17.0778 10.1217C16.5249 9.31849 15.4963 8.99465 14.583 9.33624L15.3712 11.4437ZM12.545 12.5007L15.3712 11.4437L14.583 9.33624L11.7568 10.3933L12.545 12.5007ZM12.6254 12.3695C12.6319 12.4265 12.5987 12.4806 12.545 12.5007L11.7568 10.3933C10.8435 10.7348 10.2799 11.6542 10.3897 12.623L12.6254 12.3695ZM12.9434 15.1737L12.6254 12.3695L10.3897 12.623L10.7077 15.4272L12.9434 15.1737ZM10.7971 17.7891C11.2966 17.2039 11.8647 16.6712 12.4949 16.2046L11.1562 14.3962C10.3872 14.9655 9.69448 15.6152 9.08581 16.3283L10.7971 17.7891ZM10.1457 15.9524L7.36962 15.44L6.96122 17.6526L9.73727 18.165L10.1457 15.9524ZM7.36962 15.44C6.41072 15.263 5.45442 15.7613 5.05015 16.6486L7.09766 17.5815C7.07388 17.6337 7.01763 17.663 6.96122 17.6526L7.36962 15.44ZM5.05015 16.6486L3.79915 19.3945L5.84666 20.3273L7.09766 17.5815L5.05015 16.6486ZM3.79915 19.3945C3.39488 20.2818 3.64639 21.3304 4.40919 21.9379L5.81077 20.1777C5.85564 20.2135 5.87044 20.2751 5.84666 20.3273L3.79915 19.3945ZM4.40919 21.9379L6.61728 23.6962L8.01886 21.936L5.81077 20.1777L4.40919 21.9379ZM8.34904 25.3037C8.28757 24.5218 8.31683 23.7436 8.43069 22.9825L6.20545 22.6496C6.06671 23.5769 6.03096 24.5261 6.10596 25.4801L8.34904 25.3037ZM5.54084 27.9187L7.86539 26.3186L6.58961 24.4652L4.26506 26.0654L5.54084 27.9187ZM5.58704 27.7719C5.60713 27.8257 5.58808 27.8862 5.54084 27.9187L4.26506 26.0654C3.46187 26.6182 3.13803 27.6468 3.47961 28.5601L5.58704 27.7719ZM6.64406 30.5981L5.58704 27.7719L3.47961 28.5601L4.53663 31.3863L6.64406 30.5981ZM6.51289 30.5177C6.56989 30.5113 6.62396 30.5444 6.64406 30.5981L4.53663 31.3863C4.87821 32.2996 5.79753 32.8633 6.76642 32.7534L6.51289 30.5177ZM9.31682 30.1998L6.51289 30.5177L6.76642 32.7534L9.57034 32.4354L9.31682 30.1998ZM11.9322 32.346C11.347 31.8465 10.8144 31.2785 10.3478 30.6482L8.5394 31.987C9.10872 32.756 9.75838 33.4486 10.4714 34.0573L11.9322 32.346ZM11.7957 36.182L12.3081 33.4058L10.0955 32.9974L9.5831 35.7736L11.7957 36.182ZM11.7246 36.0455C11.7768 36.0693 11.8061 36.1256 11.7957 36.182L9.5831 35.7736C9.4061 36.7325 9.90444 37.6888 10.7918 38.0931L11.7246 36.0455ZM14.4705 37.2966L11.7246 36.0455L10.7918 38.0931L13.5376 39.3441L14.4705 37.2966ZM14.3209 37.3324C14.3566 37.2876 14.4183 37.2728 14.4705 37.2965L13.5376 39.3441C14.425 39.7483 15.4736 39.4968 16.081 38.734L14.3209 37.3324ZM16.0793 35.1242L14.3209 37.3324L16.081 38.734L17.8394 36.5258L16.0793 35.1242ZM19.4468 34.794C18.665 34.8554 17.8867 34.8262 17.1258 34.7124L16.7929 36.9376C17.7202 37.0763 18.6692 37.112 19.6231 37.037L19.4468 34.794ZM22.0617 37.6021L20.4616 35.2776L18.6083 36.5534L20.2084 38.8779L22.0617 37.6021ZM21.915 37.5559C21.9687 37.5358 22.0292 37.5549 22.0617 37.6021L20.2084 38.8779C20.7613 39.6811 21.7899 40.0049 22.7032 39.6634L21.915 37.5559ZM24.7412 36.4989L21.915 37.5559L22.7032 39.6634L25.5294 38.6063L24.7412 36.4989ZM24.6608 36.6301C24.6543 36.5731 24.6875 36.519 24.7412 36.4989L25.5294 38.6063C26.4427 38.2648 27.0063 37.3454 26.8964 36.3766L24.6608 36.6301ZM24.3428 33.8262L24.6608 36.6301L26.8964 36.3766L26.5785 33.5727L24.3428 33.8262ZM26.4894 31.2104C25.9898 31.7957 25.4217 32.3285 24.7913 32.7953L26.13 34.6036C26.8992 34.0342 27.592 33.3843 28.2008 32.6711L26.4894 31.2104ZM30.3254 31.3468L27.5493 30.8344L27.1409 33.0471L29.917 33.5595L30.3254 31.3468ZM30.189 31.4179C30.2128 31.3657 30.269 31.3364 30.3254 31.3468L29.917 33.5595C30.8759 33.7365 31.8322 33.2381 32.2365 32.3508L30.189 31.4179ZM31.44 28.6721L30.189 31.4179L32.2365 32.3508L33.4875 29.6049L31.44 28.6721ZM31.4759 28.8217C31.431 28.786 31.4162 28.7243 31.44 28.6721L33.4875 29.6049C33.8918 28.7176 33.6402 27.669 32.8774 27.0616L31.4759 28.8217ZM29.2673 27.0631L31.4759 28.8217L32.8774 27.0616L30.6689 25.3029L29.2673 27.0631ZM28.937 23.696C28.9985 24.4777 28.9693 25.2558 28.8555 26.0166L31.0808 26.3494C31.2194 25.4223 31.2551 24.4734 31.1801 23.5196L28.937 23.696ZM31.7453 21.0809L29.4207 22.6811L30.6964 24.5345L33.0211 22.9343L31.7453 21.0809ZM31.6991 21.2277C31.679 21.1739 31.6981 21.1134 31.7453 21.0809L33.0211 22.9343C33.8243 22.3814 34.1481 21.3528 33.8066 20.4395L31.6991 21.2277ZM30.6421 18.4015L31.6991 21.2277L33.8066 20.4395L32.7495 17.6133L30.6421 18.4015ZM30.7733 18.4819C30.7163 18.4883 30.6622 18.4552 30.6421 18.4015L32.7495 17.6133C32.408 16.7 31.4886 16.1363 30.5197 16.2462L30.7733 18.4819ZM27.969 18.7999L30.7733 18.4819L30.5197 16.2462L27.7155 16.5642L27.969 18.7999ZM25.3539 16.654C25.939 17.1534 26.4716 17.7213 26.9381 18.3515L28.7464 17.0126C28.1772 16.2438 27.5276 15.5513 26.8147 14.9427L25.3539 16.654ZM25.4905 12.8176L24.978 15.5942L27.1906 16.0026L27.7031 13.226L25.4905 12.8176ZM25.5616 12.9541C25.5094 12.9303 25.48 12.874 25.4905 12.8176L27.7031 13.226C27.8801 12.2671 27.3817 11.3108 26.4944 10.9065L25.5616 12.9541ZM22.8157 11.7031L25.5616 12.9541L26.4944 10.9065L23.7485 9.65554L22.8157 11.7031ZM22.9653 11.6672C22.9296 11.712 22.8679 11.7268 22.8157 11.7031L23.7485 9.65554C22.8612 9.25128 21.8126 9.50279 21.2052 10.2656L22.9653 11.6672ZM21.2066 13.8757L22.9653 11.6672L21.2052 10.2656L19.4465 12.4742L21.2066 13.8757ZM17.8396 14.206C18.6213 14.1445 19.3993 14.1738 20.1601 14.2876L20.493 12.0623C19.5659 11.9237 18.617 11.8879 17.6633 11.9629L17.8396 14.206ZM15.2244 11.3975L16.8248 13.7223L18.6781 12.4465L17.0778 10.1217L15.2244 11.3975Z" fill="#001E27"/>
<path d="M18.6426 30C15.605 30 13.1426 27.5376 13.1426 24.5C13.1426 21.4624 15.605 19 18.6426 19C21.6801 19 24.1426 21.4624 24.1426 24.5C24.1426 27.5376 21.6801 30 18.6426 30Z" stroke="#001E27" stroke-width="2.25" stroke-miterlimit="10" stroke-linecap="round" stroke-linejoin="round"/>
<path d="M35.5381 32.9819L35.4502 31.8603L35.5381 32.9819ZM36.5644 33.6613L35.4976 34.0185L35.4976 34.0185L36.5644 33.6613ZM34.4188 33.0695L34.5066 34.1911L34.4188 33.0695ZM33.5107 33.9004L32.4013 33.7136L32.4013 33.7136L33.5107 33.9004ZM33.2897 35.2133L33.6834 36.2671C34.0596 36.1266 34.3324 35.7961 34.3991 35.4001L33.2897 35.2133ZM31.9435 35.899L31.4418 36.9059C31.8014 37.0851 32.2292 37.0589 32.5642 36.8372L31.9435 35.899ZM30.7515 35.305L31.2532 34.2981L31.2532 34.2981L30.7515 35.305ZM29.5454 35.5504L28.6902 34.8194L29.5454 35.5504ZM28.8159 36.4038L27.9607 35.6729L27.9607 35.6729L28.8159 36.4038ZM28.7613 37.6334L29.6779 36.9811L29.6779 36.9811L28.7613 37.6334ZM29.5335 38.7183L30.5569 39.1855C30.7238 38.82 30.683 38.3932 30.45 38.0659L29.5335 38.7183ZM29.0655 40.1551L29.4227 41.2219C29.8036 41.0943 30.0875 40.7735 30.1678 40.38L29.0655 40.1551ZM27.8032 40.5778L28.1605 41.6446L28.1605 41.6446L27.8032 40.5778ZM27.1238 41.6041L26.0023 41.692L27.1238 41.6041ZM27.2115 42.7234L28.3331 42.6356L27.2115 42.7234ZM28.0424 43.6315L27.8556 44.7409L27.8556 44.7409L28.0424 43.6315ZM29.355 43.8525L30.4089 43.4588C30.2683 43.0825 29.9379 42.8098 29.5418 42.7431L29.355 43.8525ZM30.0409 45.1988L31.0478 45.7005C31.227 45.3409 31.2008 44.913 30.9791 44.578L30.0409 45.1988ZM29.447 46.3907L30.4539 46.8924L30.4539 46.8924L29.447 46.3907ZM29.6923 47.5968L30.4233 46.7417L30.4233 46.7417L29.6923 47.5968ZM30.5458 48.3263L29.8148 49.1815L29.8148 49.1815L30.5458 48.3263ZM31.7754 48.3809L31.123 47.4643L31.123 47.4643L31.7754 48.3809ZM32.8603 47.6086L33.3275 46.5852C32.962 46.4184 32.5353 46.4591 32.208 46.6921L32.8603 47.6086ZM34.2968 48.0764L35.3635 47.7192C35.236 47.3384 34.9152 47.0544 34.5217 46.9742L34.2968 48.0764ZM34.7195 49.3387L33.6527 49.696L33.6527 49.696L34.7195 49.3387ZM37.7732 49.0996L38.8825 49.2864L38.8825 49.2864L37.7732 49.0996ZM37.9942 47.7869L37.6004 46.7331C37.2242 46.8736 36.9515 47.2041 36.8848 47.6001L37.9942 47.7869ZM39.3407 47.1009L39.8424 46.094C39.4828 45.9148 39.0549 45.941 38.7199 46.1627L39.3407 47.1009ZM40.5329 47.6949L40.0312 48.7019L40.0312 48.7019L40.5329 47.6949ZM41.739 47.4496L40.8838 46.7187L41.739 47.4496ZM42.4685 46.5962L41.6133 45.8652L41.6133 45.8652L42.4685 46.5962ZM42.523 45.3665L43.4396 44.7142L43.4396 44.7142L42.523 45.3665ZM41.7505 44.2812L40.727 43.8141C40.5603 44.1796 40.601 44.6062 40.834 44.9335L41.7505 44.2812ZM42.2182 42.845L41.8609 41.7782C41.4801 41.9057 41.1961 42.2266 41.1159 42.6201L42.2182 42.845ZM43.4807 42.4222L43.1234 41.3554L43.1234 41.3554L43.4807 42.4222ZM44.1601 41.3959L43.0385 41.4837L44.1601 41.3959ZM44.0724 40.2766L45.194 40.1887L44.0724 40.2766ZM43.2415 39.3685L43.0547 40.4779L43.0547 40.4779L43.2415 39.3685ZM41.9285 39.1474L40.8746 39.5412C41.0152 39.9174 41.3456 40.1901 41.7417 40.2568L41.9285 39.1474ZM41.2428 37.8016L40.2359 37.2999C40.0567 37.6595 40.0829 38.0873 40.3046 38.4224L41.2428 37.8016ZM41.8369 36.6093L42.8438 37.111L42.8438 37.111L41.8369 36.6093ZM41.5916 35.4032L42.3225 34.548L42.3225 34.548L41.5916 35.4032ZM40.7381 34.6737L41.4691 33.8185L41.4691 33.8185L40.7381 34.6737ZM39.5085 34.6192L40.1609 35.5357L39.5085 34.6192ZM38.4232 35.3916L37.9561 36.4151C38.3216 36.5819 38.7483 36.5411 39.0756 36.3082L38.4232 35.3916ZM36.9872 34.9239L35.9205 35.2811C36.048 35.6619 36.3688 35.9459 36.7623 36.0262L36.9872 34.9239ZM35.6259 34.1034C35.5687 34.1079 35.5158 34.0729 35.4976 34.0185L37.6312 33.304C37.3215 32.3794 36.4223 31.7842 35.4502 31.8603L35.6259 34.1034ZM34.5066 34.1911L35.6259 34.1034L35.4502 31.8603L34.3309 31.948L34.5066 34.1911ZM34.6201 34.0872C34.6106 34.1438 34.5638 34.1866 34.5066 34.1911L34.3309 31.948C33.3588 32.0241 32.5633 32.7521 32.4013 33.7136L34.6201 34.0872ZM34.3991 35.4001L34.6201 34.0872L32.4013 33.7136L32.1803 35.0265L34.3991 35.4001ZM32.5642 36.8372C32.9114 36.6076 33.2862 36.4155 33.6834 36.2671L32.896 34.1594C32.3371 34.3682 31.8102 34.6383 31.3228 34.9607L32.5642 36.8372ZM32.4452 34.8921L31.2532 34.2981L30.2498 36.312L31.4418 36.9059L32.4452 34.8921ZM31.2532 34.2981C30.3805 33.8632 29.3237 34.0782 28.6902 34.8194L30.4005 36.2813C30.3633 36.3249 30.3011 36.3375 30.2498 36.312L31.2532 34.2981ZM28.6902 34.8194L27.9607 35.6729L29.6711 37.1348L30.4005 36.2813L28.6902 34.8194ZM27.9607 35.6729C27.3272 36.4141 27.2794 37.4914 27.8448 38.2858L29.6779 36.9811C29.7111 37.0278 29.7083 37.0912 29.6711 37.1348L27.9607 35.6729ZM27.8448 38.2858L28.617 39.3706L30.45 38.0659L29.6779 36.9811L27.8448 38.2858ZM30.1678 40.38C30.2526 39.9644 30.384 39.5642 30.5569 39.1855L28.5101 38.2511C28.2674 38.7828 28.0825 39.3455 27.9632 39.9302L30.1678 40.38ZM28.1605 41.6446L29.4227 41.2219L28.7083 39.0883L27.446 39.511L28.1605 41.6446ZM28.2454 41.5163C28.2499 41.5735 28.2148 41.6264 28.1605 41.6446L27.446 39.511C26.5213 39.8207 25.9261 40.7199 26.0023 41.692L28.2454 41.5163ZM28.3331 42.6356L28.2454 41.5163L26.0023 41.692L26.0899 42.8113L28.3331 42.6356ZM28.2292 42.5221C28.2857 42.5316 28.3286 42.5784 28.3331 42.6356L26.0899 42.8113C26.1661 43.7834 26.894 44.5789 27.8556 44.7409L28.2292 42.5221ZM29.5418 42.7431L28.2292 42.5221L27.8556 44.7409L29.1683 44.9619L29.5418 42.7431ZM30.9791 44.578C30.7494 44.2308 30.5573 43.856 30.4089 43.4588L28.3012 44.2462C28.51 44.8052 28.7802 45.3321 29.1027 45.8196L30.9791 44.578ZM30.4539 46.8924L31.0478 45.7005L29.034 44.6971L28.4401 45.889L30.4539 46.8924ZM30.4233 46.7417C30.4669 46.7789 30.4795 46.8411 30.4539 46.8924L28.4401 45.889C28.0052 46.7617 28.2201 47.8185 28.9614 48.452L30.4233 46.7417ZM31.2767 47.4711L30.4233 46.7417L28.9614 48.452L29.8148 49.1815L31.2767 47.4711ZM31.123 47.4643C31.1697 47.4311 31.2331 47.4339 31.2767 47.4711L29.8148 49.1815C30.556 49.815 31.6333 49.8628 32.4278 49.2974L31.123 47.4643ZM32.208 46.6921L31.123 47.4643L32.4277 49.2974L33.5127 48.5252L32.208 46.6921ZM34.5217 46.9742C34.1062 46.8894 33.7061 46.758 33.3275 46.5852L32.3932 48.6321C32.9248 48.8747 33.4873 49.0595 34.0719 49.1787L34.5217 46.9742ZM35.7863 48.9815L35.3635 47.7192L33.23 48.4337L33.6527 49.696L35.7863 48.9815ZM35.658 48.8966C35.7151 48.8921 35.768 48.9271 35.7863 48.9815L33.6527 49.696C33.9623 50.6206 34.8615 51.2158 35.8337 51.1397L35.658 48.8966ZM36.7773 48.8089L35.658 48.8966L35.8337 51.1397L36.953 51.052L36.7773 48.8089ZM36.6638 48.9128C36.6733 48.8562 36.7201 48.8134 36.7773 48.8089L36.953 51.052C37.9251 50.9759 38.7206 50.2479 38.8825 49.2864L36.6638 48.9128ZM36.8848 47.6001L36.6638 48.9128L38.8825 49.2864L39.1036 47.9737L36.8848 47.6001ZM38.7199 46.1627C38.3726 46.3925 37.9977 46.5846 37.6004 46.7331L38.3879 48.8407C38.947 48.6319 39.474 48.3617 39.9615 48.0391L38.7199 46.1627ZM41.0346 46.688L39.8424 46.094L38.839 48.1078L40.0312 48.7019L41.0346 46.688ZM40.8838 46.7187C40.9211 46.6751 40.9833 46.6624 41.0346 46.688L40.0312 48.7019C40.9039 49.1367 41.9607 48.9218 42.5942 48.1806L40.8838 46.7187ZM41.6133 45.8652L40.8838 46.7187L42.5942 48.1806L43.3237 47.3271L41.6133 45.8652ZM41.6065 46.0189C41.5732 45.9722 41.5761 45.9088 41.6133 45.8652L43.3237 47.3271C43.9572 46.5859 44.005 45.5086 43.4396 44.7142L41.6065 46.0189ZM40.834 44.9335L41.6065 46.0189L43.4396 44.7142L42.667 43.6288L40.834 44.9335ZM41.1159 42.6201C41.0311 43.0355 40.8998 43.4355 40.727 43.8141L42.774 44.7482C43.0165 44.2167 43.2012 43.6543 43.3205 43.0698L41.1159 42.6201ZM43.1234 41.3554L41.8609 41.7782L42.5754 43.9118L43.8379 43.489L43.1234 41.3554ZM43.0385 41.4837C43.034 41.4265 43.069 41.3736 43.1234 41.3554L43.8379 43.489C44.7625 43.1793 45.3578 42.2801 45.2816 41.308L43.0385 41.4837ZM42.9508 40.3644L43.0385 41.4837L45.2816 41.308L45.194 40.1887L42.9508 40.3644ZM43.0547 40.4779C42.9981 40.4684 42.9553 40.4216 42.9508 40.3644L45.194 40.1887C45.1178 39.2166 44.3898 38.4211 43.4283 38.2592L43.0547 40.4779ZM41.7417 40.2568L43.0547 40.4779L43.4283 38.2592L42.1153 38.0381L41.7417 40.2568ZM40.3046 38.4224C40.5342 38.7694 40.7262 39.1441 40.8746 39.5412L42.9823 38.7537C42.7735 38.1949 42.5034 37.6681 42.181 37.1808L40.3046 38.4224ZM40.83 36.1076L40.2359 37.2999L42.2497 38.3033L42.8438 37.111L40.83 36.1076ZM40.8606 36.2584C40.817 36.2211 40.8044 36.1589 40.83 36.1076L42.8438 37.111C43.2787 36.2383 43.0638 35.1815 42.3225 34.548L40.8606 36.2584ZM40.0072 35.5289L40.8606 36.2584L42.3225 34.548L41.4691 33.8185L40.0072 35.5289ZM40.1609 35.5357C40.1141 35.569 40.0508 35.5661 40.0072 35.5289L41.4691 33.8185C40.7278 33.185 39.6505 33.1372 38.8561 33.7026L40.1609 35.5357ZM39.0756 36.3082L40.1609 35.5357L38.8561 33.7026L37.7709 34.4751L39.0756 36.3082ZM36.7623 36.0262C37.1776 36.1109 37.5776 36.2423 37.9561 36.4151L38.8904 34.3682C38.3589 34.1256 37.7966 33.9409 37.2122 33.8216L36.7623 36.0262ZM35.4976 34.0185L35.9205 35.2811L38.054 34.5667L37.6312 33.304L35.4976 34.0185Z" fill="#5E16FF"/>
<path d="M35.6426 44C34.2619 44 33.1426 42.8807 33.1426 41.5C33.1426 40.1193 34.2619 39 35.6426 39C37.0233 39 38.1426 40.1193 38.1426 41.5C38.1426 42.8807 37.0233 44 35.6426 44Z" stroke="#5E16FF" stroke-width="2.25" stroke-miterlimit="10" stroke-linecap="round" stroke-linejoin="round"/>
</g>
<defs>
<clipPath id="clip0_1902_40901">
<rect width="48" height="48" fill="white" transform="translate(0.142578 6)"/>
</clipPath>
</defs>
</svg>
