<svg width="54" height="60" viewBox="0 0 54 60" fill="none" xmlns="http://www.w3.org/2000/svg">
<path d="M51.7491 27.8086C53.5956 28.8573 53.5956 31.4789 51.7491 32.5276L4.48874 59.367C2.64218 60.4157 0.333984 59.1048 0.333984 57.0075L0.333987 3.32869C0.333987 1.23135 2.64218 -0.0794905 4.48874 0.96918L51.7491 27.8086Z" fill="#F2EDFF"/>
<path fill-rule="evenodd" clip-rule="evenodd" d="M26.019 10.7592C25.0692 10.1897 23.883 10.1896 22.9333 10.7592L21.093 11.8627C20.9632 11.9405 20.8175 11.9879 20.6668 12.0012L18.5293 12.1901C17.4262 12.2876 16.4665 12.9848 16.0329 14.0038L15.1928 15.9783C15.1335 16.1175 15.0435 16.2415 14.9294 16.3409L13.3112 17.75C12.476 18.4773 12.1095 19.6055 12.3576 20.6847L12.8385 22.7759C12.8724 22.9234 12.8724 23.0766 12.8385 23.2241L12.3576 25.3153C12.1095 26.3945 12.476 27.5227 13.3112 28.25L14.9294 29.6591C15.0435 29.7585 15.1335 29.8825 15.1928 30.0217L16.0329 31.9962C16.1481 32.2668 16.3003 32.5147 16.4825 32.7347L12.7359 46.7174C12.6294 47.1146 12.777 47.5365 13.1078 47.7807C13.4386 48.025 13.8852 48.0418 14.2335 47.8232L17.0554 46.0516L18.6134 48.9968C18.8057 49.3602 19.2009 49.569 19.6095 49.5229C20.0181 49.4767 20.3568 49.1852 20.4633 48.788L23.9894 35.6283C24.3116 35.6812 24.6406 35.6812 24.9628 35.6283L28.489 48.788C28.5954 49.1852 28.9341 49.4768 29.3427 49.5229C29.7514 49.569 30.1465 49.3603 30.3388 48.9968L31.8968 46.0516L34.7187 47.8232C35.067 48.0418 35.5136 48.025 35.8444 47.7808C36.1752 47.5365 36.3228 47.1147 36.2164 46.7175L32.4697 32.7347C32.6519 32.5147 32.8041 32.2668 32.9193 31.9962L33.7594 30.0217C33.8187 29.8825 33.9088 29.7585 34.0229 29.6591L35.6411 28.25C36.4762 27.5227 36.8428 26.3945 36.5946 25.3153L36.1137 23.2241C36.0798 23.0766 36.0798 22.9234 36.1137 22.7759L36.5946 20.6847C36.8428 19.6055 36.4762 18.4773 35.6411 17.75L34.0229 16.3409C33.9088 16.2415 33.8187 16.1175 33.7594 15.9783L32.9193 14.0038C32.4857 12.9848 31.526 12.2876 30.4229 12.1901L28.2855 12.0012C28.1347 11.9879 27.989 11.9405 27.8592 11.8627L26.019 10.7592ZM30.6782 33.7763C30.5941 33.791 30.5089 33.8023 30.4229 33.8099L28.2855 33.9988C28.1347 34.0121 27.989 34.0595 27.8592 34.1373L26.8035 34.7704L29.7617 45.8106L30.6325 44.1644C30.7626 43.9186 30.9891 43.7381 31.2577 43.6661C31.5263 43.5942 31.8127 43.6373 32.0482 43.7851L33.6254 44.7753L30.6782 33.7763ZM22.1487 34.7704L21.093 34.1373C20.9632 34.0595 20.8175 34.0121 20.6668 33.9988L18.5293 33.8099C18.4433 33.8023 18.3581 33.791 18.274 33.7763L15.3268 44.7753L16.904 43.7851C17.1395 43.6372 17.426 43.5941 17.6946 43.6661C17.9632 43.7381 18.1897 43.9186 18.3197 44.1644L19.1905 45.8106L22.1487 34.7704ZM23.9618 12.4744C24.2784 12.2846 24.6738 12.2846 24.9904 12.4744L26.8306 13.5779C27.22 13.8114 27.6572 13.9535 28.1094 13.9934L30.2468 14.1823C30.6145 14.2148 30.9344 14.4472 31.079 14.7869L31.9191 16.7614C32.0969 17.1791 32.3671 17.551 32.7094 17.8491L34.3276 19.2583C34.606 19.5007 34.7282 19.8768 34.6455 20.2365L34.1646 22.3277C34.0629 22.7701 34.0629 23.2299 34.1646 23.6723L34.6455 25.7635C34.7282 26.1232 34.606 26.4993 34.3276 26.7417L32.7094 28.1509C32.3671 28.449 32.0969 28.8209 31.9191 29.2386L31.079 31.2131C30.9344 31.5527 30.6145 31.7852 30.2468 31.8177L28.1094 32.0065C27.6572 32.0465 27.22 32.1886 26.8306 32.422L24.9904 33.5256C24.6738 33.7154 24.2784 33.7154 23.9618 33.5256L22.1216 32.422C21.7323 32.1886 21.295 32.0465 20.8428 32.0065L18.7054 31.8177C18.3377 31.7852 18.0178 31.5527 17.8733 31.2131L17.0331 29.2386C16.8554 28.8209 16.5851 28.449 16.2428 28.1509L14.6246 26.7417C14.3462 26.4993 14.224 26.1232 14.3068 25.7635L14.7876 23.6723C14.8894 23.2299 14.8894 22.7701 14.7876 22.3277L14.3068 20.2365C14.224 19.8768 14.3462 19.5007 14.6246 19.2583L16.2428 17.8491C16.5851 17.551 16.8554 17.1791 17.0331 16.7614L17.8733 14.7869C18.0178 14.4472 18.3377 14.2148 18.7054 14.1823L20.8428 13.9934C21.295 13.9535 21.7323 13.8114 22.1216 13.5779L23.9618 12.4744Z" fill="#001E27"/>
<path fill-rule="evenodd" clip-rule="evenodd" d="M24.4766 16C24.8643 16 25.2171 16.2241 25.3818 16.5751L27.0093 20.0421L30.6285 20.5984C30.9989 20.6553 31.3063 20.9145 31.4251 21.2699C31.5438 21.6253 31.4539 22.0173 31.1921 22.2854L28.5448 24.9967L29.1715 28.839C29.2332 29.217 29.0736 29.597 28.7605 29.8175C28.4474 30.0381 28.0358 30.0604 27.7007 29.8751L24.4766 28.0922L21.2525 29.8751C20.9174 30.0604 20.5058 30.0381 20.1927 29.8175C19.8796 29.597 19.72 29.217 19.7816 28.839L20.4083 24.9967L17.7611 22.2854C17.4993 22.0173 17.4094 21.6253 17.5281 21.2699C17.6468 20.9145 17.9543 20.6553 18.3247 20.5984L21.9439 20.0421L23.5714 16.5751C23.7361 16.2241 24.0889 16 24.4766 16ZM24.4766 19.3533L23.5278 21.3745C23.3862 21.676 23.1038 21.8873 22.7745 21.9379L20.5508 22.2797L22.1921 23.9607C22.4139 24.1879 22.5147 24.5069 22.4635 24.8203L22.0871 27.1282L23.9927 26.0744C24.2938 25.9079 24.6594 25.9079 24.9605 26.0744L26.8661 27.1282L26.4896 24.8203C26.4385 24.5069 26.5393 24.1879 26.7611 23.9607L28.4024 22.2797L26.1787 21.9379C25.8494 21.8873 25.5669 21.676 25.4254 21.3745L24.4766 19.3533Z" fill="#5E16FF"/>
</svg>
