<svg width="53" height="60" viewBox="0 0 53 60" fill="none" xmlns="http://www.w3.org/2000/svg">
<path d="M51.4151 27.8086C53.2616 28.8573 53.2616 31.4789 51.4151 32.5276L4.15475 59.367C2.3082 60.4157 -9.17602e-08 59.1048 0 57.0075L2.34849e-06 3.32869C2.44025e-06 1.23135 2.3082 -0.0794905 4.15476 0.96918L51.4151 27.8086Z" fill="#F2EDFF"/>
<path fill-rule="evenodd" clip-rule="evenodd" d="M24.1331 15.258L4.63335 22.3488L24.1331 29.4396L43.6328 22.3488L24.1331 15.258ZM23.4069 13.1279C23.876 12.9574 24.3902 12.9574 24.8593 13.1279L44.7247 20.3518C46.5898 21.03 46.5898 23.6677 44.7247 24.3459L36.3415 27.3943V35.4016C36.3415 35.9606 36.1181 36.539 35.6432 36.9468C34.8417 37.6353 32.6961 39.2729 29.4019 40.2692V46.1759H27.1519V40.8015C26.1225 40.9795 25.0108 41.0847 23.8206 41.0847C17.3427 41.0847 13.1882 37.9692 11.998 36.9468C11.5232 36.539 11.2998 35.9606 11.2998 35.4016V27.1671L3.54137 24.3459C1.67631 23.6677 1.67631 21.03 3.54137 20.3518L23.4069 13.1279ZM29.4019 37.9033C31.8224 37.0606 33.4273 35.8692 34.0915 35.3127V28.2125L29.4019 29.9178V37.9033ZM27.1519 30.736V38.513C26.137 38.713 25.0248 38.8347 23.8206 38.8347C18.2432 38.8347 14.6368 36.2234 13.5498 35.3127V27.9853L23.4069 31.5697C23.876 31.7403 24.3902 31.7403 24.8593 31.5697L27.1519 30.736Z" fill="#001E27"/>
<path fill-rule="evenodd" clip-rule="evenodd" d="M8.01758 37.2136V28H10.2676V37.1352C11.516 38.3061 16.4158 42.375 24.1426 42.375V44.625C15.4275 44.625 9.95465 39.9486 8.64072 38.6933C8.21547 38.2871 8.01758 37.7424 8.01758 37.2136Z" fill="#5E16FF"/>
</svg>
