<svg width="28" height="27" viewBox="0 0 28 27" fill="none" xmlns="http://www.w3.org/2000/svg">
<path fill-rule="evenodd" clip-rule="evenodd" d="M4.29289 0.292893C4.48043 0.105357 4.73478 0 5 0H23C23.5523 0 24 0.447716 24 1V11C24 11.2652 23.8946 11.5196 23.7071 11.7071C23.5196 11.8946 23.2652 12 23 12H20V15H23C24.1046 15 25 15.8954 25 17V19.126C26.7252 19.5701 28 21.1362 28 23C28 25.2091 26.2091 27 24 27C21.7909 27 20 25.2091 20 23C20 21.1362 21.2748 19.5701 23 19.126V17H20C18.8954 17 18 16.1046 18 15V12H15V19.126C16.7252 19.5701 18 21.1362 18 23C18 25.2091 16.2091 27 14 27C11.7909 27 10 25.2091 10 23C10 21.1362 11.2748 19.5701 13 19.126V12H10V15C10 16.1046 9.10457 17 8 17H5V19.126C6.72523 19.5701 8 21.1362 8 23C8 25.2091 6.20914 27 4 27C1.79086 27 0 25.2091 0 23C0 21.1362 1.27477 19.5701 3 19.126L3 17C3 15.8954 3.89543 15 5 15H8V12H5C4.44772 12 4 11.5523 4 11L4 1C4 0.734783 4.10536 0.48043 4.29289 0.292893ZM4 21C2.89543 21 2 21.8954 2 23C2 24.1046 2.89543 25 4 25C5.10457 25 6 24.1046 6 23C6 21.8954 5.10457 21 4 21ZM22 23C22 21.8954 22.8954 21 24 21C25.1046 21 26 21.8954 26 23C26 24.1046 25.1046 25 24 25C22.8954 25 22 24.1046 22 23ZM14 21C12.8954 21 12 21.8954 12 23C12 24.1046 12.8954 25 14 25C15.1046 25 16 24.1046 16 23C16 21.8954 15.1046 21 14 21ZM6 2L6 10L22 10V2L6 2Z" fill="#001E27"/>
</svg>
