<svg width="32" height="32" viewBox="0 0 32 32" fill="none" xmlns="http://www.w3.org/2000/svg">
<path fill-rule="evenodd" clip-rule="evenodd" d="M20.6906 7.32724C19.6863 6.42157 18.3468 5.85796 16.7778 5.69161V3H14.7778V5.6854C13.2073 5.84379 11.8675 6.40874 10.8635 7.31775C9.64561 8.42052 9 9.96124 9 11.6665C9 13.4989 9.93705 14.8727 11.2509 15.7486C12.535 16.6047 14.185 16.9999 15.7778 16.9999C17.0739 16.9999 18.3128 17.3269 19.1953 17.9153C20.0482 18.4838 20.5556 19.2767 20.5556 20.3332C20.5556 21.5156 20.1188 22.495 19.3511 23.1873C18.5766 23.8858 17.3872 24.3599 15.7778 24.3599V24.3598L15.7698 24.3599C14.1658 24.3727 12.9795 23.8998 12.2059 23.1994C11.4377 22.5039 11 21.5168 11 20.3332H9C9 22.0385 9.64561 23.5792 10.8635 24.682C11.8675 25.591 13.2073 26.156 14.7778 26.3143V28.9999H16.7778V26.3081C18.3468 26.1418 19.6863 25.5782 20.6906 24.6725C21.909 23.5736 22.5556 22.0397 22.5556 20.3332C22.5556 18.5009 21.6185 17.127 20.3047 16.2512C19.0205 15.395 17.3706 14.9999 15.7778 14.9999C14.4817 14.9999 13.2428 14.6728 12.3603 14.0845C11.5074 13.5159 11 12.7231 11 11.6665C11 10.4829 11.4377 9.49588 12.2059 8.80031C12.9795 8.0999 14.1658 7.627 15.7698 7.63983V7.63986H15.7778C17.3872 7.63986 18.5766 8.11399 19.3511 8.81249C20.1188 9.50475 20.5556 10.4841 20.5556 11.6665H22.5556C22.5556 9.96004 21.909 8.4261 20.6906 7.32724Z" fill="#001E27"/>
</svg>
