<svg width="24" height="24" viewBox="0 0 24 24" fill="none" xmlns="http://www.w3.org/2000/svg">
<path fill-rule="evenodd" clip-rule="evenodd" d="M12 1.99952C11.0878 0.785345 9.6356 0 8 0L2 0C0.89543 0 0 0.895431 0 2L0 22C0 23.1046 0.895431 24 2 24H11C11.3643 24 11.7058 23.9026 12 23.7324C12.2942 23.9026 12.6357 24 13 24H16.8889C17.1745 24 17.4465 23.8779 17.6363 23.6644L23.7474 16.7894C23.9101 16.6063 24 16.3699 24 16.125V2C24 0.895431 23.1046 0 22 0L16 0C14.3644 0 12.9122 0.785345 12 1.99952ZM11 5V22H2V2H8C9.65685 2 11 3.34315 11 5ZM16 2C14.3431 2 13 3.34315 13 5V22H15.8889V17.125C15.8889 16.0204 16.7843 15.125 17.8889 15.125H22V2H16ZM20.7732 17.125H17.8889V20.3698L20.7732 17.125ZM3.50256 9H9.63178V7H3.50256V9ZM20.6644 9H14.5352V7H20.6644V9ZM3.50256 12.6775H9.63178V10.6775H3.50256V12.6775ZM20.6644 12.6775H14.5352V10.6775H20.6644V12.6775ZM3.50256 16.355H9.63178V14.355H3.50256V16.355Z" fill="#001E27"/>
</svg>
