<svg width="53" height="60" viewBox="0 0 53 60" fill="none" xmlns="http://www.w3.org/2000/svg">
<path d="M51.4151 27.8085C53.2616 28.8571 53.2616 31.4788 51.4151 32.5275L4.15475 59.3669C2.3082 60.4156 -9.17602e-08 59.1047 0 57.0074L2.34849e-06 3.32856C2.44025e-06 1.23122 2.3082 -0.0796126 4.15476 0.969058L51.4151 27.8085Z" fill="#F2EDFF"/>
<path fill-rule="evenodd" clip-rule="evenodd" d="M9.34708 9.2045C9.55806 8.99353 9.84421 8.875 10.1426 8.875H38.1426C38.7639 8.875 39.2676 9.37868 39.2676 10V26C39.2676 26.2984 39.1491 26.5845 38.9381 26.7955C38.7271 27.0065 38.4409 27.125 38.1426 27.125H32.2676V32.375H38.1426C39.3162 32.375 40.2676 33.3264 40.2676 34.5V38.9781C43.113 39.5063 45.2676 42.0015 45.2676 45C45.2676 48.3827 42.5253 51.125 39.1426 51.125C35.7598 51.125 33.0176 48.3827 33.0176 45C33.0176 42.0015 35.1722 39.5063 38.0176 38.9781V34.625H32.1426C30.969 34.625 30.0176 33.6736 30.0176 32.5V27.125H25.2676V38.9781C28.113 39.5063 30.2676 42.0015 30.2676 45C30.2676 48.3827 27.5253 51.125 24.1426 51.125C20.7598 51.125 18.0176 48.3827 18.0176 45C18.0176 42.0015 20.1722 39.5063 23.0176 38.9781V27.125H18.2676L18.2676 32.5C18.2676 33.6736 17.3162 34.625 16.1426 34.625H10.2676V38.9781C13.113 39.5063 15.2676 42.0015 15.2676 45C15.2676 48.3827 12.5253 51.125 9.14258 51.125C5.75983 51.125 3.01758 48.3827 3.01758 45C3.01758 42.0015 5.17216 39.5063 8.01758 38.9781V34.5C8.01758 33.3264 8.96897 32.375 10.1426 32.375H16.0176L16.0176 27.125H10.1426C9.52126 27.125 9.01758 26.6213 9.01758 26L9.01758 10C9.01758 9.70163 9.13611 9.41548 9.34708 9.2045ZM11.2676 11.125L11.2676 24.875L37.0176 24.875V11.125L11.2676 11.125ZM24.1426 41.125C26.2827 41.125 28.0176 42.8599 28.0176 45C28.0176 47.1401 26.2827 48.875 24.1426 48.875C22.0025 48.875 20.2676 47.1401 20.2676 45C20.2676 42.8599 22.0025 41.125 24.1426 41.125ZM13.0176 45C13.0176 42.8599 11.2827 41.125 9.14258 41.125C7.00247 41.125 5.26758 42.8599 5.26758 45C5.26758 47.1401 7.00247 48.875 9.14258 48.875C11.2827 48.875 13.0176 47.1401 13.0176 45ZM39.1426 41.125C41.2827 41.125 43.0176 42.8599 43.0176 45C43.0176 47.1401 41.2827 48.875 39.1426 48.875C37.0025 48.875 35.2676 47.1401 35.2676 45C35.2676 42.8599 37.0025 41.125 39.1426 41.125Z" fill="#001E27"/>
<path fill-rule="evenodd" clip-rule="evenodd" d="M9.14258 47C8.03801 47 7.14258 46.1046 7.14258 45C7.14258 43.8954 8.03801 43 9.14258 43C10.2471 43 11.1426 43.8954 11.1426 45C11.1426 46.1046 10.2471 47 9.14258 47ZM24.1426 47C23.038 47 22.1426 46.1046 22.1426 45C22.1426 43.8954 23.038 43 24.1426 43C25.2471 43 26.1426 43.8954 26.1426 45C26.1426 46.1046 25.2471 47 24.1426 47ZM37.1426 45C37.1426 46.1046 38.038 47 39.1426 47C40.2471 47 41.1426 46.1046 41.1426 45C41.1426 43.8954 40.2471 43 39.1426 43C38.038 43 37.1426 43.8954 37.1426 45Z" fill="#5E16FF"/>
</svg>
