<svg width="54" height="60" viewBox="0 0 54 60" fill="none" xmlns="http://www.w3.org/2000/svg">
<path d="M52.129 27.8085C53.9755 28.8571 53.9755 31.4788 52.129 32.5275L4.86862 59.3669C3.02206 60.4156 0.713867 59.1047 0.713867 57.0074L0.71387 3.32856C0.71387 1.23122 3.02207 -0.0796126 4.86862 0.969058L52.129 27.8085Z" fill="#F2EDFF"/>
<path fill-rule="evenodd" clip-rule="evenodd" d="M35.9504 9.21739C35.3521 8.91826 34.648 8.91826 34.0497 9.21738L24.4969 13.9938C24.1158 14.1843 23.875 14.5739 23.875 15V24.382C23.875 25.1869 24.3298 25.9227 25.0497 26.2826L34.0497 30.7826C34.648 31.0818 35.3521 31.0818 35.9504 30.7826L44.9503 26.2826C45.6702 25.9227 46.125 25.1869 46.125 24.382V15C46.125 14.5739 45.8842 14.1843 45.5031 13.9938L35.9504 9.21739ZM27.5156 15L35 11.2578L42.4844 15L35 18.7422L27.5156 15ZM36.125 20.6953L43.875 16.8203V24.3047L36.125 28.1797V20.6953ZM26.125 24.3047L33.875 28.1797V20.6953L26.125 16.8203V24.3047ZM3.875 33C3.875 31.8264 4.82639 30.875 6 30.875H11C12.1316 30.875 13.0567 31.7596 13.1214 32.875L25.1613 32.8751H25.1613L26.0833 32.8751C29.168 32.875 31.5993 35.5999 31.0968 38.6945L31.0812 38.7899L39.2745 34.5212C41.4388 33.3936 44.1072 34.1726 45.325 36.2874C46.5479 38.4111 45.8707 41.1218 43.7927 42.421L31.1178 50.3456C30.3031 50.8549 29.3617 51.125 28.4009 51.125H12H6C4.82639 51.125 3.875 50.1736 3.875 49V33ZM13.125 48.875V35.125L25.1613 35.1251H25.1613L26.0833 35.1251C27.8321 35.1251 29.1481 36.6574 28.8759 38.3338C28.7874 38.8784 28.6996 39.3871 28.6177 39.8167C28.387 39.8235 28.1116 39.8286 27.7986 39.832C26.7803 39.8429 25.421 39.8356 24.0554 39.8209C22.6917 39.8061 21.3289 39.784 20.3067 39.7655C19.7957 39.7563 19.37 39.748 19.0722 39.742L18.7268 39.7349L18.6359 39.733L18.6128 39.7325L18.6069 39.7324L18.6055 39.7323L18.6051 39.7323C18.6051 39.7323 18.605 39.7323 18.5806 40.8571C18.5563 41.9818 18.5563 41.9818 18.5564 41.9818L18.5568 41.9818L18.5583 41.9818L18.5644 41.982L18.5879 41.9825L18.6796 41.9844L19.0269 41.9915C19.3261 41.9976 19.7533 42.0059 20.2661 42.0152C21.2914 42.0337 22.66 42.0559 24.0311 42.0707C25.4003 42.0855 26.7794 42.0931 27.8228 42.0818C28.342 42.0762 28.7922 42.0659 29.1206 42.0484C29.2803 42.0399 29.4374 42.0285 29.5671 42.0108C29.6254 42.0029 29.7231 41.9881 29.8263 41.9581C29.8729 41.9445 29.9772 41.9121 30.0937 41.8459L30.0949 41.8452C30.1056 41.8391 30.1245 41.8284 30.1489 41.8127L40.3142 36.5166C41.4091 35.9462 42.759 36.3402 43.3751 37.4101C43.9938 38.4846 43.6512 39.8559 42.5999 40.5132L29.925 48.4378C29.468 48.7235 28.9399 48.875 28.4009 48.875H13.125ZM6.125 33.125V48.875H10.875V33.125H6.125Z" fill="#001E27"/>
<path fill-rule="evenodd" clip-rule="evenodd" d="M33 23.5L27 20.5L27 23.0001L33 26L33 23.5ZM43 23L37 25.9999L37.0001 23.4999L43 20.5L43 23Z" fill="#5E16FF"/>
</svg>
