<svg width="54" height="60" viewBox="0 0 54 60" fill="none" xmlns="http://www.w3.org/2000/svg">
<path d="M52.5723 27.8085C54.4189 28.8571 54.4189 31.4788 52.5723 32.5275L5.31198 59.3669C3.46542 60.4156 1.15723 59.1047 1.15723 57.0074L1.15723 3.32856C1.15723 1.23122 3.46543 -0.0796127 5.31198 0.969058L52.5723 27.8085Z" fill="#F2EDFF"/>
<path fill-rule="evenodd" clip-rule="evenodd" d="M6.08008 11.224V30.1246L10.4871 27.1953V11.224H6.08008ZM12.7371 25.6997V11.099C12.7371 9.92539 11.7857 8.974 10.6121 8.974H5.95508C4.78147 8.974 3.83008 9.92539 3.83008 11.099V32.2232V48.9226C3.83008 50.0962 4.78147 51.0476 5.95508 51.0476H18.2691H31.5831H43.8972C45.0708 51.0476 46.0222 50.0962 46.0222 48.9226V23.3735C46.0222 22.9589 45.7941 22.5779 45.4287 22.382C45.0633 22.1861 44.6197 22.2071 44.2744 22.4366L32.7081 30.1246V23.3735C32.7081 22.9589 32.4801 22.5779 32.1147 22.382C31.7492 22.1861 31.3057 22.2071 30.9604 22.4366L19.3941 30.1246V23.3735C19.3941 22.9589 19.1661 22.5779 18.8006 22.382C18.4352 22.1861 17.9917 22.2071 17.6464 22.4366L12.7371 25.6997ZM6.08008 32.8263V48.7976H17.1441V41.0729C17.1441 40.4516 17.6478 39.9479 18.2691 39.9479H31.5831C32.2045 39.9479 32.7081 40.4516 32.7081 41.0729V48.7976H43.7722V25.4721L32.2059 33.1601C31.8606 33.3896 31.417 33.4106 31.0516 33.2147C30.6862 33.0188 30.4581 32.6378 30.4581 32.2232V25.4721L18.8919 33.1601C18.5466 33.3896 18.103 33.4106 17.7376 33.2147C17.3722 33.0188 17.1441 32.6378 17.1441 32.2232V25.4721L12.2348 28.7353L6.08008 32.8263ZM30.4581 48.7976V42.1979H19.3941V48.7976H30.4581Z" fill="#001E27"/>
<path fill-rule="evenodd" clip-rule="evenodd" d="M43.125 47.0001V31H40.875V45.8751H34V48.1251H42H43.125V47.0001Z" fill="#5E16FF"/>
</svg>
