<svg width="54" height="60" viewBox="0 0 54 60" fill="none" xmlns="http://www.w3.org/2000/svg">
<path d="M52.2725 27.8085C54.1191 28.8571 54.1191 31.4788 52.2725 32.5275L5.01218 59.3669C3.16562 60.4156 0.857422 59.1047 0.857422 57.0074L0.857424 3.32856C0.857424 1.23122 3.16562 -0.0796126 5.01218 0.969058L52.2725 27.8085Z" fill="#F2EDFF"/>
<path fill-rule="evenodd" clip-rule="evenodd" d="M11.875 12.5V35.5H14.125L14.125 18.25H45V18.125V15.875V15.75H14.125V12.5H11.875ZM41 23.125H17V20.875H41V23.125ZM17 27.125H41V24.875H17V27.125ZM41 31.125H17V28.875H41V31.125Z" fill="#5E16FF"/>
<path fill-rule="evenodd" clip-rule="evenodd" d="M3.875 13C3.875 11.8264 4.82639 10.875 6 10.875H44C45.1736 10.875 46.125 11.8264 46.125 13V36V41C46.125 42.1736 45.1736 43.125 44 43.125H29.125V46.875H44C44.6213 46.875 45.125 47.3787 45.125 48C45.125 48.6213 44.6213 49.125 44 49.125H28H22H6C5.37868 49.125 4.875 48.6213 4.875 48C4.875 47.3787 5.37868 46.875 6 46.875H20.875V43.125H6C4.82639 43.125 3.875 42.1736 3.875 41V36V13ZM23.125 43.125V46.875H26.875V43.125H23.125ZM6.125 13.125V34.875H43.875V13.125H6.125ZM43.875 37.125H6.125V40.875H22H28H43.875V37.125Z" fill="#001E27"/>
</svg>
