<svg width="53" height="60" viewBox="0 0 53 60" fill="none" xmlns="http://www.w3.org/2000/svg">
<path d="M51.4151 27.8085C53.2616 28.8571 53.2616 31.4788 51.4151 32.5275L4.15475 59.3669C2.3082 60.4156 -9.17602e-08 59.1047 0 57.0074L2.34849e-06 3.32856C2.44025e-06 1.23122 2.3082 -0.0796127 4.15476 0.969058L51.4151 27.8085Z" fill="#F2EDFF"/>
<path fill-rule="evenodd" clip-rule="evenodd" d="M4 12.6738H4.01148H4.02295H4.0344H4.04583H4.05725H4.06865H4.08004H4.09142H4.10278H4.11412H4.12545H4.13676H4.14806H4.15935H4.17062H4.18187H4.19312H4.20434H4.21555H4.22675H4.23793H4.2491H4.26026H4.2714H4.28252H4.29364H4.30473H4.31582H4.32689H4.33794H4.34899H4.36001H4.37103H4.38203H4.39302H4.40399H4.41495H4.4259H4.43683H4.44775H4.45866H4.46955H4.48043H4.4913H4.50215H4.51299H4.52382H4.53464H4.54544H4.55623H4.567H4.57777H4.58852H4.59926H4.60998H4.6207H4.6314H4.64209H4.65276H4.66343H4.67408H4.68472H4.69534H4.70596H4.71656H4.72715H4.73773H4.7483H4.75885H4.7694H4.77993H4.79045H4.80096H4.81146H4.82194H4.83241H4.84288H4.85333H4.86377H4.8742H4.88461H4.89502H4.90542H4.9158H4.92617H4.93654H4.94689H4.95723H4.96756H4.97788H4.98819H4.99848H5.00877H5.01905H5.02931H5.03957H5.04981H5.06005H5.07028H5.08049H5.09069H5.10089H5.11107H5.12125H5.13141H5.14157H5.15171H5.16185H5.17197H5.18209H5.1922H5.20229H5.21238H5.22246H5.23253H5.24258H5.25263H5.26268H5.27271H5.28273H5.29274H5.30275H5.31274H5.32273H5.3327H5.34267H5.35263H5.36258H5.37253H5.38246H5.39239H5.4023H5.41221H5.42211H5.432H5.44188H5.45176H5.46163H5.47149H5.48134H5.49118H5.50101H5.51084H5.52066H5.53047H5.54027H5.55007H5.55986H5.56964H5.57941H5.58918H5.59893H5.60869H5.61843H5.62816H5.63789H5.64762H5.65733H5.66704H5.67674H5.68643H5.69612H5.7058H5.71547H5.72514H5.7348H5.74445H5.7541H5.76374H5.77337H5.783H5.79262H5.80223H5.81184H5.82144H5.83104H5.84062H5.85021H5.85979H5.86936H5.87892H5.88848H5.89804H5.90758H5.91713H5.92666H5.93619H5.94572H5.95524H5.96475H5.97426H5.98377H5.99327H6.00276H6.01225H6.02173H6.03121H6.04068H6.05015H6.05962H6.06908H6.07853H6.08798H6.09742H6.10686H6.1163H6.12573H6.13516H6.14458H6.15399H6.16341H6.17282H6.18222H6.19162H6.20102H6.21041H6.2198H6.22918H6.23857H6.24794H6.25732H6.26668H6.27605H6.28541H6.29477H6.30413H6.31348H6.32283H6.33217H6.34151H6.35085H6.36019H6.36952H6.37885H6.38817H6.39749H6.40681H6.41613H6.42545H6.43476H6.44407H6.45337H6.46268H6.47198H6.48127H6.49057H6.49986H6.50916H6.51844H6.52773H6.53702H6.5463H6.55558H6.56486H6.57413H6.58341H6.59268H6.60195H6.61122H6.62049H6.62975H6.63901H6.64828H6.65754H6.6668H6.67606H6.68531H6.69457H6.70382H6.71307H6.72233H6.73158H6.74083H6.75008H6.75932H6.76857H6.77782H6.78706H6.79631H6.80555H6.81479H6.82404H6.83328H6.84252H6.85176H6.86101H6.87025H6.87949H6.88873H6.89797H6.90721H6.91645H6.92569H6.93493H6.94417H6.95341H6.96265H6.97189H6.98114H6.99038H6.99962H7.00886H7.01811H7.02735H7.0366H7.04584H7.05509H7.06434H7.07359H7.08283H7.09208H7.10134H7.11059H7.11984H7.1291H7.13835H7.14761H7.15687H7.16613H7.17539H7.18465H7.19392H7.20318H7.21245H7.22172H7.23099H7.24027H7.24954H7.25882H7.2681H7.27738H7.28666H7.29595H7.30524H7.31453H7.32382H7.33311H7.34241H7.35171H7.36101H7.37032H7.37962H7.38893H7.39825H7.40756H7.41688H7.4262H7.43553H7.44485H7.45418H7.46352H7.47285H7.48219H7.49154H7.50088H7.51023H7.51959H7.52894H7.5383H7.54767H7.55703H7.56641H7.57578H7.58516H7.59454H7.60393H7.61332H7.62271H7.63211H7.64151H7.65092H7.66033H7.66975H7.67917H7.68859H7.69802H7.70745H7.71689H7.72633H7.73578H7.74523H7.75469H7.76415H7.77361H7.78308H7.79256H7.80204H7.81153H7.82102H7.83051H7.84002H7.84952H7.85903H7.86855H7.87808H7.8876H7.89714H7.90668H7.91622H7.92577H7.93533H7.94489H7.95446H7.96403H7.97362H7.9832H7.99279H8.00239H8.012H8.02161H8.03123H8.04085H8.05048H8.06011H8.06976H8.07941H8.08906H8.09873H8.1084H8.11807H8.12776H8.13744H8.14714H8.15685H8.16656H8.17627H8.186H8.19573H8.20547H8.21522H8.22497H8.23473H8.2445H8.25428H8.26406H8.27386H8.28366H8.29346H8.30328H8.3131H8.32293H8.33277H8.34262H8.35247H8.36233H8.3722H8.38208H8.39197H8.40187H8.41177H8.42168H8.4316H8.44153H8.45147H8.46142H8.47137H8.48134H8.49131H8.50129H8.51128H8.52128H8.53129H8.54131H8.55133H8.56137H8.57141H8.58147H8.59153H8.6016H8.61169H8.62178H8.63188H8.64199H8.65211H8.66224H8.67238H8.68253H8.69269H8.70286H8.71304H8.72323H8.73343H8.74364H8.75386H8.76409H8.77433H8.78458H8.79484H8.80511H8.81539H8.82569H8.83599H8.8463H8.85663H8.86696H8.87731H8.88766H8.89803H8.90841H8.9188H8.9292H8.93961H8.94775L10.7453 19.6361L14.1968 38.3847C14.3824 39.393 15.2615 40.125 16.2867 40.125H38.4585C39.4737 40.125 40.3471 39.4069 40.5434 38.4108L44.0126 20.8042C44.2713 19.4909 43.2661 18.2684 41.9276 18.2684H12.716L11.1021 12.0176C10.8598 11.0791 10.0131 10.4238 9.04435 10.4238H9.03383H9.02331H9.01281H9.00232H8.99184H8.98137H8.97091H8.96047H8.95004H8.93961H8.9292H8.9188H8.90841H8.89803H8.88766H8.87731H8.86696H8.85663H8.8463H8.83599H8.82569H8.81539H8.80511H8.79484H8.78458H8.77433H8.76409H8.75386H8.74364H8.73343H8.72323H8.71304H8.70286H8.69269H8.68253H8.67238H8.66224H8.65211H8.64199H8.63188H8.62178H8.61169H8.6016H8.59153H8.58147H8.57141H8.56137H8.55133H8.54131H8.53129H8.52128H8.51128H8.50129H8.49131H8.48134H8.47137H8.46142H8.45147H8.44153H8.4316H8.42168H8.41177H8.40187H8.39197H8.38208H8.3722H8.36233H8.35247H8.34262H8.33277H8.32293H8.3131H8.30328H8.29346H8.28366H8.27386H8.26406H8.25428H8.2445H8.23473H8.22497H8.21522H8.20547H8.19573H8.186H8.17627H8.16656H8.15685H8.14714H8.13744H8.12776H8.11807H8.1084H8.09873H8.08906H8.07941H8.06976H8.06011H8.05048H8.04085H8.03123H8.02161H8.012H8.00239H7.99279H7.9832H7.97362H7.96403H7.95446H7.94489H7.93533H7.92577H7.91622H7.90668H7.89714H7.8876H7.87808H7.86855H7.85903H7.84952H7.84002H7.83051H7.82102H7.81153H7.80204H7.79256H7.78308H7.77361H7.76415H7.75469H7.74523H7.73578H7.72633H7.71689H7.70745H7.69802H7.68859H7.67917H7.66975H7.66033H7.65092H7.64151H7.63211H7.62271H7.61332H7.60393H7.59454H7.58516H7.57578H7.56641H7.55703H7.54767H7.5383H7.52894H7.51959H7.51023H7.50088H7.49154H7.48219H7.47285H7.46352H7.45418H7.44485H7.43553H7.4262H7.41688H7.40756H7.39825H7.38893H7.37962H7.37032H7.36101H7.35171H7.34241H7.33311H7.32382H7.31453H7.30524H7.29595H7.28666H7.27738H7.2681H7.25882H7.24954H7.24027H7.23099H7.22172H7.21245H7.20318H7.19392H7.18465H7.17539H7.16613H7.15687H7.14761H7.13835H7.1291H7.11984H7.11059H7.10134H7.09208H7.08283H7.07359H7.06434H7.05509H7.04584H7.0366H7.02735H7.01811H7.00886H6.99962H6.99038H6.98114H6.97189H6.96265H6.95341H6.94417H6.93493H6.92569H6.91645H6.90721H6.89797H6.88873H6.87949H6.87025H6.86101H6.85176H6.84252H6.83328H6.82404H6.81479H6.80555H6.79631H6.78706H6.77782H6.76857H6.75932H6.75008H6.74083H6.73158H6.72233H6.71307H6.70382H6.69457H6.68531H6.67606H6.6668H6.65754H6.64828H6.63901H6.62975H6.62049H6.61122H6.60195H6.59268H6.58341H6.57413H6.56486H6.55558H6.5463H6.53702H6.52773H6.51844H6.50916H6.49986H6.49057H6.48127H6.47198H6.46268H6.45337H6.44407H6.43476H6.42545H6.41613H6.40681H6.39749H6.38817H6.37885H6.36952H6.36019H6.35085H6.34151H6.33217H6.32283H6.31348H6.30413H6.29477H6.28541H6.27605H6.26668H6.25732H6.24794H6.23857H6.22918H6.2198H6.21041H6.20102H6.19162H6.18222H6.17282H6.16341H6.15399H6.14458H6.13516H6.12573H6.1163H6.10686H6.09742H6.08798H6.07853H6.06908H6.05962H6.05015H6.04068H6.03121H6.02173H6.01225H6.00276H5.99327H5.98377H5.97426H5.96475H5.95524H5.94572H5.93619H5.92666H5.91713H5.90758H5.89804H5.88848H5.87892H5.86936H5.85979H5.85021H5.84062H5.83104H5.82144H5.81184H5.80223H5.79262H5.783H5.77337H5.76374H5.7541H5.74445H5.7348H5.72514H5.71547H5.7058H5.69612H5.68643H5.67674H5.66704H5.65733H5.64762H5.63789H5.62816H5.61843H5.60869H5.59893H5.58918H5.57941H5.56964H5.55986H5.55007H5.54027H5.53047H5.52066H5.51084H5.50101H5.49118H5.48134H5.47149H5.46163H5.45176H5.44188H5.432H5.42211H5.41221H5.4023H5.39239H5.38246H5.37253H5.36258H5.35263H5.34267H5.3327H5.32273H5.31274H5.30275H5.29274H5.28273H5.27271H5.26268H5.25263H5.24258H5.23253H5.22246H5.21238H5.20229H5.1922H5.18209H5.17197H5.16185H5.15171H5.14157H5.13141H5.12125H5.11107H5.10089H5.09069H5.08049H5.07028H5.06005H5.04981H5.03957H5.02931H5.01905H5.00877H4.99848H4.98819H4.97788H4.96756H4.95723H4.94689H4.93654H4.92617H4.9158H4.90542H4.89502H4.88461H4.8742H4.86377H4.85333H4.84288H4.83241H4.82194H4.81146H4.80096H4.79045H4.77993H4.7694H4.75885H4.7483H4.73773H4.72715H4.71656H4.70596H4.69534H4.68472H4.67408H4.66343H4.65276H4.64209H4.6314H4.6207H4.60998H4.59926H4.58852H4.57777H4.567H4.55623H4.54544H4.53464H4.52382H4.51299H4.50215H4.4913H4.48043H4.46955H4.45866H4.44775H4.43683H4.4259H4.41495H4.40399H4.39302H4.38203H4.37103H4.36001H4.34899H4.33794H4.32689H4.31582H4.30473H4.29364H4.28252H4.2714H4.26026H4.2491H4.23793H4.22675H4.21555H4.20434H4.19312H4.18187H4.17062H4.15935H4.14806H4.13676H4.12545H4.11412H4.10278H4.09142H4.08004H4.06865H4.05725H4.04583H4.0344H4.02295H4.01148H4V12.6738ZM16.3908 37.875L13.1956 20.5184H41.7756L38.3557 37.875H16.3908ZM14.1863 45.4826C14.1863 47.9583 16.1588 49.9652 18.592 49.9652C21.0252 49.9652 22.9977 47.9583 22.9977 45.4826C22.9977 43.0069 21.0252 41 18.592 41C16.1588 41 14.1863 43.0069 14.1863 45.4826ZM31.5013 45.4826C31.5013 47.9583 33.4738 49.9652 35.907 49.9652C38.3402 49.9652 40.3127 47.9583 40.3127 45.4826C40.3127 43.0069 38.3402 41 35.907 41C33.4738 41 31.5013 43.0069 31.5013 45.4826Z" fill="#001E27"/>
<path fill-rule="evenodd" clip-rule="evenodd" d="M35.5079 34.375L37.8957 22.1229L40.1042 22.5533L37.539 35.7152L37.3617 36.625H36.4348H20V34.375H35.5079Z" fill="#5E16FF"/>
</svg>
