<svg width="54" height="60" viewBox="0 0 54 60" fill="none" xmlns="http://www.w3.org/2000/svg">
<path d="M52.129 27.8085C53.9755 28.8571 53.9755 31.4788 52.129 32.5275L4.86862 59.3669C3.02206 60.4156 0.713867 59.1047 0.713867 57.0074L0.71387 3.32856C0.71387 1.23122 3.02207 -0.0796126 4.86862 0.969058L52.129 27.8085Z" fill="#F2EDFF"/>
<path fill-rule="evenodd" clip-rule="evenodd" d="M44.6258 23.8208L29.8924 37.6332C29.4597 38.0389 28.7863 38.0389 28.3536 37.6332L21.1897 30.9171L10.6258 40.8208L9.08691 39.1793L20.4202 28.5543C20.853 28.1486 21.5264 28.1486 21.9591 28.5543L29.123 35.2704L43.0869 22.1793L44.6258 23.8208Z" fill="#5E16FF"/>
<path fill-rule="evenodd" clip-rule="evenodd" d="M3.73145 49V10H5.98145V48.875H44.8564V51.125H5.85645C4.68284 51.125 3.73145 50.1736 3.73145 49Z" fill="#001E27"/>
</svg>
