<svg width="147" height="40" viewBox="0 0 147 40" fill="none" xmlns="http://www.w3.org/2000/svg">
<path d="M50.6459 19.6191C51.2435 19.9564 52.099 20.2563 53.2145 20.5143C54.3299 20.7742 55.4719 20.9043 56.6404 20.9043C57.7824 20.9043 58.8339 20.7611 59.7931 20.477C60.7518 20.1924 61.5786 19.7736 62.2666 19.2291C62.9525 18.6847 63.4924 18.0322 63.8828 17.2644C64.2705 16.4998 64.4669 15.6356 64.4669 14.6765C64.4669 13.5079 64.1206 12.4695 63.4329 11.5612C62.7449 10.6529 61.5961 9.941 59.9872 9.42044L56.8345 8.40859C55.6416 8.01817 54.8234 7.61064 54.3826 7.18284C53.9417 6.75504 53.7215 6.22818 53.7215 5.6063C53.7215 4.69577 54.0719 4.03471 54.773 3.61997C55.4719 3.20568 56.4594 2.99629 57.7315 2.99629C59.3126 2.99629 60.7432 3.28269 62.0131 3.85368C62.4008 4.03471 62.6877 4.12702 62.8687 4.12702C63.206 4.12702 63.3735 3.89151 63.3735 3.42408V2.37441C63.3735 2.06369 63.3096 1.81647 63.1812 1.63589C63.0493 1.45307 62.8286 1.27205 62.5202 1.08922C62.2842 0.961329 61.9757 0.831188 61.5853 0.701048C61.1949 0.570908 60.7743 0.454277 60.3199 0.350704C59.8656 0.244881 59.3873 0.161123 58.8803 0.0971794C58.3732 0.030983 57.8725 -8.7738e-05 57.3812 -8.7738e-05C56.3937 -8.7738e-05 55.4588 0.130053 54.5767 0.388081C53.695 0.648361 52.9231 1.03203 52.2616 1.53683C51.5983 2.04388 51.0669 2.6545 50.6657 3.36645C50.2622 4.08109 50.0618 4.90336 50.0618 5.83776C50.0618 7.00632 50.432 8.08211 51.1728 9.0701C51.9113 10.0576 53.0974 10.8097 54.7334 11.3275L57.963 12.3394C59.0546 12.7032 59.8021 13.0936 60.2033 13.5079C60.6045 13.9245 60.8049 14.4405 60.8049 15.0669C60.8049 15.9729 60.4235 16.6759 59.6562 17.1676C58.8915 17.6593 57.809 17.9061 56.4063 17.9061C55.5246 17.9061 54.6429 17.8179 53.7589 17.635C52.8772 17.4522 52.0612 17.1919 51.3074 16.8546C51.0737 16.7533 50.8841 16.6759 50.7427 16.6232C50.5995 16.57 50.4631 16.5462 50.3329 16.5462C49.9956 16.5462 49.8281 16.7776 49.8281 17.2451V18.3735C49.8281 18.5829 49.8745 18.7901 49.9646 18.9977C50.0551 19.2048 50.2843 19.412 50.6459 19.6191Z" fill="#1C424A"/>
<path d="M15.5724 12.7291C15.5724 13.4807 15.5017 14.1247 15.3585 14.656C15.2131 15.1897 14.9618 15.6638 14.6002 16.0781C14.0026 16.7527 13.3015 17.2269 12.4968 17.498C11.6921 17.7713 10.927 17.9077 10.1998 17.9077C9.18746 17.9077 8.40932 17.6412 7.8649 17.1102C7.32047 16.5762 7.04713 15.7913 7.04713 14.7533C7.04713 13.6397 7.41053 12.7823 8.13823 12.1847C8.86369 11.5872 9.96605 11.2895 11.4453 11.2895C12.1199 11.2895 12.8143 11.3336 13.5285 11.4264C14.2409 11.5169 14.9222 11.6403 15.5724 11.7943V12.7291ZM13.0214 8.81594C12.2037 8.69931 11.4188 8.64167 10.6667 8.64167C8.38546 8.64167 6.5662 9.21942 5.21706 10.3745C3.86793 11.5277 3.19336 13.0534 3.19336 14.9492C3.19336 16.7374 3.73779 18.168 4.82934 19.2308C5.9182 20.2935 7.39747 20.8267 9.26717 20.8267C11.8862 20.8267 14.0688 19.8017 15.8061 17.7492C16.0399 18.2455 16.2668 18.6796 16.4875 19.0542C16.7077 19.4316 16.9747 19.7752 17.2854 20.0863C17.4926 20.2935 17.7128 20.3993 17.9465 20.3993C18.1298 20.3993 18.3238 20.3331 18.531 20.2052L19.9333 19.2704C20.2174 19.061 20.3611 18.8426 20.3611 18.6071C20.3611 18.4526 20.3079 18.2828 20.2066 18.1018C19.8936 17.5308 19.6532 16.9977 19.4856 16.5059C19.3159 16.0142 19.2321 15.3504 19.2321 14.5214V7.27902C19.2321 4.83878 18.6147 3.01547 17.3822 1.80953C16.1479 0.603596 14.2098 0.00152779 11.5642 0.00152779C10.343 0.00152779 9.18746 0.142925 8.09636 0.427523C7.00705 0.713921 6.07265 1.05121 5.29632 1.44163C4.98335 1.59563 4.77621 1.75009 4.67263 1.9086C4.56861 2.06306 4.51593 2.32334 4.51593 2.68494V3.77379C4.51593 4.24122 4.67263 4.47718 4.98335 4.47718C5.06035 4.47718 5.17743 4.45737 5.33414 4.41774C5.4904 4.37991 5.74843 4.28085 6.11228 4.12639C6.89042 3.81387 7.68837 3.55989 8.50659 3.36626C9.32436 3.17443 10.1223 3.07491 10.9004 3.07491C12.6139 3.07491 13.8194 3.41895 14.521 4.10703C15.2216 4.79465 15.5724 5.98077 15.5724 7.66719V9.30317C14.6907 9.09603 13.8396 8.93527 13.0214 8.81594Z" fill="#1C424A"/>
<path d="M26.7445 19.23C26.8746 19.6731 27.0286 19.964 27.2119 20.105C27.3947 20.2486 27.6793 20.3193 28.0693 20.3193H29.9764C30.3911 20.3193 30.6883 20.2419 30.8716 20.0874C31.0522 19.9312 31.1954 19.6313 31.2994 19.1904L34.7254 4.86463L38.1887 19.1904C38.2923 19.6313 38.4355 19.9312 38.6188 20.0874C38.7993 20.2419 39.097 20.3193 39.5135 20.3193H41.4184C41.8088 20.3193 42.0952 20.2486 42.2762 20.105C42.459 19.964 42.6135 19.6731 42.7436 19.23L48.114 2.02271C48.1956 1.79125 48.2442 1.60843 48.273 1.47828C48.2969 1.34814 48.3104 1.23331 48.3104 1.12749C48.3104 0.765892 48.1294 0.583065 47.766 0.583065H45.7022C45.2856 0.583065 44.9943 0.655567 44.8268 0.796965C44.657 0.940163 44.5093 1.23331 44.3796 1.67237L40.5258 16.5822L37.0202 1.67237C36.9188 1.23331 36.7734 0.940163 36.5928 0.796965C36.4118 0.655567 36.1141 0.583065 35.6998 0.583065H33.9071C33.4929 0.583065 33.193 0.655567 33.0119 0.796965C32.8291 0.940163 32.6882 1.23331 32.5846 1.67237L29.1185 16.3881L25.3818 1.67237C25.2522 1.23331 25.104 0.940163 24.9342 0.796965C24.7649 0.655567 24.4736 0.583065 24.057 0.583065H21.8789C21.515 0.583065 21.334 0.765892 21.334 1.12749C21.334 1.2842 21.3979 1.58366 21.5281 2.02271L26.7445 19.23Z" fill="#1C424A"/>
<path d="M59.784 30.0103C51.5739 33.4934 42.6492 35.1785 34.5319 35.1785C22.4986 35.1785 10.8472 31.8759 1.42897 26.3925C0.6022 25.916 -0.0084224 26.7608 0.676952 27.38C9.4076 35.2641 20.9491 40 33.7623 40C42.905 40 53.5251 37.127 60.8485 31.7237C62.059 30.8262 61.0228 29.4857 59.784 30.0103Z" fill="#1C424A"/>
<path d="M55.1609 26.9649C54.5147 27.417 54.6273 28.0429 55.3437 27.9569C57.7029 27.6723 62.9585 27.0419 63.8956 28.2411C64.8327 29.4429 62.8531 34.3856 61.9687 36.5925C61.7021 37.2604 62.2776 37.5319 62.8815 37.0248C66.8105 33.7376 67.8264 26.8523 67.0217 25.8558C66.2237 24.8682 59.3542 24.0216 55.1609 26.9649Z" fill="#1C424A"/>
<path d="M88.2332 11.3411C89.1992 11.3411 89.9287 11.0236 90.4159 10.3932C90.9072 9.76277 91.1517 8.82116 91.1517 7.5711C91.1517 5.07097 90.202 3.8209 88.3035 3.8209C87.3245 3.8209 86.346 4.20051 85.367 4.95433V10.1374C85.8497 10.5522 86.3217 10.8539 86.7801 11.0502C87.2412 11.2443 87.7262 11.3411 88.2332 11.3411ZM84.6218 15.7109C84.4457 15.7109 84.3574 15.6227 84.3574 15.4462V3.43318C84.3574 3.25666 84.4457 3.1666 84.6218 3.1666H84.959C85.1486 3.1666 85.2481 3.25666 85.2594 3.43318L85.3319 4.15818C85.8745 3.72183 86.4014 3.40211 86.9147 3.20172C87.4285 3.00313 87.9576 2.90181 88.4998 2.90181C89.6418 2.90181 90.5438 3.3116 91.2071 4.12981C91.8641 4.95208 92.1951 6.07426 92.1951 7.5031C92.1951 8.9513 91.8488 10.1086 91.1517 10.971C90.4555 11.8306 89.5207 12.2606 88.3386 12.2606C87.252 12.2606 86.2645 11.8617 85.367 11.0592V15.4462C85.367 15.6227 85.2788 15.7109 85.1004 15.7109H84.6218Z" fill="#1C424A"/>
<path d="M96.7242 11.3412C97.1719 11.3412 97.6568 11.2507 98.1774 11.0656C98.693 10.885 99.2199 10.627 99.7512 10.2987V8.085C98.96 7.87335 98.1927 7.76753 97.4519 7.76753C95.8007 7.76753 94.9739 8.40247 94.9739 9.67685C94.9739 10.2213 95.1211 10.6338 95.4147 10.9179C95.7101 11.198 96.1469 11.3412 96.7242 11.3412ZM96.5833 12.2607C95.7696 12.2607 95.1234 12.0293 94.6456 11.5641C94.1669 11.0967 93.9287 10.4748 93.9287 9.69667C93.9287 8.83477 94.2241 8.1557 94.8131 7.66171C95.4035 7.16591 96.2041 6.91644 97.2205 6.91644C98.0094 6.91644 98.8538 7.05334 99.7512 7.32442V5.83839C99.7512 5.1197 99.5792 4.60409 99.2374 4.28842C98.8956 3.9777 98.3292 3.821 97.5402 3.821C96.7351 3.821 95.8754 3.9687 94.9563 4.26455C94.8482 4.29968 94.76 4.31724 94.6893 4.31724C94.5727 4.31724 94.5132 4.24249 94.5132 4.08803V3.80343C94.5132 3.70887 94.5308 3.63592 94.5659 3.58323C94.601 3.52784 94.6632 3.48371 94.7447 3.44859C95.675 3.08474 96.6603 2.90191 97.6987 2.90191C98.7371 2.90191 99.5045 3.12031 100.005 3.55666C100.51 3.99347 100.759 4.65227 100.759 5.53623V11.8001C100.759 11.9784 100.671 12.0667 100.494 12.0667H100.122C99.9453 12.0667 99.8503 11.9784 99.8372 11.8001L99.7692 11.0395C98.7524 11.855 97.692 12.2607 96.5833 12.2607Z" fill="#1C424A"/>
<path d="M103.748 12.0664C103.572 12.0664 103.481 11.9781 103.481 11.7998V3.43302C103.481 3.25695 103.572 3.16644 103.748 3.16644H104.085C104.275 3.16644 104.374 3.25695 104.385 3.43302L104.476 4.45793C104.923 3.96214 105.362 3.6136 105.792 3.40465C106.224 3.19931 106.709 3.09574 107.251 3.09574C107.441 3.09574 107.593 3.1025 107.712 3.1133C107.888 3.12456 107.977 3.22138 107.977 3.3979V3.83876C107.977 3.88694 107.959 3.93152 107.923 3.9707C107.888 4.01303 107.84 4.03509 107.783 4.03509C107.688 4.03509 107.6 4.03059 107.518 4.02609C107.435 4.01933 107.311 4.01528 107.146 4.01528C106.603 4.01528 106.123 4.1166 105.704 4.31744C105.284 4.51783 104.881 4.84205 104.491 5.28966V11.7998C104.491 11.9781 104.403 12.0664 104.226 12.0664H103.748Z" fill="#1C424A"/>
<path d="M112.666 12.1724C111.97 12.1724 111.44 11.9846 111.074 11.6144C110.706 11.2438 110.525 10.7061 110.525 9.99601V4.05234H109.13C108.952 4.05234 108.863 3.96408 108.863 3.78575V3.60923C108.863 3.51467 108.879 3.44397 108.916 3.39803C108.952 3.3494 109.022 3.32058 109.13 3.30707L110.561 3.18414L110.687 0.849269C110.697 0.756505 110.724 0.688507 110.764 0.646178C110.805 0.60475 110.867 0.584936 110.951 0.584936H111.268C111.447 0.584936 111.533 0.672747 111.533 0.849269V3.16612H114.1C114.276 3.16612 114.364 3.25664 114.364 3.43091V3.78575C114.364 3.96408 114.276 4.05234 114.1 4.05234H111.533V9.94557C111.533 10.4261 111.637 10.7678 111.842 10.9687C112.051 11.1713 112.393 11.2686 112.878 11.2686C113.22 11.2686 113.521 11.2398 113.782 11.1803C113.91 11.1583 114.013 11.1362 114.091 11.1209C114.168 11.1011 114.223 11.0921 114.258 11.0921C114.388 11.0921 114.454 11.165 114.454 11.306V11.5703C114.454 11.7711 114.388 11.8968 114.258 11.9409C113.8 12.0972 113.271 12.1724 112.666 12.1724Z" fill="#1C424A"/>
<path d="M116.593 12.0664C116.416 12.0664 116.326 11.9781 116.326 11.7998V3.43303C116.326 3.25696 116.416 3.16644 116.593 3.16644H116.948C117.135 3.16644 117.237 3.25696 117.248 3.43303L117.318 4.19361C117.896 3.78157 118.504 3.46185 119.142 3.23714C119.779 3.01424 120.398 2.89941 120.998 2.89941C121.86 2.89941 122.517 3.12862 122.971 3.58298C123.425 4.0369 123.652 4.70741 123.652 5.59137V11.7998C123.652 11.9781 123.564 12.0664 123.388 12.0664H122.912C122.733 12.0664 122.643 11.9781 122.643 11.7998V6.01692C122.643 5.24959 122.499 4.6921 122.204 4.34356C121.906 3.99772 121.437 3.82345 120.787 3.82345C119.607 3.82345 118.458 4.20036 117.336 4.95418V11.7998C117.336 11.9781 117.248 12.0664 117.071 12.0664H116.593Z" fill="#1C424A"/>
<path d="M132.322 6.97095C132.333 6.80569 132.342 6.6116 132.342 6.3869C132.342 5.53761 132.132 4.89636 131.72 4.45731C131.307 4.02321 130.699 3.80526 129.896 3.80526C128.034 3.80526 127.048 4.85899 126.945 6.97095H132.322ZM130.145 12.3306C128.741 12.3306 127.685 11.9338 126.98 11.1377C126.272 10.3393 125.917 9.15767 125.917 7.59013C125.917 6.10455 126.274 4.9513 126.986 4.13128C127.701 3.31127 128.699 2.90103 129.986 2.90103C131.06 2.90103 131.883 3.20949 132.456 3.82057C133.025 4.43569 133.314 5.31515 133.314 6.45715C133.314 6.92907 133.287 7.28392 133.241 7.51988C133.206 7.69595 133.104 7.78692 132.941 7.78692H126.945C126.955 9.02347 127.227 9.93851 127.756 10.5271C128.287 11.1179 129.107 11.411 130.218 11.411C131.067 11.411 131.874 11.2656 132.639 10.9702C132.793 10.9107 132.899 10.8819 132.959 10.8819C133.007 10.8819 133.047 10.9017 133.082 10.9414C133.117 10.9832 133.138 11.0341 133.138 11.0936V11.3583C133.138 11.5479 133.069 11.6713 132.941 11.7308C132.09 12.1297 131.16 12.3306 130.145 12.3306Z" fill="#1C424A"/>
<path d="M135.807 12.0664C135.631 12.0664 135.54 11.9781 135.54 11.7998V3.43302C135.54 3.25695 135.631 3.16644 135.807 3.16644H136.144C136.334 3.16644 136.433 3.25695 136.444 3.43302L136.534 4.45793C136.98 3.96214 137.421 3.6136 137.851 3.40465C138.283 3.19931 138.768 3.09574 139.31 3.09574C139.5 3.09574 139.652 3.1025 139.771 3.1133C139.947 3.12456 140.035 3.22138 140.035 3.3979V3.83876C140.035 3.88694 140.018 3.93152 139.982 3.9707C139.947 4.01303 139.899 4.03509 139.841 4.03509C139.746 4.03509 139.659 4.03059 139.577 4.02609C139.493 4.01933 139.369 4.01528 139.204 4.01528C138.662 4.01528 138.181 4.1166 137.763 4.31744C137.344 4.51783 136.938 4.84205 136.55 5.28966V11.7998C136.55 11.9781 136.462 12.0664 136.285 12.0664H135.807Z" fill="#1C424A"/>
<path d="M84.6225 31.7207C84.446 31.7207 84.3555 31.6329 84.3555 31.4541V23.0873C84.3555 22.9112 84.446 22.8203 84.6225 22.8203H84.9774C85.1647 22.8203 85.2665 22.9112 85.2773 23.0873L85.3498 23.8479C85.9257 23.4359 86.5336 23.1161 87.1708 22.8914C87.808 22.6681 88.4277 22.5541 89.0275 22.5541C89.8894 22.5541 90.5464 22.7829 91.0007 23.2373C91.4547 23.6912 91.6821 24.3617 91.6821 25.2457V31.4541C91.6821 31.6329 91.5934 31.7207 91.4173 31.7207H90.9409C90.7625 31.7207 90.6725 31.6329 90.6725 31.4541V25.6708C90.6725 24.9039 90.5288 24.3464 90.2312 23.9978C89.938 23.6516 89.4661 23.4773 88.8158 23.4773C87.636 23.4773 86.4877 23.8542 85.3651 24.6085V31.4541C85.3651 31.6329 85.2773 31.7207 85.1007 31.7207H84.6225Z" fill="#1C424A"/>
<path d="M100.351 26.6252C100.362 26.4599 100.371 26.2654 100.371 26.0407C100.371 25.1919 100.161 24.5506 99.7494 24.1116C99.337 23.6775 98.7281 23.4595 97.9261 23.4595C96.0632 23.4595 95.0775 24.5133 94.9743 26.6252H100.351ZM98.1752 31.9844C96.7706 31.9844 95.7147 31.5881 95.0095 30.7919C94.3016 29.9935 93.9463 28.8119 93.9463 27.2444C93.9463 25.7588 94.3038 24.6056 95.0158 23.7851C95.73 22.9655 96.7288 22.5553 98.0162 22.5553C99.0897 22.5553 99.9102 22.8638 100.486 23.4748C101.054 24.0895 101.343 24.9694 101.343 26.1114C101.343 26.5829 101.317 26.9382 101.271 27.1741C101.235 27.3502 101.134 27.4412 100.971 27.4412H94.9743C94.9852 28.6777 95.254 29.5928 95.7854 30.1809C96.3167 30.7721 97.1367 31.0653 98.2454 31.0653C99.0969 31.0653 99.9035 30.9198 100.669 30.6244C100.823 30.565 100.929 30.5362 100.988 30.5362C101.036 30.5362 101.076 30.556 101.112 30.5956C101.147 30.6375 101.167 30.6879 101.167 30.7478V31.0122C101.167 31.2017 101.099 31.3256 100.971 31.385C100.12 31.784 99.1893 31.9844 98.1752 31.9844Z" fill="#1C424A"/>
<path d="M106.313 31.8267C105.616 31.8267 105.087 31.6393 104.721 31.2692C104.352 30.8986 104.172 30.3604 104.172 29.6508V23.7071H102.775C102.598 23.7071 102.51 23.6188 102.51 23.4401V23.2635C102.51 23.169 102.525 23.0983 102.562 23.0523C102.598 23.0037 102.668 22.9753 102.775 22.9618L104.207 22.8384L104.333 20.5036C104.344 20.4108 104.37 20.3428 104.41 20.3005C104.452 20.259 104.514 20.2392 104.597 20.2392H104.915C105.094 20.2392 105.179 20.3275 105.179 20.5036V22.8209H107.746C107.922 22.8209 108.01 22.9109 108.01 23.0852V23.4401C108.01 23.6188 107.922 23.7071 107.746 23.7071H105.179V29.6003C105.179 30.0808 105.283 30.4226 105.488 30.623C105.698 30.8256 106.039 30.9229 106.527 30.9229C106.866 30.9229 107.168 30.8945 107.429 30.8346C107.556 30.8126 107.66 30.7905 107.737 30.7752C107.814 30.7554 107.869 30.7468 107.904 30.7468C108.035 30.7468 108.101 30.8193 108.101 30.9603V31.225C108.101 31.4254 108.035 31.5511 107.904 31.5952C107.446 31.7519 106.917 31.8267 106.313 31.8267Z" fill="#1C424A"/>
<path d="M112.082 31.7207C111.917 31.7207 111.804 31.6392 111.745 31.4739L108.932 23.2463C108.883 23.1161 108.861 23.0274 108.861 22.9792C108.861 22.8757 108.932 22.8203 109.075 22.8203H109.641C109.793 22.8203 109.895 22.8977 109.941 23.0522L112.364 30.5544L114.507 23.0675C114.565 22.9045 114.677 22.8203 114.842 22.8203H115.495C115.66 22.8203 115.772 22.9045 115.83 23.0675L117.955 30.6048L120.433 23.0522C120.479 22.8977 120.578 22.8203 120.733 22.8203H121.265C121.405 22.8203 121.476 22.8757 121.476 22.9792C121.476 23.0274 121.452 23.1161 121.405 23.2463L118.522 31.4739C118.46 31.6392 118.35 31.7207 118.185 31.7207H117.603C117.438 31.7207 117.323 31.6392 117.265 31.4739L115.124 23.9537L113.001 31.4739C112.944 31.6392 112.829 31.7207 112.666 31.7207H112.082Z" fill="#1C424A"/>
<path d="M126.766 31.0663C128.805 31.0663 129.826 29.7987 129.826 27.2634C129.826 24.739 128.805 23.4759 126.766 23.4759C124.724 23.4759 123.704 24.739 123.704 27.2634C123.704 29.7987 124.724 31.0663 126.766 31.0663ZM126.766 31.9858C125.47 31.9858 124.46 31.5711 123.739 30.7398C123.018 29.9068 122.661 28.749 122.661 27.2634C122.661 25.7751 123.018 24.6201 123.739 23.7956C124.46 22.9688 125.47 22.5568 126.766 22.5568C128.062 22.5568 129.072 22.9688 129.791 23.7956C130.511 24.6201 130.869 25.7751 130.869 27.2634C130.869 28.749 130.511 29.9068 129.791 30.7398C129.072 31.5711 128.062 31.9858 126.766 31.9858Z" fill="#1C424A"/>
<path d="M133.435 31.7207C133.258 31.7207 133.168 31.6329 133.168 31.4541V23.0873C133.168 22.9113 133.258 22.8203 133.435 22.8203H133.772C133.96 22.8203 134.061 22.9113 134.072 23.0873L134.16 24.1122C134.608 23.6164 135.049 23.2679 135.479 23.059C135.911 22.8536 136.396 22.75 136.938 22.75C137.128 22.75 137.28 22.7568 137.399 22.7676C137.575 22.7789 137.664 22.8757 137.664 23.0522V23.4931C137.664 23.5417 137.646 23.5858 137.61 23.625C137.575 23.6669 137.527 23.6894 137.469 23.6894C137.375 23.6894 137.287 23.6844 137.205 23.6804C137.121 23.6736 136.997 23.6691 136.832 23.6691C136.29 23.6691 135.809 23.7709 135.391 23.9713C134.971 24.1717 134.568 24.4959 134.178 24.9435V31.4541C134.178 31.6329 134.09 31.7207 133.913 31.7207H133.435Z" fill="#1C424A"/>
<path d="M139.521 31.7207C139.344 31.7207 139.254 31.6329 139.254 31.4541V18.894C139.254 18.7152 139.344 18.6274 139.521 18.6274H139.999C140.176 18.6274 140.264 18.7152 140.264 18.894V26.7866L144.51 22.9991C144.627 22.8824 144.777 22.8203 144.953 22.8203H145.59C145.729 22.8203 145.804 22.8757 145.804 22.9792C145.804 23.0414 145.738 23.1292 145.608 23.2463L141.326 27.0339L145.961 31.3154C146.066 31.4077 146.119 31.487 146.119 31.5442C146.119 31.6613 146.051 31.7207 145.908 31.7207H145.147C145.004 31.7207 144.878 31.668 144.757 31.5617L140.264 27.3689V31.4541C140.264 31.6329 140.176 31.7207 139.999 31.7207H139.521Z" fill="#1C424A"/>
</svg>
