<svg width="96" height="32" viewBox="0 0 96 32" fill="none" xmlns="http://www.w3.org/2000/svg">
<path fill-rule="evenodd" clip-rule="evenodd" d="M67.7647 0.801834H69.6523C70.2815 0.801834 70.4398 1.0048 70.4358 1.61371C70.4358 1.82821 70.4392 2.01007 70.4421 2.16569V2.16588V2.16605C70.4508 2.62595 70.4552 2.85659 70.3541 3.02335C70.2524 3.1911 70.0441 3.29421 69.6261 3.50104L69.6259 3.50118C69.4962 3.56534 69.3464 3.63949 69.1733 3.72863C68.879 3.88102 68.5867 4.03375 68.2947 4.18633L68.2933 4.18705C67.5667 4.56666 66.8419 4.94538 66.0923 5.31584C65.4387 5.64465 64.984 5.37267 64.9759 4.65011V1.62183C64.9759 1.06163 65.2276 0.809953 65.7878 0.809953C66.2808 0.79778 66.7738 0.799296 67.2686 0.800818C67.4337 0.801326 67.5991 0.801834 67.7647 0.801834ZM87.4403 20.5958H80.0482C79.3825 20.5958 79.3703 20.5958 79.5286 21.2697C79.776 22.4509 80.4061 23.5176 81.3213 24.3044C82.2365 25.0911 83.3857 25.554 84.5907 25.6213C85.533 25.7281 86.4874 25.6354 87.3916 25.3494C88.2959 25.0634 89.1298 24.5903 89.8394 23.961C90.5173 23.3683 90.6229 23.3643 91.4307 23.7946L94.0693 25.2032C94.666 25.5198 94.7309 25.9866 94.2641 26.4819C93.2043 27.6263 91.9149 28.5342 90.4803 29.1463C89.0456 29.7584 87.4979 30.0608 85.9384 30.0338C83.5343 30.1101 81.1601 29.4838 79.1065 28.2315C77.7221 27.4023 76.5463 26.2667 75.6695 24.9121C74.7926 23.5574 74.2381 22.0197 74.0485 20.4172C73.7268 18.3333 73.9693 16.2013 74.7508 14.2429C75.2644 12.9187 76.039 11.7113 77.0285 10.6925C78.0181 9.67366 79.2024 8.86418 80.511 8.31218C83.2174 7.06032 86.2907 6.85216 89.1412 7.72763C92.0355 8.61257 93.9191 10.5976 95.011 13.3701C95.7732 15.4464 96.1007 17.6571 95.9731 19.8651C95.9859 20.0285 95.9352 20.1905 95.8316 20.3175C95.7281 20.4445 95.5796 20.5267 95.417 20.5471C95.2018 20.5897 94.9828 20.6101 94.7634 20.608L87.4403 20.5958ZM84.9235 16.4593H90.0221L90.0693 16.4596C90.2773 16.4615 90.5031 16.4635 90.4767 16.1467C90.3509 14.726 89.9003 13.4513 88.7515 12.5258C87.6714 11.698 86.3311 11.2834 84.9722 11.3567C82.0576 11.3567 80.0239 13.0535 79.4921 15.9194C79.3947 16.4431 79.4069 16.4593 79.9589 16.4593H84.9235ZM70.4387 28.5145V18.6624L70.4509 8.72509C70.4509 7.81985 69.9962 7.5357 69.1843 7.94163C68.6728 8.20522 68.1664 8.47399 67.6592 8.7432C66.9791 9.10418 66.2975 9.46594 65.6 9.81706C65.3983 9.90295 65.2291 10.0506 65.1167 10.2389C65.0044 10.4271 64.9547 10.6461 64.9748 10.8644V17.2822V28.5429C64.9748 29.2858 65.1778 29.4928 65.9044 29.4928H69.4726C70.2966 29.4928 70.4387 29.3263 70.4387 28.5145ZM26.9398 18.6619V8.72456C26.9398 7.81526 27.3986 7.50675 28.2023 7.93704C29.3741 8.54324 30.5419 9.15891 31.7055 9.78405C31.7628 9.82744 31.8282 9.85895 31.8978 9.87674C31.9675 9.89453 32.0399 9.89824 32.111 9.88765C32.1821 9.87707 32.2503 9.8524 32.3118 9.81509C32.3732 9.77778 32.4266 9.72859 32.4687 9.67039C34.0275 8.01011 36.0206 7.34844 38.233 7.23477C39.068 7.19027 39.9054 7.23929 40.7295 7.38091C42.2909 7.60499 43.7117 8.4059 44.7117 9.62574C44.9106 9.86524 45.0365 9.92613 45.3084 9.71504C47.6476 7.91581 50.5644 7.035 53.5084 7.23883C55.1103 7.26765 56.6548 7.84023 57.8884 8.86258C58.9961 9.85166 59.7799 11.1518 60.1373 12.5931C60.4466 13.71 60.5996 14.8644 60.592 16.0233V28.5586C60.592 29.3705 60.4539 29.4882 59.6745 29.4923H56.0779C55.3432 29.4923 55.1402 29.2893 55.1362 28.5464V16.6281C55.1395 15.8195 54.9836 15.0181 54.6775 14.2696C54.097 12.861 52.9725 12.24 51.503 12.1628C48.767 12.0411 46.9809 13.6364 46.6318 16.4982C46.5682 16.9923 46.5371 17.4899 46.5384 17.988V28.4977C46.5384 29.3096 46.368 29.4923 45.5683 29.4923H41.9595C41.2775 29.4923 41.0745 29.2852 41.0745 28.5911V16.4982C41.0738 15.8965 40.9946 15.2975 40.8391 14.7162C40.4332 13.2183 39.5157 12.3536 37.9772 12.1913C36.3048 12.0126 34.7866 12.3861 33.65 13.7338C32.8577 14.6959 32.4358 15.9098 32.4606 17.1559C32.4443 19.6376 32.4498 22.1212 32.4552 24.6042V24.6046C32.4579 25.8457 32.4606 27.0867 32.4606 28.3272C32.4727 28.5029 32.4727 28.6792 32.4606 28.8549C32.4613 28.9474 32.4417 29.039 32.4033 29.1231C32.3648 29.2072 32.3083 29.2819 32.2379 29.3418C32.1675 29.4018 32.0848 29.4456 31.9956 29.4702C31.9065 29.4948 31.813 29.4996 31.7218 29.4841H27.5853C27.0982 29.4841 26.9358 29.2609 26.9358 28.6723L26.9398 18.6619ZM2.98975 26.3185C5.36041 28.7745 8.33188 29.8461 11.7052 29.8461C12.6428 29.8738 13.58 29.7811 14.494 29.5701C17.9201 28.8029 20.583 26.9924 22.2068 23.8423C23.4017 21.495 23.7666 18.8122 23.2419 16.231C22.5193 12.1595 20.2542 9.27735 16.3816 7.76726C15.0456 7.2748 13.5763 7.28401 12.2466 7.7932C10.9169 8.30238 9.81723 9.27691 9.15188 10.5357C8.72159 11.3151 8.83525 11.782 9.53346 12.2204C11.6064 13.5058 13.6659 14.7967 15.7118 16.093C15.9694 16.2541 16.2273 16.415 16.4855 16.5759C17.3461 17.1126 18.2082 17.6502 19.0608 18.1998C19.5966 18.5449 19.5601 19.0158 19.008 19.3243L18.732 19.4623L9.26959 24.09C8.71752 24.3782 8.16545 24.6461 7.60526 24.9018C7.52206 24.9511 7.42762 24.9784 7.33094 24.9811C7.23425 24.9837 7.13852 24.9616 7.05275 24.9169C6.96698 24.8722 6.89404 24.8063 6.84084 24.7255C6.78764 24.6448 6.75593 24.5517 6.74872 24.4553C6.72432 24.2819 6.71617 24.1066 6.72436 23.9316V13.8604C6.72762 13.2736 6.77277 12.6867 6.81776 12.102C6.82879 11.9587 6.83981 11.8154 6.8502 11.6724C6.92536 10.5882 7.14097 9.51845 7.49159 8.48983C7.56466 8.27062 7.64585 8.01488 7.39823 7.84439C7.17514 7.69079 6.99157 7.7876 6.806 7.88547C6.78559 7.89623 6.76516 7.907 6.74466 7.91746C6.65921 7.96166 6.57805 8.01441 6.49806 8.0664C6.46785 8.08604 6.4378 8.10557 6.40775 8.12449C5.38362 8.78548 4.44313 9.56784 3.60678 10.4546C1.01285 13.1622 -0.399818 16.3 0.0994836 20.1361C0.356718 22.4587 1.37258 24.6317 2.98975 26.3185Z" fill="#00E2F4"/>
</svg>
