<svg width="53" height="60" viewBox="0 0 53 60" fill="none" xmlns="http://www.w3.org/2000/svg">
<path d="M51.4151 27.8086C53.2616 28.8573 53.2616 31.4789 51.4151 32.5276L4.15475 59.367C2.3082 60.4157 -9.17602e-08 59.1048 0 57.0075L2.34849e-06 3.32869C2.44025e-06 1.23135 2.3082 -0.0794905 4.15476 0.96918L51.4151 27.8086Z" fill="#FFECE4"/>
<path fill-rule="evenodd" clip-rule="evenodd" d="M23.0176 30V15H25.2676V29.3765L32.7388 34.046L31.5463 35.954L23.5463 30.954C23.2174 30.7484 23.0176 30.3879 23.0176 30Z" fill="#FF601F"/>
<path fill-rule="evenodd" clip-rule="evenodd" d="M24.1426 11.125C20.0839 11.125 16.3005 12.5844 13.1934 14.875H16.1426V17.125H10.1426C9.52126 17.125 9.01758 16.6213 9.01758 16V10H11.2676V13.5145C14.8102 10.7245 19.2704 8.875 24.1426 8.875C35.8096 8.875 45.2676 18.333 45.2676 30C45.2676 41.667 35.8096 51.125 24.1426 51.125C12.4756 51.125 3.01758 41.667 3.01758 30H5.26758C5.26758 40.4244 13.7182 48.875 24.1426 48.875C34.567 48.875 43.0176 40.4244 43.0176 30C43.0176 19.5756 34.567 11.125 24.1426 11.125Z" fill="#001E27"/>
</svg>
