<svg width="32" height="32" viewBox="0 0 32 32" fill="none" xmlns="http://www.w3.org/2000/svg">
<g clip-path="url(#clip0_1958_44853)">
<path fill-rule="evenodd" clip-rule="evenodd" d="M14.8612 3.4642C14.8615 3.46436 14.8619 3.46451 14.4691 4.38413L14.8619 3.46451C15.1388 3.5828 15.3477 3.81958 15.4305 4.1091L17.1024 9.95361C17.2087 10.3251 17.0914 10.7247 16.8011 10.9798L14.5934 12.92L18.1967 19.1611L20.9808 18.2193C21.3469 18.0954 21.7515 18.1936 22.0202 18.4714L26.2457 22.8416C26.455 23.0581 26.5556 23.3574 26.5196 23.6563L25.5268 23.5367C26.5196 23.6563 26.5196 23.6567 26.5195 23.6571L26.5194 23.658L26.5192 23.66L26.5186 23.665L26.5167 23.6789C26.5153 23.69 26.5133 23.7046 26.5106 23.7225C26.5054 23.7582 26.4978 23.8071 26.4872 23.8676C26.4661 23.9885 26.4331 24.1567 26.3837 24.3588C26.2855 24.7607 26.1197 25.3097 25.8473 25.8936C25.3091 27.0474 24.2902 28.4638 22.4387 28.9935C20.5247 29.5411 18.3724 28.7503 16.3396 27.169C14.276 25.5639 12.1529 23.0135 10.1941 19.6207C8.23526 16.2279 7.08816 13.1141 6.72983 10.5245C6.37683 7.97332 6.76819 5.71405 8.19928 4.33021C9.58375 2.99146 11.3198 2.81729 12.5881 2.92807C13.2301 2.98414 13.7884 3.11504 14.1855 3.23097C14.3853 3.28928 14.5474 3.34473 14.6627 3.3869C14.7204 3.40801 14.7666 3.42587 14.8001 3.43921C14.8169 3.44589 14.8305 3.45143 14.8409 3.4557L14.8539 3.46112L14.8585 3.46308L14.8604 3.46386L14.8612 3.4642ZM24.447 23.8586L21.0222 20.3166L18.061 21.3183C17.6095 21.4711 17.1129 21.2839 16.8746 20.8711L12.4515 13.2101C12.2131 12.7973 12.2993 12.2736 12.6574 11.9589L15.0055 9.89525L13.6504 5.15829C13.6421 5.15582 13.6336 5.15334 13.6251 5.15084C13.3184 5.06131 12.8927 4.96229 12.4141 4.92048C11.4413 4.83552 10.3901 4.99383 9.58956 5.76796C8.83563 6.49699 8.39318 7.95377 8.71096 10.2503C9.0234 12.5084 10.0517 15.374 11.9262 18.6207C13.8006 21.8674 15.7682 24.1908 17.5676 25.5904C19.3976 27.0139 20.8804 27.3591 21.8886 27.0706C22.9593 26.7643 23.622 25.9331 24.0348 25.0481C24.2379 24.6127 24.365 24.1946 24.4408 23.8842C24.4429 23.8756 24.445 23.867 24.447 23.8586ZM14.0777 5.30437L14.0784 5.30465L14.0793 5.30504C14.0795 5.30514 14.079 5.30491 14.0777 5.30437Z" fill="#001E27"/>
</g>
<defs>
<clipPath id="clip0_1958_44853">
<rect width="32" height="32" fill="white"/>
</clipPath>
</defs>
</svg>
