<svg width="53" height="60" viewBox="0 0 53 60" fill="none" xmlns="http://www.w3.org/2000/svg">
<path d="M51.4151 27.8086C53.2616 28.8573 53.2616 31.4789 51.4151 32.5276L4.15475 59.367C2.3082 60.4157 -9.17602e-08 59.1048 0 57.0075L2.34849e-06 3.32869C2.44025e-06 1.23135 2.3082 -0.0794905 4.15476 0.96918L51.4151 27.8086Z" fill="#FFECE4"/>
<path fill-rule="evenodd" clip-rule="evenodd" d="M5.14258 20.875C3.96897 20.875 3.01758 21.8264 3.01758 23V49C3.01758 50.1736 3.96897 51.125 5.14258 51.125H12.1426C12.5041 51.125 12.8445 51.0347 13.1426 50.8755C13.4406 51.0347 13.7811 51.125 14.1426 51.125H21.1426C21.5041 51.125 21.8445 51.0347 22.1426 50.8755C22.4406 51.0347 22.7811 51.125 23.1426 51.125H30.1426C30.5041 51.125 30.8445 51.0347 31.1426 50.8755C31.4406 51.0347 31.7811 51.125 32.1426 51.125H39.1426C40.3162 51.125 41.2676 50.1736 41.2676 49V23C41.2676 21.8264 40.3162 20.875 39.1426 20.875H32.1426C30.969 20.875 30.0176 21.8264 30.0176 23V36.875H23.2676V31C23.2676 29.8264 22.3162 28.875 21.1426 28.875H14.2676V23C14.2676 21.8264 13.3162 20.875 12.1426 20.875H5.14258ZM30.0176 39.125H23.2676V48.875H30.0176V39.125ZM32.2676 48.875H39.0176V23.125H32.2676V39V48.875ZM21.0176 39V48.875H14.2676V31.125H21.0176V39ZM12.0176 31V23.125H5.26758V48.875H12.0176V31Z" fill="#FF601F"/>
<path fill-rule="evenodd" clip-rule="evenodd" d="M3.01758 49V10H5.26758V48.875H44.1426V51.125H5.14258C3.96897 51.125 3.01758 50.1736 3.01758 49Z" fill="#001E27"/>
</svg>
