<svg width="54" height="60" viewBox="0 0 54 60" fill="none" xmlns="http://www.w3.org/2000/svg">
<path d="M51.9151 27.8086C53.7616 28.8573 53.7616 31.4789 51.9151 32.5276L4.65475 59.367C2.8082 60.4157 0.5 59.1048 0.5 57.0075L0.500002 3.32869C0.500002 1.23135 2.8082 -0.0794905 4.65476 0.96918L51.9151 27.8086Z" fill="#FFECE4"/>
<path fill-rule="evenodd" clip-rule="evenodd" d="M16.6426 22.875C17.2639 22.875 17.7676 23.3787 17.7676 24L17.7676 41C17.7676 41.6213 17.2639 42.125 16.6426 42.125H10.6426C10.0213 42.125 9.51758 41.6213 9.51758 41V24C9.51758 23.3787 10.0213 22.875 10.6426 22.875H16.6426ZM15.5176 25.125L11.7676 25.125L11.7676 39.875H15.5176L15.5176 25.125ZM27.6426 22.875C28.2639 22.875 28.7676 23.3787 28.7676 24V41C28.7676 41.6213 28.2639 42.125 27.6426 42.125H21.6426C21.0213 42.125 20.5176 41.6213 20.5176 41L20.5176 24C20.5176 23.3787 21.0213 22.875 21.6426 22.875H27.6426ZM26.5176 25.125L22.7676 25.125L22.7676 39.875H26.5176V25.125ZM39.7676 24C39.7676 23.3787 39.2639 22.875 38.6426 22.875H32.6426C32.0213 22.875 31.5176 23.3787 31.5176 24V41C31.5176 41.6213 32.0213 42.125 32.6426 42.125H38.6426C39.2639 42.125 39.7676 41.6213 39.7676 41V24ZM33.7676 25.125L37.5176 25.125V39.875H33.7676V25.125Z" fill="#FF601F"/>
<rect width="4" height="8" transform="matrix(3.40949e-08 -1 -1 -5.60402e-08 28.6426 24)" stroke="#FF601F" stroke-width="2.25" stroke-linecap="round" stroke-linejoin="round"/>
<rect width="4" height="8" transform="matrix(3.40949e-08 -1 -1 -5.60402e-08 17.6426 24)" stroke="#FF601F" stroke-width="2.25" stroke-linecap="round" stroke-linejoin="round"/>
<rect width="4" height="8" transform="matrix(3.40949e-08 -1 -1 -5.60402e-08 39.6426 24)" stroke="#FF601F" stroke-width="2.25" stroke-linecap="round" stroke-linejoin="round"/>
<rect width="4" height="8" transform="matrix(4.54598e-08 -1 -1 -4.20302e-08 28.6426 45)" stroke="#FF601F" stroke-width="2.25" stroke-linecap="round" stroke-linejoin="round"/>
<rect width="4" height="8" transform="matrix(4.54598e-08 -1 -1 -4.20302e-08 17.6426 45)" stroke="#FF601F" stroke-width="2.25" stroke-linecap="round" stroke-linejoin="round"/>
<rect width="4" height="8" transform="matrix(4.54598e-08 -1 -1 -4.20302e-08 39.6426 45)" stroke="#FF601F" stroke-width="2.25" stroke-linecap="round" stroke-linejoin="round"/>
<path fill-rule="evenodd" clip-rule="evenodd" d="M25.169 10.0057C24.8398 9.83142 24.4456 9.83142 24.1163 10.0057L7.11631 19.0057C6.65951 19.2476 6.42627 19.7696 6.55086 20.2712C6.67545 20.7728 7.12582 21.125 7.64269 21.125H41.6427C42.1595 21.125 42.6099 20.7728 42.7345 20.2712C42.8591 19.7696 42.6258 19.2476 42.169 19.0057L25.169 10.0057ZM12.1721 18.875L24.6427 12.2729L37.1132 18.875H12.1721ZM7.64279 43.875C7.02147 43.875 6.51779 44.3787 6.51779 45V49C6.51779 49.6213 7.02147 50.125 7.64279 50.125H41.6428C42.2641 50.125 42.7678 49.6213 42.7678 49V45C42.7678 44.3787 42.2641 43.875 41.6428 43.875H7.64279ZM8.76779 47.875V46.125H40.5178V47.875H8.76779Z" fill="#001E27"/>
</svg>
