<svg width="53" height="60" viewBox="0 0 53 60" fill="none" xmlns="http://www.w3.org/2000/svg">
<path d="M51.4151 27.8086C53.2616 28.8573 53.2616 31.4789 51.4151 32.5276L4.15475 59.367C2.3082 60.4157 -9.17602e-08 59.1048 0 57.0075L2.34849e-06 3.32869C2.44025e-06 1.23135 2.3082 -0.0794905 4.15476 0.96918L51.4151 27.8086Z" fill="#FFECE4"/>
<path fill-rule="evenodd" clip-rule="evenodd" d="M14.1426 14.875C12.969 14.875 12.0176 15.8264 12.0176 17V34C12.0176 35.1736 12.969 36.125 14.1426 36.125H43.1426C44.3162 36.125 45.2676 35.1736 45.2676 34V17C45.2676 15.8264 44.3162 14.875 43.1426 14.875H14.1426ZM14.2676 33.875V17.125H43.0176V33.875H14.2676ZM11.1426 25.125H5.26758V42.875H37.0176V42.8719V42.8603V42.8487V42.8371V42.8255V42.8139V42.8023V42.7907V42.7791V42.7676V42.756V42.7444V42.7329V42.7213V42.7098V42.6982V42.6867V42.6751V42.6636V42.652V42.6405V42.629V42.6175V42.6059V42.5944V42.5829V42.5714V42.5599V42.5484V42.5369V42.5254V42.5139V42.5024V42.4909V42.4794V42.468V42.4565V42.445V42.4336V42.4221V42.4106V42.3992V42.3877V42.3763V42.3648V42.3534V42.3419V42.3305V42.319V42.3076V42.2962V42.2848V42.2733V42.2619V42.2505V42.2391V42.2277V42.2163V42.2049V42.1935V42.1821V42.1707V42.1593V42.1479V42.1365V42.1251V42.1137V42.1023V42.091V42.0796V42.0682V42.0568V42.0455V42.0341V42.0228V42.0114V42V41.9887V41.9773V41.966V41.9546V41.9433V41.932V41.9206V41.9093V41.8979V41.8866V41.8753V41.864V41.8526V41.8413V41.83V41.8187V41.8074V41.796V41.7847V41.7734V41.7621V41.7508V41.7395V41.7282V41.7169V41.7056V41.6943V41.683V41.6717V41.6605V41.6492V41.6379V41.6266V41.6153V41.604V41.5928V41.5815V41.5702V41.5589V41.5477V41.5364V41.5251V41.5139V41.5026V41.4914V41.4801V41.4688V41.4576V41.4463V41.4351V41.4238V41.4126V41.4013V41.3901V41.3788V41.3676V41.3563V41.3451V41.3339V41.3226V41.3114V41.3002V41.2889V41.2777V41.2665V41.2552V41.244V41.2328V41.2215V41.2103V41.1991V41.1879V41.1767V41.1654V41.1542V41.143V41.1318V41.1206V41.1093V41.0981V41.0869V41.0757V41.0645V41.0533V41.0421V41.0309V41.0196V41.0084V40.9972V40.986V40.9748V40.9636V40.9524V40.9412V40.93V40.9188V40.9076V40.8964V40.8852V40.874V40.8628V40.8516V40.8404V40.8292V40.818V40.8068V40.7956V40.7844V40.7732V40.762V40.7508V40.7396V40.7284V40.7172V40.7061V40.6949V40.6837V40.6725V40.6613V40.6501V40.6389V40.6277V40.6165V40.6053V40.5941V40.5829V40.5717V40.5605V40.5494V40.5382V40.527V40.5158V40.5046V40.4934V40.4822V40.471V40.4598V40.4486V40.4374V40.4262V40.415V40.4038V40.3926V40.3815V40.3703V40.3591V40.3479V40.3367V40.3255V40.3143V40.3031V40.2919V40.2807V40.2695V40.2583V40.2471V40.2359V40.2247V40.2135V40.2023V40.1911V40.1799V40.1687V40.1574V40.1462V40.135V40.1238V40.1126V40.1014V40.0902V40.079V40.0678V40.0566V40.0453V40.0341V40.0229V40.0117V40.0005V39.9893V39.978V39.9668V39.9556V39.9444V39.9331V39.9219V39.9107V39.8995V39.8882V39.877V39.8658V39.8545V39.8433V39.8321V39.8208V39.8096V39.7984V39.7871V39.7759V39.7646V39.7534V39.7421V39.7309V39.7196V39.7084V39.6971V39.6859V39.6746V39.6634V39.6521V39.6408V39.6296V39.6183V39.607V39.5958V39.5845V39.5732V39.562V39.5507V39.5394V39.5281V39.5168V39.5056V39.4943V39.483V39.4717V39.4604V39.4491V39.4378V39.4265V39.4152V39.4039V39.3926V39.3813V39.37V39.3587V39.3474V39.3361V39.3248V39.3134V39.3021V39.2908V39.2795V39.2682V39.2568V39.2455V39.2342V39.2228V39.2115V39.2001V39.1888V39.1774V39.1661V39.1547V39.1434V39.132V39.1207V39.1093V39.0979V39.0866V39.0752V39.0638V39.0525V39.0411V39.0297V39.0183V39.0069V38.9955V38.9841V38.9728V38.9614V38.95V38.9386V38.9271V38.9157V38.9043V38.8929V38.8815V38.8701V38.8586V38.8472V38.8358V38.8243V38.8129V38.8015V38.79V38.7786V38.7671V38.7557V38.7442V38.7328V38.7213V38.7098V38.6984V38.6869V38.6754V38.6639V38.6525V38.641V38.6295V38.618V38.6065V38.595V38.5835V38.572V38.5605V38.549V38.5374V38.5259V38.5144V38.5029V38.4913V38.4798V38.4682V38.4567V38.4452V38.4336V38.422V38.4105V38.3989V38.3874V38.3758V38.3642V38.3526V38.341V38.3295V38.3179V38.3063V38.2947V38.2831V38.2715V38.2599V38.2482V38.2366V38.225V38.2134V38.2017V38.1901V38.1785V38.1668V38.1552V38.1435V38.1319V38.1202V38.1085V38.0969V38.0852V38.0735V38.0618V38.0501V38.0384V38.0267V38.015V38.0033V37.9916V37.9799V37.9682V37.9565V37.9447V37.933V37.9213V37.9095V37.8978V37.886V37.8743V37.8625V37.8507V37.8389V37.8272V37.8154V37.8036V37.7918V37.78V37.7682V37.7564V37.7446V37.7328V37.721V37.7091V37.6973V37.6855V37.6736V37.6618V37.6499V37.6381V37.6262V37.6143V37.6025V37.5906V37.5787V37.5668V37.5549V37.543V37.5311V37.5192V37.5073V37.4954V37.4834V37.4715V37.4596V37.4476V37.4357V37.4237V37.4118V37.3998V37.3878V37.3758V37.3639V37.3519V37.3399V37.3279V37.3159V37.3039V37.2918V37.2798V37.2678V37.2558V37.2437V37.2317V37.2196V37.2076V37.1955V37.1834V37.1714V37.1593V37.1472H39.2676V37.1593V37.1714V37.1834V37.1955V37.2076V37.2196V37.2317V37.2437V37.2558V37.2678V37.2798V37.2918V37.3039V37.3159V37.3279V37.3399V37.3519V37.3639V37.3758V37.3878V37.3998V37.4118V37.4237V37.4357V37.4476V37.4596V37.4715V37.4834V37.4954V37.5073V37.5192V37.5311V37.543V37.5549V37.5668V37.5787V37.5906V37.6025V37.6143V37.6262V37.6381V37.6499V37.6618V37.6736V37.6855V37.6973V37.7091V37.721V37.7328V37.7446V37.7564V37.7682V37.78V37.7918V37.8036V37.8154V37.8272V37.8389V37.8507V37.8625V37.8743V37.886V37.8978V37.9095V37.9213V37.933V37.9447V37.9565V37.9682V37.9799V37.9916V38.0033V38.015V38.0267V38.0384V38.0501V38.0618V38.0735V38.0852V38.0969V38.1085V38.1202V38.1319V38.1435V38.1552V38.1668V38.1785V38.1901V38.2017V38.2134V38.225V38.2366V38.2482V38.2599V38.2715V38.2831V38.2947V38.3063V38.3179V38.3295V38.341V38.3526V38.3642V38.3758V38.3874V38.3989V38.4105V38.422V38.4336V38.4452V38.4567V38.4682V38.4798V38.4913V38.5029V38.5144V38.5259V38.5374V38.549V38.5605V38.572V38.5835V38.595V38.6065V38.618V38.6295V38.641V38.6525V38.6639V38.6754V38.6869V38.6984V38.7098V38.7213V38.7328V38.7442V38.7557V38.7671V38.7786V38.79V38.8015V38.8129V38.8243V38.8358V38.8472V38.8586V38.8701V38.8815V38.8929V38.9043V38.9157V38.9271V38.9386V38.95V38.9614V38.9728V38.9841V38.9955V39.0069V39.0183V39.0297V39.0411V39.0525V39.0638V39.0752V39.0866V39.0979V39.1093V39.1207V39.132V39.1434V39.1547V39.1661V39.1774V39.1888V39.2001V39.2115V39.2228V39.2342V39.2455V39.2568V39.2682V39.2795V39.2908V39.3021V39.3134V39.3248V39.3361V39.3474V39.3587V39.37V39.3813V39.3926V39.4039V39.4152V39.4265V39.4378V39.4491V39.4604V39.4717V39.483V39.4943V39.5056V39.5168V39.5281V39.5394V39.5507V39.562V39.5732V39.5845V39.5958V39.607V39.6183V39.6296V39.6408V39.6521V39.6634V39.6746V39.6859V39.6971V39.7084V39.7196V39.7309V39.7421V39.7534V39.7646V39.7759V39.7871V39.7984V39.8096V39.8208V39.8321V39.8433V39.8545V39.8658V39.877V39.8882V39.8995V39.9107V39.9219V39.9331V39.9444V39.9556V39.9668V39.978V39.9893V40.0005V40.0117V40.0229V40.0341V40.0453V40.0566V40.0678V40.079V40.0902V40.1014V40.1126V40.1238V40.135V40.1462V40.1574V40.1687V40.1799V40.1911V40.2023V40.2135V40.2247V40.2359V40.2471V40.2583V40.2695V40.2807V40.2919V40.3031V40.3143V40.3255V40.3367V40.3479V40.3591V40.3703V40.3815V40.3926V40.4038V40.415V40.4262V40.4374V40.4486V40.4598V40.471V40.4822V40.4934V40.5046V40.5158V40.527V40.5382V40.5494V40.5605V40.5717V40.5829V40.5941V40.6053V40.6165V40.6277V40.6389V40.6501V40.6613V40.6725V40.6837V40.6949V40.7061V40.7172V40.7284V40.7396V40.7508V40.762V40.7732V40.7844V40.7956V40.8068V40.818V40.8292V40.8404V40.8516V40.8628V40.874V40.8852V40.8964V40.9076V40.9188V40.93V40.9412V40.9524V40.9636V40.9748V40.986V40.9972V41.0084V41.0196V41.0309V41.0421V41.0533V41.0645V41.0757V41.0869V41.0981V41.1093V41.1206V41.1318V41.143V41.1542V41.1654V41.1767V41.1879V41.1991V41.2103V41.2215V41.2328V41.244V41.2552V41.2665V41.2777V41.2889V41.3002V41.3114V41.3226V41.3339V41.3451V41.3563V41.3676V41.3788V41.3901V41.4013V41.4126V41.4238V41.4351V41.4463V41.4576V41.4688V41.4801V41.4914V41.5026V41.5139V41.5251V41.5364V41.5477V41.5589V41.5702V41.5815V41.5928V41.604V41.6153V41.6266V41.6379V41.6492V41.6605V41.6717V41.683V41.6943V41.7056V41.7169V41.7282V41.7395V41.7508V41.7621V41.7734V41.7847V41.796V41.8074V41.8187V41.83V41.8413V41.8526V41.864V41.8753V41.8866V41.8979V41.9093V41.9206V41.932V41.9433V41.9546V41.966V41.9773V41.9887V42V42.0114V42.0228V42.0341V42.0455V42.0568V42.0682V42.0796V42.091V42.1023V42.1137V42.1251V42.1365V42.1479V42.1593V42.1707V42.1821V42.1935V42.2049V42.2163V42.2277V42.2391V42.2505V42.2619V42.2733V42.2848V42.2962V42.3076V42.319V42.3305V42.3419V42.3534V42.3648V42.3763V42.3877V42.3992V42.4106V42.4221V42.4336V42.445V42.4565V42.468V42.4794V42.4909V42.5024V42.5139V42.5254V42.5369V42.5484V42.5599V42.5714V42.5829V42.5944V42.6059V42.6175V42.629V42.6405V42.652V42.6636V42.6751V42.6867V42.6982V42.7098V42.7213V42.7329V42.7444V42.756V42.7676V42.7791V42.7907V42.8023V42.8139V42.8255V42.8371V42.8487V42.8603V42.8719V42.8835V42.8951V42.9067V42.9183V42.93V42.9416V42.9532V42.9649V42.9765V42.9882V42.9998C39.2676 44.1731 38.3165 45.125 37.1426 45.125H5.14258C3.96898 45.125 3.01758 44.1736 3.01758 43V25C3.01758 23.8264 3.96897 22.875 5.14258 22.875H11.1426V25.125Z" fill="#001E27"/>
<path fill-rule="evenodd" clip-rule="evenodd" d="M31.1863 20.9812C30.7657 20.5597 30.2385 20.2701 29.6426 20.12V19H27.6426V20.1151C27.0454 20.2637 26.5178 20.5545 26.0974 20.9774C25.457 21.6218 25.1426 22.4951 25.1426 23.4167C25.1426 24.4527 25.6258 25.2621 26.3286 25.7827C27.0026 26.282 27.8484 26.5 28.6426 26.5C29.0984 26.5 29.5026 26.6292 29.7661 26.8244C30.0008 26.9982 30.1426 27.2304 30.1426 27.5833C30.1426 28.0494 29.9889 28.3873 29.7707 28.606C29.555 28.8221 29.1981 28.9999 28.6426 28.9999V28.9998L28.6337 28.9999C28.0843 29.0048 27.7308 28.8288 27.5159 28.6126C27.297 28.3924 27.1426 28.0505 27.1426 27.5833H25.1426C25.1426 28.5049 25.457 29.3782 26.0974 30.0226C26.5178 30.4455 27.0454 30.7363 27.6426 30.8849V32H29.6426V30.88C30.2385 30.7299 30.7657 30.4403 31.1863 30.0188C31.8275 29.3763 32.1426 28.506 32.1426 27.5833C32.1426 26.5473 31.6594 25.7379 30.9565 25.2173C30.2825 24.718 29.4368 24.5 28.6426 24.5C28.1868 24.5 27.7825 24.3708 27.519 24.1756C27.2844 24.0018 27.1426 23.7696 27.1426 23.4167C27.1426 22.9495 27.297 22.6076 27.5159 22.3874C27.7308 22.1712 28.0843 21.9952 28.6337 22.0001V22.0001H28.6426C29.1981 22.0001 29.555 22.1779 29.7707 22.394C29.9889 22.6127 30.1426 22.9506 30.1426 23.4167H32.1426C32.1426 22.494 31.8275 21.6237 31.1863 20.9812ZM21.6426 25.5C21.6426 26.6046 20.7471 27.5 19.6426 27.5C18.538 27.5 17.6426 26.6046 17.6426 25.5C17.6426 24.3954 18.538 23.5 19.6426 23.5C20.7471 23.5 21.6426 24.3954 21.6426 25.5ZM39.6426 25.5C39.6426 26.6046 38.7471 27.5 37.6426 27.5C36.538 27.5 35.6426 26.6046 35.6426 25.5C35.6426 24.3954 36.538 23.5 37.6426 23.5C38.7471 23.5 39.6426 24.3954 39.6426 25.5Z" fill="#FF601F"/>
</svg>
