<svg width="53" height="60" viewBox="0 0 53 60" fill="none" xmlns="http://www.w3.org/2000/svg">
<path d="M51.4151 27.8086C53.2616 28.8573 53.2616 31.4789 51.4151 32.5276L4.15475 59.367C2.3082 60.4157 -9.17602e-08 59.1048 0 57.0075L2.34849e-06 3.32869C2.44025e-06 1.23135 2.3082 -0.0794905 4.15476 0.96918L51.4151 27.8086Z" fill="#FFECE4"/>
<path fill-rule="evenodd" clip-rule="evenodd" d="M8.26758 14.125V45.875H40.0176V24.625H31.6426C30.469 24.625 29.5176 23.6736 29.5176 22.5V14.125H8.26758ZM31.7676 15.716L38.4266 22.375H31.7676V15.716ZM6.01758 14C6.01758 12.8264 6.96897 11.875 8.14258 11.875H30.6426C30.9409 11.875 31.2271 11.9935 31.4381 12.2045L41.9381 22.7045C42.1491 22.9155 42.2676 23.2016 42.2676 23.5V46C42.2676 47.1736 41.3162 48.125 40.1426 48.125H8.14258C6.96897 48.125 6.01758 47.1736 6.01758 46V14Z" fill="#001E27"/>
<path fill-rule="evenodd" clip-rule="evenodd" d="M16.1863 17.9812C15.7657 17.5597 15.2385 17.2701 14.6426 17.12V16H12.6426V17.1151C12.0454 17.2637 11.5178 17.5545 11.0974 17.9774C10.457 18.6218 10.1426 19.4951 10.1426 20.4167C10.1426 21.4527 10.6258 22.2621 11.3286 22.7827C12.0026 23.282 12.8484 23.5 13.6426 23.5C14.0984 23.5 14.5026 23.6292 14.7661 23.8244C15.0008 23.9982 15.1426 24.2304 15.1426 24.5833C15.1426 25.0494 14.9889 25.3873 14.7707 25.606C14.555 25.8221 14.1981 25.9999 13.6426 25.9999V25.9998L13.6337 25.9999C13.0843 26.0048 12.7308 25.8288 12.5159 25.6126C12.297 25.3924 12.1426 25.0505 12.1426 24.5833H10.1426C10.1426 25.5049 10.457 26.3782 11.0974 27.0226C11.5178 27.4455 12.0454 27.7363 12.6426 27.8849V29H14.6426V27.88C15.2385 27.7299 15.7657 27.4403 16.1863 27.0188C16.8275 26.3763 17.1426 25.506 17.1426 24.5833C17.1426 23.5473 16.6594 22.7379 15.9565 22.2173C15.2825 21.718 14.4368 21.5 13.6426 21.5C13.1868 21.5 12.7825 21.3708 12.519 21.1756C12.2844 21.0018 12.1426 20.7696 12.1426 20.4167C12.1426 19.9495 12.297 19.6076 12.5159 19.3874C12.7308 19.1712 13.0843 18.9952 13.6337 19.0001L13.6337 19.0001H13.6426C14.1981 19.0001 14.555 19.1779 14.7707 19.394C14.9889 19.6127 15.1426 19.9506 15.1426 20.4167H17.1426C17.1426 19.494 16.8275 18.6237 16.1863 17.9812ZM10.1426 32H12.1426V44H10.1426V32ZM36.1426 32H38.1426V44H36.1426V32ZM34.1426 32H30.1426V44H34.1426V32ZM25.1426 32H28.1426V44H25.1426V32ZM23.1426 32H17.1426V44H23.1426V32ZM15.1426 32V44H14.1426V32H15.1426Z" fill="#FF601F"/>
</svg>
