<svg width="32" height="32" viewBox="0 0 32 32" fill="none" xmlns="http://www.w3.org/2000/svg">
<path fill-rule="evenodd" clip-rule="evenodd" d="M8 8.00006C8 6.89549 8.89543 6.00006 10 6.00006H28C29.1046 6.00006 30 6.89549 30 8.00006V18.0001C30 19.1046 29.1046 20.0001 28 20.0001H10C8.89543 20.0001 8 19.1046 8 18.0001V8.00006ZM28 8.00006L10 8.00006V18.0001H28V8.00006ZM2 13.0001C2 11.8955 2.89543 11.0001 4 11.0001H7V13.0001H4V24.0001H24V21.0001H26V24.0001C26 25.1046 25.1046 26.0001 24 26.0001H4C2.89543 26.0001 2 25.1046 2 24.0001V13.0001ZM19 16.0001C20.6569 16.0001 22 14.6569 22 13.0001C22 11.3432 20.6569 10.0001 19 10.0001C17.3431 10.0001 16 11.3432 16 13.0001C16 14.6569 17.3431 16.0001 19 16.0001Z" fill="#001E27"/>
</svg>
