<svg width="53" height="60" viewBox="0 0 53 60" fill="none" xmlns="http://www.w3.org/2000/svg">
<path d="M51.4151 27.8086C53.2616 28.8573 53.2616 31.4789 51.4151 32.5276L4.15475 59.367C2.3082 60.4157 -9.17602e-08 59.1048 0 57.0075L2.34849e-06 3.32869C2.44025e-06 1.23135 2.3082 -0.0794905 4.15476 0.96918L51.4151 27.8086Z" fill="#FFECE4"/>
<path fill-rule="evenodd" clip-rule="evenodd" d="M6.01758 14C6.01758 12.8264 6.96897 11.875 8.14258 11.875H40.1426C41.3162 11.875 42.2676 12.8264 42.2676 14V36.375C42.2676 36.6734 42.1491 36.9595 41.9381 37.1705L31.3131 47.7955C31.1021 48.0065 30.8159 48.125 30.5176 48.125H8.14258C6.96897 48.125 6.01758 47.1736 6.01758 46V14ZM8.26758 14.125V45.875H29.3926V37.375C29.3926 36.2014 30.344 35.25 31.5176 35.25H40.0176V14.125H8.26758ZM38.4266 37.5H31.6426V44.284L38.4266 37.5Z" fill="#001E27"/>
<path fill-rule="evenodd" clip-rule="evenodd" d="M13.1426 20.125H35.1426V17.875H13.1426V20.125ZM13.1426 24.125H35.1426V21.875H13.1426V24.125ZM26.1426 28.125H13.1426V25.875H26.1426V28.125ZM14.0176 31L14.0176 41H16.2676L16.2676 31H14.0176ZM22.0176 41L22.0176 32H24.2676L24.2676 41H22.0176ZM18.0176 35L18.0176 41H20.2676L20.2676 35H18.0176Z" fill="#FF601F"/>
</svg>
