<svg width="54" height="60" viewBox="0 0 54 60" fill="none" xmlns="http://www.w3.org/2000/svg">
<path d="M51.9151 27.8086C53.7616 28.8573 53.7616 31.4789 51.9151 32.5276L4.65475 59.367C2.8082 60.4157 0.5 59.1048 0.5 57.0075L0.500002 3.32869C0.500002 1.23135 2.8082 -0.0794905 4.65476 0.96918L51.9151 27.8086Z" fill="#FFECE4"/>
<path fill-rule="evenodd" clip-rule="evenodd" d="M25.8017 16.9285C26.4593 17.0686 27.0503 17.3387 27.5341 17.7426C28.296 18.3788 28.7108 19.2838 28.7108 20.2829H26.4608C26.4608 19.9352 26.3301 19.6685 26.092 19.4697C25.8387 19.2583 25.3866 19.0645 24.6767 19.0645H24.6683L24.6683 19.0645C23.9639 19.0593 23.515 19.252 23.2631 19.4632C23.0245 19.6633 22.8926 19.9337 22.8926 20.2829C22.8926 20.479 22.9725 20.6585 23.2676 20.8407C23.5925 21.0413 24.1012 21.178 24.6767 21.178C25.5557 21.178 26.5016 21.3779 27.2676 21.8508C28.0634 22.342 28.7108 23.1725 28.7108 24.3232C28.7108 25.3222 28.296 26.2272 27.5341 26.8634C27.0503 27.2674 26.4593 27.5374 25.8017 27.6776V28.6061H23.5517V27.6824C22.8928 27.5437 22.3013 27.2726 21.8175 26.8671C21.0561 26.2287 20.6426 25.3207 20.6426 24.3232H22.8926C22.8926 24.6724 23.0245 24.9428 23.2631 25.1428C23.515 25.3541 23.9639 25.5468 24.6683 25.5416L24.6767 25.5415V25.5415C25.3866 25.5415 25.8387 25.3478 26.092 25.1363C26.3301 24.9376 26.4608 24.6709 26.4608 24.3232C26.4608 24.1271 26.3808 23.9475 26.0858 23.7654C25.7608 23.5648 25.2522 23.428 24.6767 23.428C23.7976 23.428 22.8517 23.2281 22.0858 22.7553C21.2899 22.2641 20.6426 21.4335 20.6426 20.2829C20.6426 19.2853 21.0561 18.3774 21.8175 17.739C22.3013 17.3334 22.8928 17.0623 23.5517 16.9237V16H25.8017V16.9285ZM16.6426 32H32.6426V34H16.6426V32ZM32.6426 36H16.6426V38H32.6426V36ZM32.6426 40H16.6426V42H32.6426V40Z" fill="#FF601F"/>
<path fill-rule="evenodd" clip-rule="evenodd" d="M19.4872 9.3812C20.2281 8.93668 21.1643 8.98498 21.8555 9.50337L24.6426 11.5937L27.4297 9.50337C28.1209 8.98498 29.0571 8.93668 29.798 9.3812L33.6426 11.688L36.5493 9.94395C37.9656 9.09413 39.7676 10.1144 39.7676 11.7661V48.2337C39.7676 49.8855 37.9656 50.9057 36.5493 50.0559L33.6426 48.3119L29.798 50.6187C29.0571 51.0632 28.1208 51.0149 27.4297 50.4965L24.6426 48.4062L21.8555 50.4965C21.1643 51.0149 20.2281 51.0632 19.4872 50.6187L15.6426 48.3119L12.7359 50.0559C11.3195 50.9057 9.51758 49.8855 9.51758 48.2337V11.7661C9.51758 10.1144 11.3195 9.09414 12.7359 9.94395L15.6426 11.688L19.4872 9.3812ZM20.5727 11.3538L16.7359 13.6559C16.0629 14.0597 15.2222 14.0597 14.5493 13.6559L11.7676 11.9869V48.013L14.5493 46.344C15.2222 45.9402 16.0629 45.9402 16.7359 46.344L20.5727 48.6461L23.3676 46.5499C24.1231 45.9833 25.162 45.9833 25.9176 46.5499L28.7124 48.6461L32.5493 46.344C33.2222 45.9402 34.0629 45.9402 34.7359 46.344L37.5176 48.013V11.9869L34.7359 13.6559C34.0629 14.0597 33.2222 14.0597 32.5493 13.6559L28.7124 11.3538L25.9176 13.4499C25.162 14.0166 24.1231 14.0166 23.3676 13.4499L20.5727 11.3538Z" fill="#001E27"/>
</svg>
