<svg width="54" height="60" viewBox="0 0 54 60" fill="none" xmlns="http://www.w3.org/2000/svg">
<path d="M51.9151 27.8086C53.7616 28.8573 53.7616 31.4789 51.9151 32.5276L4.65475 59.367C2.8082 60.4157 0.5 59.1048 0.5 57.0075L0.500002 3.32869C0.500002 1.23135 2.8082 -0.0794905 4.65476 0.96918L51.9151 27.8086Z" fill="#FFECE4"/>
<g clip-path="url(#clip0_1992_46228)">
<path d="M16.6506 10.7598L15.7239 11.3977L15.7239 11.3977L16.6506 10.7598ZM12.0071 12.4965L13.1249 12.3698L13.1249 12.3698L12.0071 12.4965ZM12.3251 15.3007L12.9944 16.2048C13.3172 15.9659 13.4882 15.573 13.4429 15.1739L12.3251 15.3007ZM10.441 17.0589L10.2368 18.1652C10.6318 18.2381 11.0358 18.0949 11.2966 17.7893L10.441 17.0589ZM7.66493 16.5465L7.86913 15.4402L7.66493 16.5465ZM6.57342 17.1153L5.54966 16.6489L5.54966 16.6489L6.57342 17.1153ZM5.32241 19.8612L4.29866 19.3947L4.29866 19.3947L5.32241 19.8612ZM5.60949 21.058L6.31028 20.178L6.31028 20.178L5.60949 21.058ZM7.81758 22.8163L8.9302 22.9828C8.98965 22.5854 8.83268 22.1865 8.51838 21.9363L7.81758 22.8163ZM7.72701 25.3921L8.3649 26.3188C8.6957 26.0911 8.88003 25.7043 8.84855 25.304L7.72701 25.3921ZM5.40246 26.9923L4.76457 26.0656L4.76457 26.0656L5.40246 26.9923ZM5.03284 28.1663L6.08655 27.7722L5.03284 28.1663ZM6.08985 30.9925L5.03614 31.3866L6.08985 30.9925ZM7.13917 31.6358L7.0124 30.518L7.0124 30.518L7.13917 31.6358ZM9.94309 31.3178L10.8473 30.6485C10.6083 30.3257 10.2154 30.1548 9.81633 30.2L9.94309 31.3178ZM11.7013 33.2019L12.8076 33.4061C12.8806 33.011 12.7373 32.607 12.4317 32.3462L11.7013 33.2019ZM11.1889 35.978L12.2952 36.1822L12.2952 36.1822L11.1889 35.978ZM11.7577 37.0695L12.2241 36.0458L12.2241 36.0458L11.7577 37.0695ZM14.5036 38.3205L14.0371 39.3443L14.0371 39.3443L14.5036 38.3205ZM15.7004 38.0335L16.5805 38.7343L16.5805 38.7343L15.7004 38.0335ZM17.4589 35.8252L17.6253 34.7126C17.228 34.6532 16.8291 34.8101 16.5788 35.1244L17.4589 35.8252ZM20.0345 35.9158L20.9611 35.2779C20.7334 34.9471 20.3467 34.7627 19.9463 34.7942L20.0345 35.9158ZM21.6346 38.2403L20.7079 38.8782L20.7079 38.8782L21.6346 38.2403ZM26.2781 36.5036L25.1603 36.6303L26.2781 36.5036ZM25.9602 33.6997L25.2908 32.7955C24.968 33.0345 24.7971 33.4274 24.8423 33.8264L25.9602 33.6997ZM27.8446 31.941L28.0488 30.8347C27.6537 30.7618 27.2497 30.9051 26.9889 31.2106L27.8446 31.941ZM30.6207 32.4534L30.4165 33.5597L30.4165 33.5597L30.6207 32.4534ZM32.9632 29.1388L31.9395 28.6723L31.9395 28.6723L32.9632 29.1388ZM32.6762 27.9419L33.377 27.0618L33.377 27.0618L32.6762 27.9419ZM30.4676 26.1832L29.355 26.0169C29.2956 26.4142 29.4526 26.8131 29.7668 27.0633L30.4676 26.1832ZM30.5581 23.6081L29.9202 22.6814C29.5894 22.9091 29.405 23.2959 29.4365 23.6963L30.5581 23.6081ZM32.8827 22.0078L32.2448 21.0812L32.2448 21.0812L32.8827 22.0078ZM33.2524 20.8338L32.1986 21.2279L33.2524 20.8338ZM32.1953 18.0076L33.2491 17.6135L32.1953 18.0076ZM31.146 17.3643L31.0193 16.2465L31.146 17.3643ZM28.3418 17.6823L27.4376 18.3517C27.6766 18.6745 28.0695 18.8454 28.4685 18.8001L28.3418 17.6823ZM26.5838 15.7986L25.4775 15.5944C25.4046 15.9895 25.5478 16.3934 25.8534 16.6543L26.5838 15.7986ZM27.0963 13.0221L28.2026 13.2263L28.2026 13.2263L27.0963 13.0221ZM26.5275 11.9305L26.0611 12.9543L26.5275 11.9305ZM23.7816 10.6795L24.2481 9.65579L24.2481 9.65579L23.7816 10.6795ZM22.5848 10.9666L21.7047 10.2658L21.7047 10.2658L22.5848 10.9666ZM20.8261 13.1752L20.6597 14.2878C21.057 14.3473 21.4559 14.1903 21.7061 13.876L20.8261 13.1752ZM18.251 13.0847L17.3243 13.7225C17.552 14.0533 17.9388 14.2377 18.3391 14.2062L18.251 13.0847ZM15.8707 11.4439C15.817 11.464 15.7565 11.445 15.7239 11.3977L17.5773 10.1219C17.0244 9.31873 15.9958 8.9949 15.0825 9.33648L15.8707 11.4439ZM13.0445 12.5009L15.8707 11.4439L15.0825 9.33648L12.2563 10.3935L13.0445 12.5009ZM13.1249 12.3698C13.1314 12.4268 13.0982 12.4808 13.0445 12.5009L12.2563 10.3935C11.343 10.7351 10.7794 11.6544 10.8892 12.6233L13.1249 12.3698ZM13.4429 15.1739L13.1249 12.3698L10.8892 12.6233L11.2072 15.4274L13.4429 15.1739ZM11.2966 17.7893C11.7961 17.2041 12.3642 16.6714 12.9944 16.2048L11.6557 14.3965C10.8867 14.9658 10.194 15.6155 9.58532 16.3285L11.2966 17.7893ZM10.6452 15.9526L7.86913 15.4402L7.46073 17.6528L10.2368 18.1652L10.6452 15.9526ZM7.86913 15.4402C6.91024 15.2632 5.95393 15.7615 5.54966 16.6489L7.59717 17.5817C7.57339 17.6339 7.51714 17.6632 7.46073 17.6528L7.86913 15.4402ZM5.54966 16.6489L4.29866 19.3947L6.34617 20.3276L7.59717 17.5817L5.54966 16.6489ZM4.29866 19.3947C3.89439 20.2821 4.1459 21.3307 4.9087 21.9381L6.31028 20.178C6.35516 20.2137 6.36995 20.2754 6.34617 20.3276L4.29866 19.3947ZM4.9087 21.9381L7.11679 23.6964L8.51838 21.9363L6.31028 20.178L4.9087 21.9381ZM8.84855 25.304C8.78708 24.5221 8.81634 23.7438 8.9302 22.9828L6.70497 22.6499C6.56623 23.5772 6.53047 24.5263 6.60547 25.4803L8.84855 25.304ZM6.04035 27.9189L8.3649 26.3188L7.08912 24.4655L4.76457 26.0656L6.04035 27.9189ZM6.08655 27.7722C6.10665 27.8259 6.0876 27.8864 6.04035 27.9189L4.76457 26.0656C3.96138 26.6185 3.63754 27.6471 3.97912 28.5604L6.08655 27.7722ZM7.14357 30.5984L6.08655 27.7722L3.97912 28.5604L5.03614 31.3866L7.14357 30.5984ZM7.0124 30.518C7.0694 30.5115 7.12348 30.5447 7.14357 30.5984L5.03614 31.3866C5.37772 32.2999 6.29705 32.8635 7.26593 32.7536L7.0124 30.518ZM9.81633 30.2L7.0124 30.518L7.26593 32.7536L10.0699 32.4357L9.81633 30.2ZM12.4317 32.3462C11.8465 31.8467 11.3139 31.2787 10.8473 30.6485L9.03892 31.9872C9.60823 32.7562 10.2579 33.4489 10.971 34.0575L12.4317 32.3462ZM12.2952 36.1822L12.8076 33.4061L10.595 32.9977L10.0826 35.7738L12.2952 36.1822ZM12.2241 36.0458C12.2763 36.0696 12.3056 36.1258 12.2952 36.1822L10.0826 35.7738C9.90562 36.7327 10.4039 37.689 11.2913 38.0933L12.2241 36.0458ZM14.97 37.2968L12.2241 36.0458L11.2913 38.0933L14.0371 39.3443L14.97 37.2968ZM14.8204 37.3327C14.8561 37.2878 14.9178 37.273 14.97 37.2968L14.0371 39.3443C14.9245 39.7486 15.9731 39.4971 16.5805 38.7343L14.8204 37.3327ZM16.5788 35.1244L14.8204 37.3327L16.5805 38.7343L18.3389 36.526L16.5788 35.1244ZM19.9463 34.7942C19.1645 34.8557 18.3863 34.8264 17.6253 34.7126L17.2924 36.9378C18.2197 37.0765 19.1687 37.1123 20.1226 37.0373L19.9463 34.7942ZM22.5613 37.6024L20.9611 35.2779L19.1078 36.5536L20.7079 38.8782L22.5613 37.6024ZM22.4145 37.5562C22.4682 37.5361 22.5287 37.5551 22.5613 37.6024L20.7079 38.8782C21.2608 39.6813 22.2894 40.0052 23.2027 39.6636L22.4145 37.5562ZM25.2407 36.4992L22.4145 37.5562L23.2027 39.6636L26.0289 38.6066L25.2407 36.4992ZM25.1603 36.6303C25.1538 36.5733 25.187 36.5192 25.2407 36.4992L26.0289 38.6066C26.9422 38.265 27.5058 37.3457 27.396 36.3768L25.1603 36.6303ZM24.8423 33.8264L25.1603 36.6303L27.396 36.3768L27.078 33.5729L24.8423 33.8264ZM26.9889 31.2106C26.4893 31.796 25.9212 32.3288 25.2908 32.7955L26.6296 34.6039C27.3987 34.0344 28.0915 33.3846 28.7003 32.6713L26.9889 31.2106ZM30.8249 31.3471L28.0488 30.8347L27.6404 33.0473L30.4165 33.5597L30.8249 31.3471ZM30.6885 31.4182C30.7123 31.366 30.7685 31.3367 30.8249 31.3471L30.4165 33.5597C31.3754 33.7367 32.3317 33.2384 32.736 32.351L30.6885 31.4182ZM31.9395 28.6723L30.6885 31.4182L32.736 32.351L33.987 29.6052L31.9395 28.6723ZM31.9754 28.822C31.9305 28.7862 31.9157 28.7245 31.9395 28.6723L33.987 29.6052C34.3913 28.7178 34.1397 27.6692 33.377 27.0618L31.9754 28.822ZM29.7668 27.0633L31.9754 28.822L33.377 27.0618L31.1684 25.3032L29.7668 27.0633ZM29.4365 23.6963C29.498 24.4779 29.4688 25.256 29.355 26.0169L31.5803 26.3496C31.7189 25.4225 31.7546 24.4736 31.6796 23.5198L29.4365 23.6963ZM32.2448 21.0812L29.9202 22.6814L31.196 24.5347L33.5206 22.9345L32.2448 21.0812ZM32.1986 21.2279C32.1785 21.1742 32.1976 21.1137 32.2448 21.0812L33.5206 22.9345C34.3238 22.3816 34.6476 21.353 34.3061 20.4397L32.1986 21.2279ZM31.1416 18.4017L32.1986 21.2279L34.3061 20.4397L33.2491 17.6135L31.1416 18.4017ZM31.2728 18.4821C31.2158 18.4886 31.1617 18.4554 31.1416 18.4017L33.2491 17.6135C32.9075 16.7002 31.9881 16.1366 31.0193 16.2465L31.2728 18.4821ZM28.4685 18.8001L31.2728 18.4821L31.0193 16.2465L28.215 16.5645L28.4685 18.8001ZM25.8534 16.6543C26.4385 17.1537 26.9711 17.7216 27.4376 18.3517L29.2459 17.0129C28.6767 16.244 28.0271 15.5515 27.3142 14.9429L25.8534 16.6543ZM25.99 12.8179L25.4775 15.5944L27.6901 16.0028L28.2026 13.2263L25.99 12.8179ZM26.0611 12.9543C26.0089 12.9305 25.9796 12.8743 25.99 12.8179L28.2026 13.2263C28.3796 12.2674 27.8813 11.3111 26.9939 10.9068L26.0611 12.9543ZM23.3152 11.7033L26.0611 12.9543L26.9939 10.9068L24.2481 9.65579L23.3152 11.7033ZM23.4648 11.6674C23.4291 11.7123 23.3674 11.7271 23.3152 11.7033L24.2481 9.65579C23.3607 9.25152 22.3121 9.50303 21.7047 10.2658L23.4648 11.6674ZM21.7061 13.876L23.4648 11.6674L21.7047 10.2658L19.946 12.4744L21.7061 13.876ZM18.3391 14.2062C19.1208 14.1448 19.8988 14.174 20.6597 14.2878L20.9925 12.0626C20.0654 11.9239 19.1166 11.8882 18.1628 11.9631L18.3391 14.2062ZM15.7239 11.3977L17.3243 13.7225L19.1776 12.4468L17.5773 10.1219L15.7239 11.3977Z" fill="#001E27"/>
<path d="M19.1426 30C16.105 30 13.6426 27.5376 13.6426 24.5C13.6426 21.4624 16.105 19 19.1426 19C22.1801 19 24.6426 21.4624 24.6426 24.5C24.6426 27.5376 22.1801 30 19.1426 30Z" stroke="#001E27" stroke-width="2.25" stroke-miterlimit="10" stroke-linecap="round" stroke-linejoin="round"/>
<path d="M37.0654 33.6613L35.9986 34.0185L35.9986 34.0185L37.0654 33.6613ZM34.0117 33.9004L32.9023 33.7136L32.9023 33.7136L34.0117 33.9004ZM33.7906 35.2133L34.1844 36.2671C34.5606 36.1266 34.8333 35.7961 34.9 35.4001L33.7906 35.2133ZM32.4445 35.899L31.9428 36.9059C32.3024 37.0851 32.7302 37.0589 33.0652 36.8372L32.4445 35.899ZM31.2525 35.305L31.7542 34.2981L31.7542 34.2981L31.2525 35.305ZM30.0463 35.5504L29.1912 34.8194L30.0463 35.5504ZM29.3169 36.4038L28.4617 35.6729L28.4617 35.6729L29.3169 36.4038ZM29.2623 37.6334L30.1789 36.9811L30.1789 36.9811L29.2623 37.6334ZM30.0345 38.7183L31.0579 39.1855C31.2247 38.82 31.184 38.3932 30.951 38.0659L30.0345 38.7183ZM29.5665 40.1551L29.9237 41.2219C30.3045 41.0943 30.5885 40.7735 30.6688 40.38L29.5665 40.1551ZM28.3042 40.5778L28.6614 41.6446L28.6614 41.6446L28.3042 40.5778ZM27.6248 41.6041L28.7464 41.5163L27.6248 41.6041ZM27.7125 42.7234L26.5909 42.8113L27.7125 42.7234ZM28.5434 43.6315L28.3566 44.7409L28.3566 44.7409L28.5434 43.6315ZM29.856 43.8525L30.9099 43.4588C30.7693 43.0825 30.4389 42.8098 30.0428 42.7431L29.856 43.8525ZM30.5419 45.1988L31.5488 45.7005C31.728 45.3409 31.7018 44.913 31.4801 44.578L30.5419 45.1988ZM29.948 46.3907L30.9549 46.8924L30.9549 46.8924L29.948 46.3907ZM30.1933 47.5968L30.9242 46.7417L30.9242 46.7417L30.1933 47.5968ZM31.0467 48.3263L30.3158 49.1815L30.3158 49.1815L31.0467 48.3263ZM32.2764 48.3809L31.624 47.4643L31.624 47.4643L32.2764 48.3809ZM33.3613 47.6086L33.8284 46.5852C33.463 46.4184 33.0362 46.4591 32.7089 46.6921L33.3613 47.6086ZM34.7977 48.0764L35.8645 47.7192C35.737 47.3384 35.4161 47.0544 35.0226 46.9742L34.7977 48.0764ZM35.2205 49.3387L34.1537 49.696L34.1537 49.696L35.2205 49.3387ZM38.2741 49.0996L39.3835 49.2864L39.3835 49.2864L38.2741 49.0996ZM38.4952 47.7869L38.1014 46.7331C37.7252 46.8736 37.4525 47.2041 37.3858 47.6001L38.4952 47.7869ZM39.8417 47.1009L40.3434 46.094C39.9838 45.9148 39.5559 45.941 39.2208 46.1627L39.8417 47.1009ZM41.0339 47.6949L40.5322 48.7019L40.5322 48.7019L41.0339 47.6949ZM42.24 47.4496L41.3848 46.7187L42.24 47.4496ZM42.9695 46.5962L42.1143 45.8652L42.1143 45.8652L42.9695 46.5962ZM43.024 45.3665L43.9406 44.7142L43.9406 44.7142L43.024 45.3665ZM42.2515 44.2812L41.228 43.8141C41.0612 44.1796 41.102 44.6062 41.3349 44.9335L42.2515 44.2812ZM42.7191 42.845L42.3619 41.7782C41.9811 41.9057 41.6971 42.2266 41.6168 42.6201L42.7191 42.845ZM43.9816 42.4222L43.6244 41.3554L43.6244 41.3554L43.9816 42.4222ZM43.7425 39.3685L43.5557 40.4779L43.5557 40.4779L43.7425 39.3685ZM42.4294 39.1474L41.3756 39.5412C41.5162 39.9174 41.8466 40.1901 42.2426 40.2568L42.4294 39.1474ZM41.7438 37.8016L40.7369 37.2999C40.5577 37.6595 40.5839 38.0873 40.8056 38.4224L41.7438 37.8016ZM42.3379 36.6093L43.3448 37.111L43.3448 37.111L42.3379 36.6093ZM42.0925 35.4032L42.8235 34.548L42.8235 34.548L42.0925 35.4032ZM41.2391 34.6737L41.97 33.8185L41.97 33.8185L41.2391 34.6737ZM40.0095 34.6192L40.6618 35.5357L40.0095 34.6192ZM38.9242 35.3916L38.4571 36.4151C38.8226 36.5819 39.2493 36.5411 39.5766 36.3082L38.9242 35.3916ZM37.4882 34.9239L36.4214 35.2811C36.549 35.6619 36.8698 35.9459 37.2633 36.0262L37.4882 34.9239ZM36.1269 34.1034C36.0697 34.1079 36.0168 34.0729 35.9986 34.0185L38.1321 33.304C37.8225 32.3794 36.9233 31.7842 35.9512 31.8603L36.1269 34.1034ZM35.0076 34.1911L36.1269 34.1034L35.9512 31.8603L34.8319 31.948L35.0076 34.1911ZM35.1211 34.0872C35.1116 34.1438 35.0648 34.1866 35.0076 34.1911L34.8319 31.948C33.8598 32.0241 33.0642 32.7521 32.9023 33.7136L35.1211 34.0872ZM34.9 35.4001L35.1211 34.0872L32.9023 33.7136L32.6813 35.0265L34.9 35.4001ZM33.0652 36.8372C33.4124 36.6076 33.7872 36.4155 34.1844 36.2671L33.3969 34.1594C32.8381 34.3682 32.3112 34.6383 31.8238 34.9607L33.0652 36.8372ZM32.9462 34.8921L31.7542 34.2981L30.7508 36.312L31.9428 36.9059L32.9462 34.8921ZM31.7542 34.2981C30.8814 33.8632 29.8247 34.0782 29.1912 34.8194L30.9015 36.2813C30.8643 36.3249 30.8021 36.3375 30.7508 36.312L31.7542 34.2981ZM29.1912 34.8194L28.4617 35.6729L30.172 37.1348L30.9015 36.2813L29.1912 34.8194ZM28.4617 35.6729C27.8281 36.4141 27.7803 37.4914 28.3458 38.2858L30.1789 36.9811C30.2121 37.0278 30.2093 37.0912 30.172 37.1348L28.4617 35.6729ZM28.3458 38.2858L29.1179 39.3706L30.951 38.0659L30.1789 36.9811L28.3458 38.2858ZM30.6688 40.38C30.7536 39.9644 30.885 39.5642 31.0579 39.1855L29.0111 38.2511C28.7683 38.7828 28.5835 39.3455 28.4642 39.9302L30.6688 40.38ZM28.6614 41.6446L29.9237 41.2219L29.2092 39.0883L27.947 39.511L28.6614 41.6446ZM28.7464 41.5163C28.7508 41.5735 28.7158 41.6264 28.6614 41.6446L27.947 39.511C27.0223 39.8207 26.4271 40.7199 26.5032 41.692L28.7464 41.5163ZM28.834 42.6356L28.7464 41.5163L26.5032 41.692L26.5909 42.8113L28.834 42.6356ZM28.7302 42.5221C28.7867 42.5316 28.8295 42.5784 28.834 42.6356L26.5909 42.8113C26.667 43.7834 27.395 44.5789 28.3566 44.7409L28.7302 42.5221ZM30.0428 42.7431L28.7302 42.5221L28.3566 44.7409L29.6692 44.9619L30.0428 42.7431ZM31.4801 44.578C31.2504 44.2308 31.0583 43.856 30.9099 43.4588L28.8022 44.2462C29.011 44.8052 29.2811 45.3321 29.6036 45.8196L31.4801 44.578ZM30.9549 46.8924L31.5488 45.7005L29.5349 44.6971L28.941 45.889L30.9549 46.8924ZM30.9242 46.7417C30.9678 46.7789 30.9805 46.8411 30.9549 46.8924L28.941 45.889C28.5062 46.7617 28.7211 47.8185 29.4623 48.452L30.9242 46.7417ZM31.7777 47.4711L30.9242 46.7417L29.4623 48.452L30.3158 49.1815L31.7777 47.4711ZM31.624 47.4643C31.6707 47.4311 31.7341 47.4339 31.7777 47.4711L30.3158 49.1815C31.057 49.815 32.1343 49.8628 32.9287 49.2974L31.624 47.4643ZM32.7089 46.6921L31.624 47.4643L32.9287 49.2974L34.0137 48.5252L32.7089 46.6921ZM35.0226 46.9742C34.6072 46.8894 34.2071 46.758 33.8284 46.5852L32.8942 48.6321C33.4258 48.8747 33.9883 49.0595 34.5728 49.1787L35.0226 46.9742ZM36.2872 48.9815L35.8645 47.7192L33.731 48.4337L34.1537 49.696L36.2872 48.9815ZM36.1589 48.8966C36.2161 48.8921 36.269 48.9271 36.2872 48.9815L34.1537 49.696C34.4633 50.6206 35.3625 51.2158 36.3346 51.1397L36.1589 48.8966ZM37.2782 48.8089L36.1589 48.8966L36.3346 51.1397L37.4539 51.052L37.2782 48.8089ZM37.1647 48.9128C37.1743 48.8562 37.2211 48.8134 37.2782 48.8089L37.4539 51.052C38.4261 50.9759 39.2216 50.2479 39.3835 49.2864L37.1647 48.9128ZM37.3858 47.6001L37.1647 48.9128L39.3835 49.2864L39.6045 47.9737L37.3858 47.6001ZM39.2208 46.1627C38.8736 46.3925 38.4987 46.5846 38.1014 46.7331L38.8889 48.8407C39.448 48.6319 39.975 48.3617 40.4625 48.0391L39.2208 46.1627ZM41.5356 46.688L40.3434 46.094L39.34 48.1078L40.5322 48.7019L41.5356 46.688ZM41.3848 46.7187C41.4221 46.6751 41.4842 46.6624 41.5356 46.688L40.5322 48.7019C41.4049 49.1367 42.4616 48.9218 43.0952 48.1806L41.3848 46.7187ZM42.1143 45.8652L41.3848 46.7187L43.0952 48.1806L43.8247 47.3271L42.1143 45.8652ZM42.1075 46.0189C42.0742 45.9722 42.077 45.9088 42.1143 45.8652L43.8247 47.3271C44.4582 46.5859 44.506 45.5086 43.9406 44.7142L42.1075 46.0189ZM41.3349 44.9335L42.1075 46.0189L43.9406 44.7142L43.168 43.6288L41.3349 44.9335ZM41.6168 42.6201C41.5321 43.0355 41.4008 43.4355 41.228 43.8141L43.2749 44.7482C43.5175 44.2167 43.7022 43.6543 43.8214 43.0698L41.6168 42.6201ZM43.6244 41.3554L42.3619 41.7782L43.0764 43.9118L44.3389 43.489L43.6244 41.3554ZM43.5395 41.4837C43.535 41.4265 43.57 41.3736 43.6244 41.3554L44.3389 43.489C45.2635 43.1793 45.8587 42.2801 45.7826 41.308L43.5395 41.4837ZM43.4518 40.3644L43.5395 41.4837L45.7826 41.308L45.6949 40.1887L43.4518 40.3644ZM43.5557 40.4779C43.4991 40.4684 43.4563 40.4216 43.4518 40.3644L45.6949 40.1887C45.6188 39.2166 44.8908 38.4211 43.9293 38.2592L43.5557 40.4779ZM42.2426 40.2568L43.5557 40.4779L43.9293 38.2592L42.6162 38.0381L42.2426 40.2568ZM40.8056 38.4224C41.0352 38.7694 41.2272 39.1441 41.3756 39.5412L43.4833 38.7537C43.2745 38.1949 43.0044 37.6681 42.682 37.1808L40.8056 38.4224ZM41.3309 36.1076L40.7369 37.2999L42.7507 38.3033L43.3448 37.111L41.3309 36.1076ZM41.3616 36.2584C41.318 36.2211 41.3054 36.1589 41.3309 36.1076L43.3448 37.111C43.7797 36.2383 43.5647 35.1815 42.8235 34.548L41.3616 36.2584ZM40.5081 35.5289L41.3616 36.2584L42.8235 34.548L41.97 33.8185L40.5081 35.5289ZM40.6618 35.5357C40.6151 35.569 40.5517 35.5661 40.5081 35.5289L41.97 33.8185C41.2288 33.185 40.1515 33.1372 39.3571 33.7026L40.6618 35.5357ZM39.5766 36.3082L40.6618 35.5357L39.3571 33.7026L38.2718 34.4751L39.5766 36.3082ZM37.2633 36.0262C37.6786 36.1109 38.0785 36.2423 38.4571 36.4151L39.3913 34.3682C38.8599 34.1256 38.2975 33.9409 37.7132 33.8216L37.2633 36.0262ZM35.9986 34.0185L36.4214 35.2811L38.555 34.5667L38.1321 33.304L35.9986 34.0185Z" fill="#FF601F"/>
<path d="M36.1426 44C34.7619 44 33.6426 42.8807 33.6426 41.5C33.6426 40.1193 34.7619 39 36.1426 39C37.5233 39 38.6426 40.1193 38.6426 41.5C38.6426 42.8807 37.5233 44 36.1426 44Z" stroke="#FF601F" stroke-width="2.25" stroke-miterlimit="10" stroke-linecap="round" stroke-linejoin="round"/>
</g>
<defs>
<clipPath id="clip0_1992_46228">
<rect width="48" height="48" fill="white" transform="translate(0.642578 6)"/>
</clipPath>
</defs>
</svg>
