<svg width="53" height="60" viewBox="0 0 53 60" fill="none" xmlns="http://www.w3.org/2000/svg">
<path d="M51.4151 27.8086C53.2616 28.8573 53.2616 31.4789 51.4151 32.5276L4.15475 59.367C2.3082 60.4157 -9.17602e-08 59.1048 0 57.0075L2.34849e-06 3.32869C2.44025e-06 1.23135 2.3082 -0.0794905 4.15476 0.96918L51.4151 27.8086Z" fill="#FFECE4"/>
<path fill-rule="evenodd" clip-rule="evenodd" d="M34.2676 10C34.2676 9.37868 33.7639 8.875 33.1426 8.875C32.5213 8.875 32.0176 9.37868 32.0176 10V11.875H16.2676V10C16.2676 9.37868 15.7639 8.875 15.1426 8.875C14.5213 8.875 14.0176 9.37868 14.0176 10V11.875H10.9204C8.21263 11.875 6.01758 14.07 6.01758 16.7778V21V43.2222C6.01758 45.93 8.21263 48.125 10.9204 48.125H37.3648C40.0725 48.125 42.2676 45.93 42.2676 43.2222V21V16.7778C42.2676 14.07 40.0725 11.875 37.3648 11.875H34.2676V10ZM40.0176 19.875V16.7778C40.0176 15.3127 38.8299 14.125 37.3648 14.125H34.2676V16C34.2676 16.6213 33.7639 17.125 33.1426 17.125C32.5213 17.125 32.0176 16.6213 32.0176 16V14.125H16.2676V16C16.2676 16.6213 15.7639 17.125 15.1426 17.125C14.5213 17.125 14.0176 16.6213 14.0176 16V14.125H10.9204C9.45527 14.125 8.26758 15.3127 8.26758 16.7778V19.875H40.0176ZM8.26758 22.125H40.0176V43.2222C40.0176 44.6873 38.8299 45.875 37.3648 45.875H10.9204C9.45527 45.875 8.26758 44.6873 8.26758 43.2222V22.125Z" fill="#001E27"/>
<path d="M14.1426 33.9463C14.1426 31.4837 14.615 29.5436 15.5599 28.1262C16.5191 26.7087 18.0581 26 20.1769 26C22.2957 26 23.8275 26.7087 24.7724 28.1262C25.7316 29.5436 26.2112 31.4837 26.2112 33.9463C26.2112 36.4376 25.7316 38.3919 24.7724 39.8094C23.8275 41.2268 22.2957 41.9356 20.1769 41.9356C18.0581 41.9356 16.5191 41.2268 15.5599 39.8094C14.615 38.3919 14.1426 36.4376 14.1426 33.9463ZM22.6035 33.9463C22.6035 32.5002 22.446 31.3906 22.131 30.6175C21.8161 29.83 21.1647 29.4362 20.1769 29.4362C19.189 29.4362 18.5377 29.83 18.2227 30.6175C17.9077 31.3906 17.7503 32.5002 17.7503 33.9463C17.7503 34.9199 17.8075 35.7289 17.9221 36.3732C18.0366 37.0031 18.2657 37.5186 18.6092 37.9195C18.9671 38.306 19.4897 38.4993 20.1769 38.4993C20.864 38.4993 21.3794 38.306 21.723 37.9195C22.0809 37.5186 22.3171 37.0031 22.4317 36.3732C22.5462 35.7289 22.6035 34.9199 22.6035 33.9463Z" fill="#FF601F"/>
<path d="M28.1942 29.7369V26.3221H34.1426V42H30.3201V29.7369H28.1942Z" fill="#FF601F"/>
</svg>
