<svg width="53" height="60" viewBox="0 0 53 60" fill="none" xmlns="http://www.w3.org/2000/svg">
<path d="M51.4151 27.8086C53.2616 28.8573 53.2616 31.4789 51.4151 32.5276L4.15475 59.367C2.3082 60.4157 -9.17602e-08 59.1048 0 57.0075L2.34849e-06 3.32869C2.44025e-06 1.23135 2.3082 -0.0794905 4.15476 0.96918L51.4151 27.8086Z" fill="#FFECE4"/>
<path d="M38.1426 10L12.1426 10C7.7243 10 4.14258 13.5817 4.14258 18V49C4.14258 49.5523 4.59029 50 5.14258 50H30.6426C31.1949 50 31.6426 49.5523 31.6426 49V21.1098M38.1426 10C31.612 9.99875 31.6386 16.3959 31.6424 16.6572C31.6426 16.6655 31.6426 16.6696 31.6426 16.6779V21.1098M38.1426 10V10C41.4563 10 44.1426 12.6863 44.1426 16V16.6654V20.1098C44.1426 20.6621 43.6949 21.1098 43.1426 21.1098H31.6426" stroke="#001E27" stroke-width="2.25"/>
<path fill-rule="evenodd" clip-rule="evenodd" d="M19.3017 16.9285C19.9593 17.0686 20.5503 17.3387 21.0341 17.7426C21.796 18.3788 22.2108 19.2838 22.2108 20.2829H19.9608C19.9608 19.9352 19.8301 19.6685 19.592 19.4697C19.3387 19.2583 18.8866 19.0645 18.1767 19.0645H18.1683L18.1683 19.0645C17.4639 19.0593 17.015 19.252 16.7631 19.4632C16.5245 19.6633 16.3926 19.9337 16.3926 20.2829C16.3926 20.479 16.4725 20.6585 16.7676 20.8407C17.0925 21.0413 17.6012 21.178 18.1767 21.178C19.0557 21.178 20.0016 21.3779 20.7676 21.8508C21.5634 22.342 22.2108 23.1725 22.2108 24.3232C22.2108 25.3222 21.796 26.2272 21.0341 26.8634C20.5503 27.2674 19.9593 27.5374 19.3017 27.6776V28.6061H17.0517V27.6824C16.3928 27.5437 15.8013 27.2726 15.3175 26.8671C14.5561 26.2287 14.1426 25.3207 14.1426 24.3232H16.3926C16.3926 24.6724 16.5245 24.9428 16.7631 25.1428C17.015 25.3541 17.4639 25.5468 18.1683 25.5416L18.1767 25.5415V25.5415C18.8866 25.5415 19.3387 25.3478 19.592 25.1363C19.8301 24.9376 19.9608 24.6709 19.9608 24.3232C19.9608 24.1271 19.8808 23.9475 19.5858 23.7654C19.2608 23.5648 18.7522 23.428 18.1767 23.428C17.2976 23.428 16.3517 23.2281 15.5858 22.7553C14.7899 22.2641 14.1426 21.4335 14.1426 20.2829C14.1426 19.2853 14.5561 18.3774 15.3175 17.739C15.8013 17.3334 16.3928 17.0623 17.0517 16.9237V16H19.3017V16.9285ZM10.1426 31H25.1426V33H10.1426V31ZM25.1426 35H10.1426V37H25.1426V35ZM10.1426 39H25.1426V41H10.1426V39ZM10.1426 43H25.1426V45H10.1426V43Z" fill="#FF601F"/>
</svg>
