<svg width="54" height="60" viewBox="0 0 54 60" fill="none" xmlns="http://www.w3.org/2000/svg">
<path d="M51.9151 27.8086C53.7616 28.8573 53.7616 31.4789 51.9151 32.5276L4.65475 59.367C2.8082 60.4157 0.5 59.1048 0.5 57.0075L0.500002 3.32869C0.500002 1.23135 2.8082 -0.0794905 4.65476 0.96918L51.9151 27.8086Z" fill="#FFECE4"/>
<path fill-rule="evenodd" clip-rule="evenodd" d="M23.5176 17.8908V15H25.7676V18.0148C26.6596 18.1783 27.4559 18.4887 28.1083 18.9625C29.1761 19.7379 29.7676 20.8903 29.7676 22.25H27.5176C27.5176 21.6036 27.2653 21.1311 26.7862 20.7831C26.267 20.4061 25.4017 20.1252 24.1426 20.1252H24.1346V20.1252C22.8807 20.1163 22.0184 20.3967 21.5009 20.7742C21.0213 21.124 20.7676 21.6019 20.7676 22.25C20.7676 22.7784 21.0501 23.2766 21.6723 23.6908C22.3059 24.1126 23.2068 24.3749 24.1426 24.3749C25.4568 24.3749 26.8059 24.7346 27.8598 25.4361C28.9251 26.1454 29.7676 27.2722 29.7676 28.7498C29.7676 30.1095 29.1761 31.2619 28.1084 32.0373C27.4559 32.5111 26.6596 32.8216 25.7676 32.9852V36H23.5176V33.1091C22.2169 33.0341 21.0626 32.691 20.1749 32.0434C19.1076 31.2648 18.5176 30.1078 18.5176 28.7498H20.7676C20.7676 29.3979 21.0213 29.8759 21.5009 30.2257C22.0185 30.6033 22.8807 30.8837 24.1346 30.8748L24.1426 30.8747V30.8747C25.4016 30.8747 26.267 30.5939 26.7862 30.2168C27.2653 29.8688 27.5176 29.3962 27.5176 28.7498C27.5176 28.2214 27.235 27.7232 26.6129 27.309C25.9792 26.8872 25.0783 26.6249 24.1426 26.6249C22.8283 26.6249 21.4792 26.2652 20.4254 25.5637C19.36 24.8544 18.5176 23.7276 18.5176 22.25C18.5176 20.892 19.1076 19.735 20.1749 18.9564C21.0626 18.3089 22.217 17.9658 23.5176 17.8908Z" fill="#FF601F"/>
<path fill-rule="evenodd" clip-rule="evenodd" d="M10.6426 8.875C8.91669 8.875 7.51758 10.2741 7.51758 12V45.5V46C7.51758 48.8305 9.81212 51.125 12.6426 51.125H13.1426H38.6426C38.9144 51.125 39.1637 51.0286 39.3582 50.8681C39.412 50.8237 39.4616 50.7744 39.5063 50.7208C39.6579 50.5394 39.7534 50.3096 39.7661 50.0579C39.7671 50.0387 39.7676 50.0194 39.7676 50C39.7676 49.9751 39.7668 49.9505 39.7652 49.926C39.7603 49.8515 39.7483 49.779 39.7296 49.7092L39.7167 49.6545C39.7044 49.6021 39.6864 49.5228 39.6645 49.4205C39.6206 49.2158 39.5615 48.9204 39.5023 48.5651C39.3828 47.8482 39.2676 46.915 39.2676 46C39.2676 45.0728 39.3851 43.8798 39.5089 42.8895C39.57 42.4006 39.6312 41.9725 39.677 41.6669C39.6872 41.5986 39.6967 41.5366 39.7052 41.4814C39.7456 41.3654 39.7676 41.2408 39.7676 41.1111V41.0046C39.7676 41.0015 39.7676 40.9984 39.7676 40.9954V10C39.7676 9.37868 39.2639 8.875 38.6426 8.875H10.6426ZM37.5176 39.875V11.125H10.6426C10.1593 11.125 9.76758 11.5168 9.76758 12V40.9996C10.7077 40.2934 11.8763 39.875 13.1426 39.875H37.5176ZM13.1426 48.875C11.2786 48.875 9.76758 47.364 9.76758 45.5C9.76758 43.636 11.2786 42.125 13.1426 42.125H37.3393C37.3187 42.2782 37.2975 42.4408 37.2763 42.6105C37.15 43.6202 37.0176 44.9272 37.0176 46C37.0176 47.0576 37.1456 48.0979 37.273 48.875H13.1426Z" fill="#001E27"/>
</svg>
