<svg width="54" height="60" viewBox="0 0 54 60" fill="none" xmlns="http://www.w3.org/2000/svg">
<path d="M51.9151 27.8086C53.7616 28.8573 53.7616 31.4789 51.9151 32.5276L4.65475 59.367C2.8082 60.4157 0.5 59.1048 0.5 57.0075L0.500002 3.32869C0.500002 1.23135 2.8082 -0.0794905 4.65476 0.96918L51.9151 27.8086Z" fill="#FFECE4"/>
<path fill-rule="evenodd" clip-rule="evenodd" d="M16.5236 25.2861C16.5236 18.3968 22.1084 12.812 28.9977 12.812C35.8869 12.812 41.4717 18.3968 41.4717 25.2861C41.4717 32.1753 35.8869 37.7602 28.9977 37.7602C22.1084 37.7602 16.5236 32.1753 16.5236 25.2861ZM28.9977 10.562C20.8658 10.562 14.2736 17.1542 14.2736 25.2861C14.2736 29.0386 15.6773 32.4632 17.9883 35.0635L4.84717 48.2046L6.43816 49.7956L19.6066 36.6271C22.1555 38.74 25.4282 40.0102 28.9977 40.0102C37.1296 40.0102 43.7217 33.418 43.7217 25.2861C43.7217 17.1542 37.1296 10.562 28.9977 10.562Z" fill="#001E27"/>
<path d="M38.6426 25.5C38.6426 20.2533 34.3893 16 29.1426 16" stroke="#FF601F" stroke-width="2.25" stroke-miterlimit="10" stroke-linecap="square" stroke-linejoin="round"/>
</svg>
