<svg width="53" height="60" viewBox="0 0 53 60" fill="none" xmlns="http://www.w3.org/2000/svg">
<path d="M51.4151 27.8086C53.2616 28.8573 53.2616 31.4789 51.4151 32.5276L4.15475 59.367C2.3082 60.4157 -9.17602e-08 59.1048 0 57.0075L2.34849e-06 3.32869C2.44025e-06 1.23135 2.3082 -0.0794905 4.15476 0.96918L51.4151 27.8086Z" fill="#FFECE4"/>
<path fill-rule="evenodd" clip-rule="evenodd" d="M10.0801 18.6304L6.08008 30.1304L8.2052 30.8695L12.2052 19.3695L10.0801 18.6304ZM36.061 19.809L40.061 33.809L42.2244 33.1909L38.2244 19.1909L36.061 19.809Z" fill="#FF601F"/>
<path fill-rule="evenodd" clip-rule="evenodd" d="M6.62487 17.4444C7.03657 16.2284 8.42437 15.6523 9.57624 16.2194L13.2274 18.0169C13.8688 18.3326 14.6047 18.3981 15.2918 18.2005L19.4483 17.0053C20.5097 16.7001 21.6413 16.7459 22.6745 17.1359L24.1881 17.7073L27.0994 16.4358C28.4798 15.833 30.0555 15.8679 31.4078 16.5313L34.2414 17.9213C34.9671 18.2773 35.8091 18.3114 36.5612 18.0152L38.9299 17.0823C40.1084 16.6182 41.4286 17.2815 41.7597 18.504L45.2603 31.4293C45.5558 32.5202 44.9457 33.6514 43.8719 34.0038L39.2601 35.5175C38.9989 35.6032 38.7514 35.7259 38.5251 35.8819L30.9184 41.1246L29.501 42.1016C28.9903 42.4536 28.4199 42.71 27.8176 42.8582L26.3103 43.2292C24.831 43.5934 23.2664 43.2805 22.0409 42.3755L19.9041 40.7976C17.1559 41.2222 14.6204 39.3739 14.0997 36.7345C11.7592 36.5649 9.81089 34.8145 9.41852 32.4684L9.38715 32.2809L8.51829 31.6431L4.48935 30.0563C3.43485 29.641 2.89185 28.4712 3.25527 27.3977L6.62487 17.4444ZM11.6504 32.1678C11.9104 33.5171 13.0925 34.498 14.4733 34.498H14.809L22.6192 29.6917L23.7984 31.608L16.2944 36.2258C16.5621 37.7814 18.072 38.8697 19.6829 38.5525L19.7616 38.537L27.6701 33.6703L28.8493 35.5865L22.1869 39.6864L23.3775 40.5655C24.0649 41.0732 24.9427 41.2487 25.7725 41.0444L27.2798 40.6734C27.6176 40.5903 27.9376 40.4464 28.2241 40.249L29.6416 39.272L37.2482 34.0293C37.6516 33.7512 38.0929 33.5325 38.5584 33.3797L43.0576 31.903L39.6245 19.227L37.3857 20.1087C36.0451 20.6367 34.5441 20.576 33.2505 19.9414L30.4168 18.5513C29.6582 18.1791 28.7743 18.1596 28 18.4977L26.9736 18.946L29.4313 20.0719C30.6339 20.6228 31.405 21.8242 31.405 23.147C31.405 23.6793 31.2794 24.204 31.0384 24.6786L30.9126 24.9264C29.7248 27.2654 26.8088 28.1154 24.5502 26.7811L24.0351 26.4768C23.392 26.0969 22.6257 25.9841 21.9005 26.1627L20.1385 26.5964C19.8051 26.6785 19.489 26.8196 19.2053 27.0132L11.6504 32.1678ZM23.7855 19.9603L21.8799 19.241C21.3003 19.0222 20.6655 18.9965 20.0701 19.1677L15.9136 20.3629C14.6889 20.7151 13.3769 20.5983 12.2336 20.0355L8.71034 18.301L5.42463 28.0065L9.35789 29.5556C9.52818 29.6226 9.68909 29.7114 9.83662 29.8197L10.4451 30.2664L17.9372 25.1546C18.4429 24.8095 19.0063 24.5579 19.6007 24.4116L21.3627 23.9779C22.6595 23.6587 24.0297 23.8603 25.1795 24.5396L25.6946 24.8439C26.8348 25.5175 28.3068 25.0884 28.9064 23.9076L29.0323 23.6598C29.113 23.5009 29.155 23.3252 29.155 23.147C29.155 22.7042 28.8968 22.3019 28.4942 22.1174L23.7855 19.9603Z" fill="#001E27"/>
</svg>
