<svg width="54" height="60" viewBox="0 0 54 60" fill="none" xmlns="http://www.w3.org/2000/svg">
<path d="M51.9151 27.8086C53.7616 28.8573 53.7616 31.4789 51.9151 32.5276L4.65475 59.367C2.8082 60.4157 0.5 59.1048 0.5 57.0075L0.500002 3.32869C0.500002 1.23135 2.8082 -0.0794905 4.65476 0.96918L51.9151 27.8086Z" fill="#FFECE4"/>
<path fill-rule="evenodd" clip-rule="evenodd" d="M31.9377 16.9644C30.3907 15.5693 28.2842 14.7139 25.7814 14.5181V10H23.5314V14.5106C21.027 14.6919 18.9201 15.5489 17.3736 16.9492C15.5929 18.5616 14.6426 20.8175 14.6426 23.3332C14.6426 25.9918 15.9954 27.9853 17.9213 29.2693C19.8139 30.531 22.2674 31.1249 24.6565 31.1249C26.7118 31.1249 28.7028 31.6421 30.1436 32.6026C31.5509 33.5408 32.4204 34.8807 32.4204 36.6665C32.4204 38.594 31.705 40.2154 30.4308 41.3644C29.1489 42.5205 27.2136 43.2749 24.6565 43.2748L24.6475 43.2749C22.0964 43.2953 20.1646 42.5423 18.8838 41.3826C17.609 40.2283 16.8926 38.5953 16.8926 36.6665H14.6426C14.6426 39.1822 15.5929 41.4381 17.3736 43.0505C18.9201 44.4508 21.027 45.3078 23.5314 45.4891V50H25.7814V45.4817C28.2842 45.2858 30.3907 44.4304 31.9377 43.0353C33.7191 41.4288 34.6704 39.1836 34.6704 36.6665C34.6704 34.0079 33.3176 32.0144 31.3916 30.7305C29.499 29.4687 27.0456 28.8749 24.6565 28.8749C22.6011 28.8749 20.6101 28.3576 19.1694 27.3971C17.762 26.4589 16.8926 25.119 16.8926 23.3332C16.8926 21.4044 17.609 19.7714 18.8838 18.6171C20.1646 17.4574 22.0964 16.7044 24.6475 16.7248V16.7248H24.6565C27.2136 16.7248 29.1489 17.4792 30.4308 18.6353C31.705 19.7844 32.4204 21.4058 32.4204 23.3332H34.6704C34.6704 20.8162 33.7191 18.5709 31.9377 16.9644Z" fill="#001E27"/>
</svg>
