<svg width="54" height="60" viewBox="0 0 54 60" fill="none" xmlns="http://www.w3.org/2000/svg">
<path d="M51.9151 27.8086C53.7616 28.8573 53.7616 31.4789 51.9151 32.5276L4.65475 59.367C2.8082 60.4157 0.5 59.1048 0.5 57.0075L0.500002 3.32869C0.500002 1.23135 2.8082 -0.0794905 4.65476 0.96918L51.9151 27.8086Z" fill="#FFECE4"/>
<path fill-rule="evenodd" clip-rule="evenodd" d="M6.51758 14C6.51758 12.8264 7.46897 11.875 8.64258 11.875H40.6426C41.8162 11.875 42.7676 12.8264 42.7676 14V46C42.7676 47.1736 41.8162 48.125 40.6426 48.125H8.64258C7.46898 48.125 6.51758 47.1736 6.51758 46V14ZM8.76758 14.125V45.875H40.5176V14.125H8.76758Z" fill="#001E27"/>
<path fill-rule="evenodd" clip-rule="evenodd" d="M11.6426 19.125H37.6426V16.875H11.6426V19.125ZM17.3497 38.7071L16.0568 40L17.3497 41.2929L15.9355 42.7071L14.6426 41.4142L13.3497 42.7071L11.9355 41.2929L13.2283 40L11.9355 38.7071L13.3497 37.2929L14.6426 38.5858L15.9355 37.2929L17.3497 38.7071ZM37.6426 23.125H11.6426V20.875H37.6426V23.125ZM11.6426 27.125H37.6426V24.875H11.6426V27.125ZM37.6426 31.125H11.6426V28.875H37.6426V31.125ZM19.6426 43.125L37.6426 43.125V40.875L19.6426 40.875V43.125Z" fill="#FF601F"/>
</svg>
