<svg width="32" height="32" viewBox="0 0 32 32" fill="none" xmlns="http://www.w3.org/2000/svg">
<path fill-rule="evenodd" clip-rule="evenodd" d="M16.0095 5.00113C9.92966 5.00113 5.00098 9.92981 5.00098 16.0097C5.00098 22.0895 9.92966 27.0182 16.0095 27.0182C22.0893 27.0182 27.018 22.0895 27.018 16.0097C27.018 9.92981 22.0893 5.00113 16.0095 5.00113ZM3.00098 16.0097C3.00098 8.82524 8.82509 3.00113 16.0095 3.00113C23.1939 3.00113 29.018 8.82524 29.018 16.0097C29.018 23.1941 23.1939 29.0182 16.0095 29.0182C8.82509 29.0182 3.00098 23.1941 3.00098 16.0097ZM15.0094 22.0139V13.0075H17.0094V22.0139H15.0094ZM15.9498 11.9999C16.6402 11.9999 17.1998 11.4403 17.1998 10.7499C17.1998 10.0596 16.6402 9.49991 15.9498 9.49991C15.2595 9.49991 14.6998 10.0596 14.6998 10.7499C14.6998 11.4403 15.2595 11.9999 15.9498 11.9999Z" fill="#001E27"/>
</svg>
