<svg width="53" height="60" viewBox="0 0 53 60" fill="none" xmlns="http://www.w3.org/2000/svg">
<path d="M51.4151 27.8086C53.2616 28.8573 53.2616 31.4789 51.4151 32.5276L4.15475 59.367C2.3082 60.4157 -9.17602e-08 59.1048 0 57.0075L2.34849e-06 3.32869C2.44025e-06 1.23135 2.3082 -0.0794905 4.15476 0.96918L51.4151 27.8086Z" fill="#FFECE4"/>
<path fill-rule="evenodd" clip-rule="evenodd" d="M21.6426 42.7895V44.5L9.64258 38V36.5L21.6426 42.7895ZM26.6426 42.7895V44.5L38.6426 38V36.5L26.6426 42.7895Z" fill="#FF601F"/>
<path d="M21.6426 44.5L21.4044 44.9396L22.1426 45.3395V44.5H21.6426ZM21.6426 42.7895H22.1426V42.487L21.8747 42.3466L21.6426 42.7895ZM9.64258 38H9.14258V38.2978L9.40444 38.4396L9.64258 38ZM9.64258 36.5L9.87469 36.0571L9.14258 35.6734V36.5H9.64258ZM26.6426 44.5H26.1426V45.3395L26.8807 44.9396L26.6426 44.5ZM26.6426 42.7895L26.4105 42.3466L26.1426 42.487V42.7895H26.6426ZM38.6426 38L38.8807 38.4396L39.1426 38.2978V38H38.6426ZM38.6426 36.5H39.1426V35.6734L38.4105 36.0571L38.6426 36.5ZM22.1426 44.5V42.7895H21.1426V44.5H22.1426ZM9.40444 38.4396L21.4044 44.9396L21.8807 44.0604L9.88072 37.5604L9.40444 38.4396ZM9.14258 36.5V38H10.1426V36.5H9.14258ZM21.8747 42.3466L9.87469 36.0571L9.41047 36.9429L21.4105 43.2323L21.8747 42.3466ZM27.1426 44.5V42.7895H26.1426V44.5H27.1426ZM38.4044 37.5604L26.4044 44.0604L26.8807 44.9396L38.8807 38.4396L38.4044 37.5604ZM38.1426 36.5V38H39.1426V36.5H38.1426ZM26.8747 43.2323L38.8747 36.9429L38.4105 36.0571L26.4105 42.3466L26.8747 43.2323Z" fill="#FF601F"/>
<path fill-rule="evenodd" clip-rule="evenodd" d="M23.2168 10.2817C23.8643 9.91032 24.6591 9.90588 25.3107 10.27L41.8164 19.4938C42.1722 19.6926 42.3926 20.0683 42.3926 20.4759V38.8891C42.3926 39.659 41.9762 40.3686 41.3042 40.7441L25.3043 49.6853C24.6601 50.0453 23.8752 50.0453 23.231 49.6853L7.23096 40.7441C6.55894 40.3686 6.14258 39.659 6.14258 38.8891V20.4759C6.14258 20.064 6.36767 19.685 6.72936 19.488L15.4373 14.7439L23.2168 10.2817ZM15.9722 17.0147L9.59614 20.4884L24.2604 28.6831L30.2879 25.2259L15.9722 17.0147ZM33.0981 26.2079L25.3927 30.6275V47.0584L40.1426 38.8158V22.3699L33.0981 26.2079ZM38.939 20.4634L32.5631 23.937L18.2474 15.7259L24.2749 12.2686L38.939 20.4634ZM23.1427 47.0585L8.39258 38.8158V22.3933L23.1427 30.6359V47.0585Z" fill="#001E27"/>
</svg>
