<svg width="53" height="60" viewBox="0 0 53 60" fill="none" xmlns="http://www.w3.org/2000/svg">
<path d="M51.4151 27.8086C53.2616 28.8573 53.2616 31.4789 51.4151 32.5276L4.15475 59.367C2.3082 60.4157 -9.17602e-08 59.1048 0 57.0075L2.34849e-06 3.32869C2.44025e-06 1.23135 2.3082 -0.0794905 4.15476 0.96918L51.4151 27.8086Z" fill="#FFECE4"/>
<path fill-rule="evenodd" clip-rule="evenodd" d="M6.01758 14C6.01758 12.8264 6.96897 11.875 8.14258 11.875H40.1426C41.3162 11.875 42.2676 12.8264 42.2676 14V36.375C42.2676 36.6734 42.1491 36.9595 41.9381 37.1705L31.3131 47.7955C31.1021 48.0065 30.8159 48.125 30.5176 48.125H8.14258C6.96897 48.125 6.01758 47.1736 6.01758 46V14ZM8.26758 14.125V45.875H29.3926V37.375C29.3926 36.2014 30.344 35.25 31.5176 35.25H40.0176V14.125H8.26758ZM38.4266 37.5H31.6426V44.284L38.4266 37.5Z" fill="#001E27"/>
<path fill-rule="evenodd" clip-rule="evenodd" d="M13.1426 20.125H35.1426V17.875H13.1426V20.125ZM13.1426 24.125H35.1426V21.875H13.1426V24.125ZM26.1426 28.125H13.1426V25.875H26.1426V28.125ZM15.1426 35.8797C15.1426 35.5754 15.2442 35.3717 15.3731 35.2457C15.5004 35.1211 15.7323 34.9966 16.1339 35.0001L16.1339 35.0001H16.1426C16.5502 35.0001 16.7854 35.1263 16.9135 35.2511C17.0417 35.376 17.1426 35.5764 17.1426 35.8797H19.1426C19.1426 35.1027 18.8684 34.3634 18.3091 33.8185C17.982 33.4999 17.5846 33.274 17.1426 33.1414V32H15.1426V33.1372C14.6994 33.2692 14.3016 33.4961 13.9746 33.8159C13.4159 34.3623 13.1426 35.1038 13.1426 35.8797C13.1426 36.7733 13.5743 37.4679 14.1832 37.9064C14.7626 38.3236 15.4793 38.5 16.1426 38.5C16.4793 38.5 16.7626 38.5937 16.9332 38.7166C17.0743 38.8182 17.1426 38.9338 17.1426 39.1203C17.1426 39.4236 17.0417 39.624 16.9135 39.7489C16.7854 39.8737 16.5502 39.9999 16.1426 39.9999V39.9999L16.1339 39.9999C15.7323 40.0034 15.5004 39.8789 15.3731 39.7543C15.2442 39.6283 15.1426 39.4246 15.1426 39.1203H13.1426C13.1426 39.8962 13.4159 40.6377 13.9746 41.1841C14.3016 41.5039 14.6994 41.7308 15.1426 41.8628V43H17.1426V41.8586C17.5846 41.726 17.982 41.5001 18.3091 41.1815C18.8684 40.6366 19.1426 39.8973 19.1426 39.1203C19.1426 38.2267 18.7108 37.5321 18.102 37.0936C17.5226 36.6764 16.8059 36.5 16.1426 36.5C15.8059 36.5 15.5226 36.4063 15.352 36.2834C15.2108 36.1818 15.1426 36.0662 15.1426 35.8797Z" fill="#FF601F"/>
</svg>
