<svg width="54" height="60" viewBox="0 0 54 60" fill="none" xmlns="http://www.w3.org/2000/svg">
<path d="M51.9151 27.8086C53.7616 28.8573 53.7616 31.4789 51.9151 32.5276L4.65475 59.367C2.8082 60.4157 0.5 59.1048 0.5 57.0075L0.500002 3.32869C0.500002 1.23135 2.8082 -0.0794905 4.65476 0.96918L51.9151 27.8086Z" fill="#FFECE4"/>
<path fill-rule="evenodd" clip-rule="evenodd" d="M17.7676 20C17.7676 16.203 20.8456 13.125 24.6426 13.125C28.4395 13.125 31.5176 16.203 31.5176 20C31.5176 21.2541 31.1828 22.4266 30.5985 23.4367C30.2874 23.9745 30.4712 24.6627 31.009 24.9738C31.5468 25.2849 32.235 25.1011 32.5461 24.5633C33.3232 23.22 33.7676 21.6602 33.7676 20C33.7676 14.9604 29.6822 10.875 24.6426 10.875C19.603 10.875 15.5176 14.9604 15.5176 20C15.5176 21.6602 15.962 23.22 16.739 24.5633C17.0501 25.1011 17.7383 25.2849 18.2762 24.9738C18.814 24.6627 18.9978 23.9745 18.6866 23.4367C18.1023 22.4266 17.7676 21.2541 17.7676 20ZM26.8091 16.8185C26.482 16.4999 26.0846 16.274 25.6426 16.1414V15H23.6426V16.1372C23.1994 16.2692 22.8016 16.4961 22.4746 16.8159C21.9159 17.3623 21.6426 18.1038 21.6426 18.8797C21.6426 19.7733 22.0743 20.4679 22.6832 20.9064C23.2626 21.3236 23.9793 21.5 24.6426 21.5C24.9793 21.5 25.2626 21.5937 25.4332 21.7166C25.5743 21.8182 25.6426 21.9338 25.6426 22.1203C25.6426 22.4236 25.5417 22.624 25.4135 22.7489C25.2854 22.8737 25.0502 22.9999 24.6426 22.9999V22.9999L24.6339 22.9999C24.2323 23.0034 24.0004 22.8789 23.8731 22.7543C23.7442 22.6283 23.6426 22.4246 23.6426 22.1203H21.6426C21.6426 22.8962 21.9159 23.6377 22.4746 24.1841C23.0338 24.7311 23.8003 25.0063 24.6469 24.9999C25.4876 24.999 26.2507 24.7255 26.8091 24.1815C27.3684 23.6366 27.6426 22.8973 27.6426 22.1203C27.6426 21.2267 27.2108 20.5321 26.602 20.0936C26.0226 19.6764 25.3059 19.5 24.6426 19.5C24.3059 19.5 24.0226 19.4063 23.852 19.2834C23.7108 19.1818 23.6426 19.0662 23.6426 18.8797C23.6426 18.5754 23.7442 18.3717 23.8731 18.2457C24.0004 18.1211 24.2323 17.9966 24.6339 18.0001L24.6339 18.0001H24.6426C25.0502 18.0001 25.2854 18.1263 25.4135 18.2511C25.5417 18.376 25.6426 18.5764 25.6426 18.8797H27.6426C27.6426 18.1027 27.3684 17.3634 26.8091 16.8185Z" fill="#FF601F"/>
<path fill-rule="evenodd" clip-rule="evenodd" d="M7.6507 23.5942C7.84647 23.2284 8.22769 23 8.64258 23H40.6426C41.0575 23 41.4387 23.2284 41.6345 23.5942C41.8302 23.96 41.8088 24.4038 41.5786 24.749L29.7676 42.4656V48.125C29.7676 48.494 29.5866 48.8395 29.2834 49.0497C28.9801 49.2598 28.5931 49.3079 28.2476 49.1784L20.2476 46.1784C19.8085 46.0137 19.5176 45.594 19.5176 45.125V42.4656L7.70652 24.749C7.47638 24.4038 7.45492 23.96 7.6507 23.5942ZM10.7447 25.25L21.5786 41.501C21.7018 41.6858 21.7676 41.9029 21.7676 42.125V44.3454L27.5176 46.5016V42.125C27.5176 41.9029 27.5833 41.6858 27.7065 41.501L38.5405 25.25H10.7447Z" fill="#001E27"/>
</svg>
