<svg width="54" height="60" viewBox="0 0 54 60" fill="none" xmlns="http://www.w3.org/2000/svg">
<path d="M51.9151 27.8086C53.7616 28.8573 53.7616 31.4789 51.9151 32.5276L4.65475 59.367C2.8082 60.4157 0.5 59.1048 0.5 57.0075L0.500002 3.32869C0.500002 1.23135 2.8082 -0.0794905 4.65476 0.96918L51.9151 27.8086Z" fill="#FFECE4"/>
<path fill-rule="evenodd" clip-rule="evenodd" d="M11.5176 12.5V35.5H13.7676L13.7676 18.25H44.6426V18.125V15.875V15.75H13.7676V12.5H11.5176ZM40.6426 23.125H16.6426V20.875H40.6426V23.125ZM16.6426 27.125H40.6426V24.875H16.6426V27.125ZM40.6426 31.125H16.6426V28.875H40.6426V31.125Z" fill="#FF601F"/>
<path fill-rule="evenodd" clip-rule="evenodd" d="M3.51758 13C3.51758 11.8264 4.46897 10.875 5.64258 10.875H43.6426C44.8162 10.875 45.7676 11.8264 45.7676 13V36V41C45.7676 42.1736 44.8162 43.125 43.6426 43.125H28.7676V46.875H43.6426C44.2639 46.875 44.7676 47.3787 44.7676 48C44.7676 48.6213 44.2639 49.125 43.6426 49.125H27.6426H21.6426H5.64258C5.02126 49.125 4.51758 48.6213 4.51758 48C4.51758 47.3787 5.02126 46.875 5.64258 46.875H20.5176V43.125H5.64258C4.46897 43.125 3.51758 42.1736 3.51758 41V36V13ZM22.7676 43.125V46.875H26.5176V43.125H22.7676ZM5.76758 13.125V34.875H43.5176V13.125H5.76758ZM43.5176 37.125H5.76758V40.875H21.6426H27.6426H43.5176V37.125Z" fill="#001E27"/>
</svg>
