<svg width="54" height="60" viewBox="0 0 54 60" fill="none" xmlns="http://www.w3.org/2000/svg">
<path d="M51.9151 27.8086C53.7616 28.8573 53.7616 31.4789 51.9151 32.5276L4.65475 59.367C2.8082 60.4157 0.5 59.1048 0.5 57.0075L0.500002 3.32869C0.500002 1.23135 2.8082 -0.0794905 4.65476 0.96918L51.9151 27.8086Z" fill="#FFECE4"/>
<path fill-rule="evenodd" clip-rule="evenodd" d="M12.6426 21C11.538 21 10.6426 21.8954 10.6426 23V37C10.6426 38.1046 11.538 39 12.6426 39H36.6426C37.7471 39 38.6426 38.1046 38.6426 37V23C38.6426 21.8954 37.7471 21 36.6426 21H12.6426ZM12.6426 23H36.6426V37H12.6426V23ZM24.8865 33.3333C26.678 33.3333 28.1304 31.9156 28.1304 30.1667C28.1304 28.4178 26.678 27 24.8865 27C23.0949 27 21.6426 28.4178 21.6426 30.1667C21.6426 31.9156 23.0949 33.3333 24.8865 33.3333Z" fill="#FF601F"/>
<path fill-rule="evenodd" clip-rule="evenodd" d="M35.5913 14.875C32.4841 12.5844 28.7007 11.125 24.6421 11.125C14.2177 11.125 5.76709 19.5756 5.76709 30C5.76709 31.802 6.0193 33.5433 6.48965 35.1912L4.32605 35.8088C3.79895 33.9619 3.51709 32.0129 3.51709 30C3.51709 18.333 12.9751 8.875 24.6421 8.875C29.5143 8.875 33.9745 10.7245 37.5171 13.5145V10H39.7671V16C39.7671 16.6213 39.2634 17.125 38.6421 17.125H32.6421V14.875H35.5913ZM13.6934 45.125C16.8005 47.4156 20.5839 48.875 24.6426 48.875C35.067 48.875 43.5176 40.4244 43.5176 30C43.5176 28.198 43.2654 26.4567 42.795 24.8088L44.9586 24.1912C45.4857 26.0381 45.7676 27.9871 45.7676 30C45.7676 41.667 36.3096 51.125 24.6426 51.125C19.7704 51.125 15.3102 49.2755 11.7676 46.4855V50H9.51758V44C9.51758 43.3787 10.0213 42.875 10.6426 42.875H16.6426V45.125H13.6934Z" fill="#001E27"/>
</svg>
