<svg width="54" height="60" viewBox="0 0 54 60" fill="none" xmlns="http://www.w3.org/2000/svg">
<path d="M51.9151 27.8086C53.7616 28.8573 53.7616 31.4789 51.9151 32.5276L4.65475 59.367C2.8082 60.4157 0.5 59.1048 0.5 57.0075L0.500002 3.32869C0.500002 1.23135 2.8082 -0.0794905 4.65476 0.96918L51.9151 27.8086Z" fill="#FFECE4"/>
<path fill-rule="evenodd" clip-rule="evenodd" d="M44.4119 23.8207L29.6786 37.6331C29.2458 38.0388 28.5725 38.0388 28.1397 37.6331L20.9758 30.917L10.4119 40.8207L8.87305 39.1792L20.2064 28.5542C20.6391 28.1485 21.3125 28.1485 21.7452 28.5542L28.9091 35.2703L42.8731 22.1792L44.4119 23.8207Z" fill="#FF601F"/>
<path fill-rule="evenodd" clip-rule="evenodd" d="M3.51758 49V10H5.76758V48.875H44.6426V51.125H5.64258C4.46897 51.125 3.51758 50.1736 3.51758 49Z" fill="#001E27"/>
</svg>
