<svg width="27" height="24" viewBox="0 0 27 24" fill="none" xmlns="http://www.w3.org/2000/svg">
<path fill-rule="evenodd" clip-rule="evenodd" d="M22.7071 0.292969L26 3.58601C26.7811 4.36707 26.781 5.63341 26 6.41444L22.7071 9.70718L21.2929 8.29294L23.5859 6.00006H23.5821H23.5707H23.5594H23.548H23.5367H23.5254H23.5141H23.5028H23.4916H23.4803H23.469H23.4578H23.4465H23.4353H23.4241H23.4129H23.4017H23.3905H23.3793H23.3681H23.357H23.3458H23.3347H23.3235H23.3124H23.3013H23.2902H23.2791H23.268H23.257H23.2459H23.2348H23.2238H23.2128H23.2017H23.1907H23.1797H23.1687H23.1577H23.1468H23.1358H23.1248H23.1139H23.103H23.092H23.0811H23.0702H23.0593H23.0484H23.0376H23.0267H23.0159H23.005H22.9942H22.9833H22.9725H22.9617H22.9509H22.9402H22.9294H22.9186H22.9079H22.8971H22.8864H22.8757H22.865H22.8543H22.8436H22.8329H22.8222H22.8116H22.8009H22.7903H22.7797H22.769H22.7584H22.7478H22.7372H22.7267H22.7161H22.7055H22.695H22.6845H22.6739H22.6634H22.6529H22.6424H22.632H22.6215H22.611H22.6006H22.5901H22.5797H22.5693H22.5589H22.5485H22.5381H22.5277H22.5174H22.507H22.4967H22.4863H22.476H22.4657H22.4554H22.4451H22.4348H22.4246H22.4143H22.4041H22.3938H22.3836H22.3734H22.3632H22.353H22.3428H22.3327H22.3225H22.3123H22.3022H22.2921H22.282H22.2719H22.2618H22.2517H22.2416H22.2316H22.2215H22.2115H22.2014H22.1914H22.1814H22.1714H22.1614H22.1515H22.1415H22.1316H22.1216H22.1117H22.1018H22.0919H22.082H22.0721H22.0622H22.0524H22.0425H22.0327H22.0229H22.0131H22.0033H21.9935H21.9837H21.9739H21.9642H21.9544H21.9447H21.935H21.9252H21.9156H21.9059H21.8962H21.8865H21.8769H21.8672H21.8576H21.848H21.8384H21.8288H21.8192H21.8096H21.8H21.7905H21.781H21.7714H21.7619H21.7524H21.7429H21.7334H21.724H21.7145H21.7051H21.6956H21.6862H21.6768H21.6674H21.658H21.6486H21.6393H21.6299H21.6206H21.6113H21.6019H21.5926H21.5833H21.5741H21.5648H21.5555H21.5463H21.5371H21.5278H21.5186H21.5094H21.5003H21.4911H21.4819H21.4728H21.4636H21.4545H21.4454H21.4363H21.4272H21.4181H21.4091H21.4H21.391H21.3819H21.3729H21.3639H21.3549H21.346H21.337H21.328H21.3191H21.3102H21.3012H21.2923H21.2834H21.2746H21.2657H21.2568H21.248H21.2392H21.2303H21.2215H21.2127H21.2039H21.1952H21.1864H21.1777H21.1689H21.1602H21.1515H21.1428H21.1341H21.1255H21.1168H21.1082H21.0995H21.0909H21.0823H21.0737H21.0651H21.0565H21.048H21.0394H21.0309H21.0224H21.0139H21.0054H20.9969H20.9884H20.98H20.9715H20.9631H20.9547H20.9463H20.9379H20.9295H20.9211H20.9128H20.9044H20.8961H20.8878H20.8795H20.8712H20.8629H20.8546H20.8464H20.8382H20.8299H20.8217H20.8135H20.8053H20.7971H20.789H20.7808H20.7727H20.7646H20.7565H20.7484H20.7403H20.7322H20.7242H20.7161H20.7081H20.7001H20.6921H20.6841H20.6761H20.6681H20.6602H20.6522H20.6443H20.6364H20.6285H20.6206H20.6127H20.6049H20.597H20.5892H20.5814H20.5736H20.5658H20.558H20.5502C19.6218 6.00006 18.7467 6.42997 18.1784 7.16515L14.4405 12.0001L18.1784 16.835C18.7467 17.5702 19.6218 18.0001 20.5502 18.0001H20.558H20.5658H20.5736H20.5814H20.5892H20.597H20.6049H20.6127H20.6206H20.6285H20.6364H20.6443H20.6522H20.6602H20.6681H20.6761H20.6841H20.692H20.7001H20.7081H20.7161H20.7241H20.7322H20.7403H20.7484H20.7565H20.7646H20.7727H20.7808H20.789H20.7971H20.8053H20.8135H20.8217H20.8299H20.8381H20.8464H20.8546H20.8629H20.8712H20.8795H20.8878H20.8961H20.9044H20.9128H20.9211H20.9295H20.9379H20.9463H20.9547H20.9631H20.9715H20.98H20.9884H20.9969H21.0054H21.0139H21.0224H21.0309H21.0394H21.048H21.0565H21.0651H21.0737H21.0823H21.0909H21.0995H21.1081H21.1168H21.1254H21.1341H21.1428H21.1515H21.1602H21.1689H21.1777H21.1864H21.1952H21.2039H21.2127H21.2215H21.2303H21.2391H21.248H21.2568H21.2657H21.2745H21.2834H21.2923H21.3012H21.3101H21.3191H21.328H21.337H21.3459H21.3549H21.3639H21.3729H21.3819H21.391H21.4H21.4091H21.4181H21.4272H21.4363H21.4454H21.4545H21.4636H21.4728H21.4819H21.4911H21.5002H21.5094H21.5186H21.5278H21.5371H21.5463H21.5555H21.5648H21.5741H21.5833H21.5926H21.6019H21.6112H21.6206H21.6299H21.6393H21.6486H21.658H21.6674H21.6768H21.6862H21.6956H21.7051H21.7145H21.724H21.7334H21.7429H21.7524H21.7619H21.7714H21.7809H21.7905H21.8H21.8096H21.8192H21.8288H21.8384H21.848H21.8576H21.8672H21.8769H21.8865H21.8962H21.9059H21.9155H21.9252H21.935H21.9447H21.9544H21.9642H21.9739H21.9837H21.9935H22.0033H22.0131H22.0229H22.0327H22.0425H22.0524H22.0622H22.0721H22.082H22.0919H22.1018H22.1117H22.1216H22.1316H22.1415H22.1515H22.1614H22.1714H22.1814H22.1914H22.2014H22.2115H22.2215H22.2316H22.2416H22.2517H22.2618H22.2719H22.282H22.2921H22.3022H22.3123H22.3225H22.3326H22.3428H22.353H22.3632H22.3734H22.3836H22.3938H22.4041H22.4143H22.4246H22.4348H22.4451H22.4554H22.4657H22.476H22.4863H22.4967H22.507H22.5174H22.5277H22.5381H22.5485H22.5589H22.5693H22.5797H22.5901H22.6006H22.611H22.6215H22.632H22.6424H22.6529H22.6634H22.6739H22.6845H22.695H22.7055H22.7161H22.7267H22.7372H22.7478H22.7584H22.769H22.7796H22.7903H22.8009H22.8116H22.8222H22.8329H22.8436H22.8543H22.865H22.8757H22.8864H22.8971H22.9079H22.9186H22.9294H22.9402H22.9509H22.9617H22.9725H22.9833H22.9942H23.005H23.0158H23.0267H23.0376H23.0484H23.0593H23.0702H23.0811H23.092H23.103H23.1139H23.1248H23.1358H23.1468H23.1577H23.1687H23.1797H23.1907H23.2017H23.2128H23.2238H23.2348H23.2459H23.257H23.268H23.2791H23.2902H23.3013H23.3124H23.3235H23.3347H23.3458H23.357H23.3681H23.3793H23.3905H23.4017H23.4129H23.4241H23.4353H23.4465H23.4578H23.469H23.4803H23.4916H23.5028H23.5141H23.5254H23.5367H23.548H23.5594H23.5707H23.582H23.5858L21.2929 15.7072L22.7071 14.293L26 17.5858C26.781 18.3669 26.781 19.6332 26 20.4143L22.7071 23.7072L21.2929 22.293L23.5858 20.0001H23.582H23.5707H23.5594H23.548H23.5367H23.5254H23.5141H23.5028H23.4916H23.4803H23.469H23.4578H23.4465H23.4353H23.4241H23.4129H23.4017H23.3905H23.3793H23.3681H23.357H23.3458H23.3347H23.3235H23.3124H23.3013H23.2902H23.2791H23.268H23.257H23.2459H23.2348H23.2238H23.2128H23.2017H23.1907H23.1797H23.1687H23.1577H23.1468H23.1358H23.1248H23.1139H23.103H23.092H23.0811H23.0702H23.0593H23.0484H23.0376H23.0267H23.0158H23.005H22.9942H22.9833H22.9725H22.9617H22.9509H22.9402H22.9294H22.9186H22.9079H22.8971H22.8864H22.8757H22.865H22.8543H22.8436H22.8329H22.8222H22.8116H22.8009H22.7903H22.7796H22.769H22.7584H22.7478H22.7372H22.7267H22.7161H22.7055H22.695H22.6845H22.6739H22.6634H22.6529H22.6424H22.632H22.6215H22.611H22.6006H22.5901H22.5797H22.5693H22.5589H22.5485H22.5381H22.5277H22.5174H22.507H22.4967H22.4863H22.476H22.4657H22.4554H22.4451H22.4348H22.4246H22.4143H22.4041H22.3938H22.3836H22.3734H22.3632H22.353H22.3428H22.3326H22.3225H22.3123H22.3022H22.2921H22.282H22.2719H22.2618H22.2517H22.2416H22.2316H22.2215H22.2115H22.2014H22.1914H22.1814H22.1714H22.1614H22.1515H22.1415H22.1316H22.1216H22.1117H22.1018H22.0919H22.082H22.0721H22.0622H22.0524H22.0425H22.0327H22.0229H22.0131H22.0033H21.9935H21.9837H21.9739H21.9642H21.9544H21.9447H21.935H21.9252H21.9155H21.9059H21.8962H21.8865H21.8769H21.8672H21.8576H21.848H21.8384H21.8288H21.8192H21.8096H21.8H21.7905H21.7809H21.7714H21.7619H21.7524H21.7429H21.7334H21.724H21.7145H21.7051H21.6956H21.6862H21.6768H21.6674H21.658H21.6486H21.6393H21.6299H21.6206H21.6112H21.6019H21.5926H21.5833H21.5741H21.5648H21.5555H21.5463H21.5371H21.5278H21.5186H21.5094H21.5002H21.4911H21.4819H21.4728H21.4636H21.4545H21.4454H21.4363H21.4272H21.4181H21.4091H21.4H21.391H21.3819H21.3729H21.3639H21.3549H21.3459H21.337H21.328H21.3191H21.3101H21.3012H21.2923H21.2834H21.2745H21.2657H21.2568H21.248H21.2391H21.2303H21.2215H21.2127H21.2039H21.1952H21.1864H21.1777H21.1689H21.1602H21.1515H21.1428H21.1341H21.1254H21.1168H21.1081H21.0995H21.0909H21.0823H21.0737H21.0651H21.0565H21.048H21.0394H21.0309H21.0224H21.0139H21.0054H20.9969H20.9884H20.98H20.9715H20.9631H20.9547H20.9463H20.9379H20.9295H20.9211H20.9128H20.9044H20.8961H20.8878H20.8795H20.8712H20.8629H20.8546H20.8464H20.8381H20.8299H20.8217H20.8135H20.8053H20.7971H20.789H20.7808H20.7727H20.7646H20.7565H20.7484H20.7403H20.7322H20.7241H20.7161H20.7081H20.7001H20.692H20.6841H20.6761H20.6681H20.6602H20.6522H20.6443H20.6364H20.6285H20.6206H20.6127H20.6049H20.597H20.5892H20.5814H20.5736H20.5658H20.558H20.5502C19.0017 20.0001 17.5427 19.2826 16.5961 18.0582L13.1765 13.635L9.75682 18.0582C8.80996 19.283 7.3492 20.0001 5.80113 20.0001H0V18.0001H5.80113C6.72997 18.0001 7.60643 17.5698 8.17454 16.835L11.9125 12.0001L8.17453 7.16515C7.60642 6.43031 6.72996 6.00006 5.80112 6.00006H0V4.00006H5.80112C7.34919 4.00006 8.80995 4.71714 9.75681 5.94188L13.1765 10.3651L16.5961 5.94188C17.5427 4.71748 19.0017 4.00006 20.5502 4.00006H20.558H20.5658H20.5736H20.5814H20.5892H20.597H20.6049H20.6127H20.6206H20.6285H20.6364H20.6443H20.6522H20.6602H20.6681H20.6761H20.6841H20.6921H20.7001H20.7081H20.7161H20.7242H20.7322H20.7403H20.7484H20.7565H20.7646H20.7727H20.7808H20.789H20.7971H20.8053H20.8135H20.8217H20.8299H20.8382H20.8464H20.8546H20.8629H20.8712H20.8795H20.8878H20.8961H20.9044H20.9128H20.9211H20.9295H20.9379H20.9463H20.9547H20.9631H20.9715H20.98H20.9884H20.9969H21.0054H21.0139H21.0224H21.0309H21.0394H21.048H21.0565H21.0651H21.0737H21.0823H21.0909H21.0995H21.1082H21.1168H21.1255H21.1341H21.1428H21.1515H21.1602H21.1689H21.1777H21.1864H21.1952H21.2039H21.2127H21.2215H21.2303H21.2392H21.248H21.2568H21.2657H21.2746H21.2834H21.2923H21.3012H21.3102H21.3191H21.328H21.337H21.346H21.3549H21.3639H21.3729H21.3819H21.391H21.4H21.4091H21.4181H21.4272H21.4363H21.4454H21.4545H21.4636H21.4728H21.4819H21.4911H21.5003H21.5094H21.5186H21.5278H21.5371H21.5463H21.5555H21.5648H21.5741H21.5833H21.5926H21.6019H21.6113H21.6206H21.6299H21.6393H21.6486H21.658H21.6674H21.6768H21.6862H21.6956H21.7051H21.7145H21.724H21.7334H21.7429H21.7524H21.7619H21.7714H21.781H21.7905H21.8H21.8096H21.8192H21.8288H21.8384H21.848H21.8576H21.8672H21.8769H21.8865H21.8962H21.9059H21.9156H21.9252H21.935H21.9447H21.9544H21.9642H21.9739H21.9837H21.9935H22.0033H22.0131H22.0229H22.0327H22.0425H22.0524H22.0622H22.0721H22.082H22.0919H22.1018H22.1117H22.1216H22.1316H22.1415H22.1515H22.1614H22.1714H22.1814H22.1914H22.2014H22.2115H22.2215H22.2316H22.2416H22.2517H22.2618H22.2719H22.282H22.2921H22.3022H22.3123H22.3225H22.3327H22.3428H22.353H22.3632H22.3734H22.3836H22.3938H22.4041H22.4143H22.4246H22.4348H22.4451H22.4554H22.4657H22.476H22.4863H22.4967H22.507H22.5174H22.5277H22.5381H22.5485H22.5589H22.5693H22.5797H22.5901H22.6006H22.611H22.6215H22.632H22.6424H22.6529H22.6634H22.6739H22.6845H22.695H22.7055H22.7161H22.7267H22.7372H22.7478H22.7584H22.769H22.7797H22.7903H22.8009H22.8116H22.8222H22.8329H22.8436H22.8543H22.865H22.8757H22.8864H22.8971H22.9079H22.9186H22.9294H22.9402H22.9509H22.9617H22.9725H22.9833H22.9942H23.005H23.0159H23.0267H23.0376H23.0484H23.0593H23.0702H23.0811H23.092H23.103H23.1139H23.1248H23.1358H23.1468H23.1577H23.1687H23.1797H23.1907H23.2017H23.2128H23.2238H23.2348H23.2459H23.257H23.268H23.2791H23.2902H23.3013H23.3124H23.3235H23.3347H23.3458H23.357H23.3681H23.3793H23.3905H23.4017H23.4129H23.4241H23.4353H23.4465H23.4578H23.469H23.4803H23.4916H23.5028H23.5141H23.5254H23.5367H23.548H23.5594H23.5707H23.5821H23.5857L21.2929 1.70715L22.7071 0.292969Z" fill="#001E27"/>
</svg>
