<svg width="20" height="25" viewBox="0 0 20 25" fill="none" xmlns="http://www.w3.org/2000/svg">
<path fill-rule="evenodd" clip-rule="evenodd" d="M4 8L4 11H5V8C5 5.23858 7.23858 3 10 3C12.7614 3 15 5.23858 15 8V11H16V8C16 4.68629 13.3137 2 10 2C6.68629 2 4 4.68629 4 8ZM13 11V8C13 6.34314 11.6569 5 10 5C8.34315 5 7 6.34315 7 8V11H13ZM2 8L2 11C0.895431 11 0 11.8954 0 13V23C0 24.1046 0.895432 25 2 25H18C19.1046 25 20 24.1046 20 23V13C20 11.8954 19.1046 11 18 11V8C18 3.58172 14.4183 0 10 0C5.58172 0 2 3.58172 2 8ZM2 23V13H4L16 13H18V23H2Z" fill="#001E27"/>
</svg>
