<svg width="23" height="28" viewBox="0 0 23 28" fill="none" xmlns="http://www.w3.org/2000/svg">
<path fill-rule="evenodd" clip-rule="evenodd" d="M7.31865 0.514358C7.49502 0.196892 7.82964 0 8.19281 0H18.2628C18.6094 0 18.9312 0.179453 19.1134 0.47427C19.2956 0.769087 19.3122 1.13723 19.1572 1.44722L15.5651 8.63139H21.1399C21.5279 8.63139 21.8809 8.85585 22.0454 9.20724C22.21 9.55862 22.1565 9.97349 21.9081 10.2716L7.52245 27.5344C7.23988 27.8735 6.76841 27.9872 6.36233 27.8142C5.95624 27.6412 5.7116 27.2224 5.76034 26.7838L7.07549 14.9471H1C0.645681 14.9471 0.317815 14.7596 0.13813 14.4542C-0.0415559 14.1488 -0.0462302 13.7712 0.125842 13.4614L7.31865 0.514358ZM8.78121 2L2.69951 12.9471H8.19275C8.47719 12.9471 8.74818 13.0682 8.93788 13.2802C9.12758 13.4921 9.21805 13.7748 9.18664 14.0575L8.11543 23.6987L19.0048 10.6314H13.9471C13.6005 10.6314 13.2786 10.4519 13.0964 10.1571C12.9142 9.86231 12.8976 9.49417 13.0526 9.18418L16.6447 2H8.78121Z" fill="#001E27"/>
</svg>
